<?xml version='1.0' encoding='utf-8'?>
<svg xmlns="http://www.w3.org/2000/svg" version="1.1" width="512" height="512">
  <defs />
  <g>
    <path d="M 207.14927673339844 53.42144012451172 C 188.7801513671875 51.774742126464844 189.87025451660156 53.11629867553711 181.12960815429688 56.98021697998047 C 170.02732849121094 63.27676773071289 160.7706298828125 72.86649322509766 153.37559509277344 82.33280944824219 C 147.30178833007812 90.6006088256836 141.42286682128906 100.87151336669922 138.00082397460938 112.27618408203125 C 135.55157470703125 118.78266906738281 136.4406280517578 133.0549774169922 138.1979217529297 132.98004150390625 C 114.93441772460938 155.67572021484375 98.97708892822266 187.9725799560547 82.94844818115234 218.98101806640625 C 78.08332061767578 239.35472106933594 89.94596099853516 240.70530700683594 91.46907806396484 260.08612060546875 C 97.0146713256836 266.12811279296875 101.52385711669922 268.7066955566406 109.72299194335938 268.0802001953125 C 117.458740234375 266.01312255859375 121.38465881347656 254.3438720703125 124.2966537475586 255.5096893310547 C 122.85041809082031 298.05609130859375 102.63945770263672 329.94647216796875 96.4525375366211 374.38665771484375 C 92.81158447265625 398.4945068359375 103.79415130615234 399.2444763183594 97.8329086303711 415.9432067871094 C 98.82674407958984 423.98443603515625 103.93478393554688 428.40838623046875 106.5831298828125 429.00408935546875 C 112.61751556396484 431.9810791015625 121.3048095703125 431.5155944824219 128.05917358398438 426.6778259277344 C 136.05398559570312 421.9564514160156 136.16806030273438 412.6836242675781 148.0087127685547 406.6123962402344 C 162.9922637939453 382.5635070800781 169.43359375 341.433837890625 181.94091796875 320.3564758300781 C 188.68319702148438 316.05279541015625 188.23171997070312 322.9334411621094 192.75221252441406 326.9999694824219 C 207.5303192138672 361.66937255859375 228.4666748046875 390.4216613769531 232.77484130859375 419.0675354003906 C 239.4864501953125 427.83380126953125 254.03738403320312 429.5221252441406 263.5927429199219 420.05706787109375 C 271.61383056640625 416.6923522949219 268.9894104003906 402.3291320800781 278.39471435546875 385.47967529296875 C 278.3809509277344 338.2774963378906 260.4259033203125 301.8090515136719 255.49449157714844 253.6542205810547 C 262.731201171875 254.43222045898438 258.9478759765625 252.76950073242188 263.19830322265625 257.130615234375 C 272.80804443359375 260.04205322265625 267.0682678222656 279.8587341308594 287.3638916015625 277.7336730957031 C 290.6939392089844 278.6181945800781 301.6986083984375 271.7021179199219 298.84246826171875 274.0501403808594 C 296.966552734375 254.1828155517578 314.3330383300781 244.58326721191406 307.77581787109375 227.58334350585938 C 297.2568054199219 195.79571533203125 280.32781982421875 169.35903930664062 264.6611633300781 143.28237915039062 C 268.99468994140625 127.30924987792969 260.69610595703125 108.23430633544922 253.86581420898438 96.82174682617188 C 246.39208984375 83.57201385498047 238.23483276367188 72.52098846435547 226.46749877929688 63.61640930175781 C 221.77542114257812 59.0853271484375 215.40077209472656 55.75760269165039 207.14927673339844 53.42144012451172" stroke-width="0.0" fill="rgb(203, 164, 188)" opacity="0.9701867" stroke="rgb(0, 0, 0)" stroke-opacity="1.0" stroke-linecap="round" stroke-linejoin="round" />
    <path d="M 378.75384521484375 217.00045776367188 C 370.07763671875 218.24411010742188 356.818359375 227.75970458984375 353.94158935546875 235.4639892578125 C 342.5611572265625 255.96168518066406 351.7817077636719 267.3723449707031 344.4737243652344 272.8032531738281 C 335.9642639160156 281.85498046875 318.5220947265625 274.0704345703125 309.0325927734375 271.05694580078125 C 302.9268798828125 275.1557312011719 299.5294189453125 283.2494812011719 302.0226135253906 288.6715087890625 C 302.2063903808594 300.0906066894531 324.37548828125 302.394775390625 328.8515625 317.7578125 C 331.780029296875 348.4989929199219 330.11224365234375 379.5069274902344 338.412109375 412.9667053222656 C 342.0689392089844 418.44500732421875 352.5475769042969 422.5928649902344 363.27532958984375 415.15570068359375 C 365.38592529296875 408.14031982421875 367.4638977050781 395.7492980957031 374.5377502441406 381.07318115234375 C 376.1559753417969 379.45111083984375 378.903076171875 374.4368591308594 384.65081787109375 378.19049072265625 C 394.5701599121094 387.5072326660156 401.52838134765625 404.9456787109375 416.5762023925781 418.8849792480469 C 421.2944641113281 421.6239013671875 428.57122802734375 424.0505676269531 435.4685974121094 419.95660400390625 C 440.290283203125 420.5896911621094 447.3158874511719 409.7714538574219 437.8196716308594 400.7167053222656 C 433.7993469238281 389.87701416015625 429.61187744140625 358.10498046875 425.7301330566406 345.18377685546875 C 427.4020690917969 324.3608093261719 429.86517333984375 329.83685302734375 443.3766174316406 327.1029357910156 C 445.02020263671875 329.43157958984375 450.4068908691406 334.7290954589844 461.89508056640625 334.33050537109375 C 468.6670227050781 332.7725830078125 476.6799621582031 324.9020080566406 469.3612365722656 313.609130859375 C 448.341064453125 305.98016357421875 432.2841491699219 287.4333190917969 406.211669921875 272.5368957519531 C 413.7451477050781 250.98316955566406 413.171875 241.34176635742188 405.53472900390625 229.1923370361328 C 400.4632263183594 221.62713623046875 392.3932189941406 215.47601318359375 378.75384521484375 217.00045776367188" stroke-width="0.0" fill="rgb(220, 183, 173)" opacity="1.0093573" stroke="rgb(0, 0, 0)" stroke-opacity="1.0" stroke-linecap="round" stroke-linejoin="round" />
    <path d="M 269.8018493652344 265.79595947265625 C 265.98663330078125 249.74069213867188 265.9355773925781 267.7734069824219 269.81939697265625 276.301025390625 C 286.7341613769531 283.2842712402344 290.47943115234375 295.3501892089844 308.9244384765625 299.5254211425781 C 299.3729248046875 291.2298278808594 298.76837158203125 274.2023620605469 312.3775939941406 271.3975524902344 C 310.5301513671875 271.5549011230469 308.16845703125 263.4791564941406 299.3663330078125 258.7600402832031 C 300.4422912597656 279.8894348144531 288.80718994140625 278.8482666015625 278.9176330566406 276.48284912109375 C 290.6379699707031 275.7085876464844 278.0807800292969 280.4977111816406 269.8018493652344 265.79595947265625" stroke-width="0.0" fill="rgb(233, 173, 152)" opacity="0.9698989" stroke="rgb(0, 0, 0)" stroke-opacity="1.0" stroke-linecap="round" stroke-linejoin="round" />
    <path d="M 83.23741912841797 218.7643280029297 C 79.82392120361328 234.8902587890625 83.1473159790039 238.20782470703125 90.28585815429688 246.8188934326172 C 102.47085571289062 241.135498046875 116.80521392822266 246.84019470214844 123.15167999267578 249.6493682861328 C 177.6451873779297 251.1837158203125 211.9129638671875 259.8038330078125 234.5549774169922 251.52210998535156 C 259.92108154296875 249.8411102294922 257.06732177734375 249.74282836914062 266.9093933105469 258.76690673828125 C 273.0214538574219 253.318603515625 289.3970031738281 252.18045043945312 300.0419616699219 258.0282287597656 C 303.5763854980469 251.58717346191406 306.98406982421875 247.50704956054688 308.12957763671875 236.5654754638672 C 309.0046691894531 229.91392517089844 305.13720703125 218.3552703857422 301.0705261230469 210.92164611816406 C 290.6452331542969 187.2223663330078 278.44744873046875 165.82688903808594 263.8255615234375 142.75506591796875 C 254.9456329345703 147.43649291992188 246.58444213867188 145.1934814453125 241.44515991210938 142.66302490234375 C 232.36386108398438 139.06759643554688 225.89366149902344 130.56272888183594 227.3673858642578 125.15597534179688 C 209.9765625 126.90425872802734 191.4356231689453 125.95712280273438 175.43283081054688 124.15790557861328 C 175.48434448242188 131.09637451171875 171.26336669921875 135.41339111328125 161.28231811523438 140.6309356689453 C 137.16929626464844 143.2162628173828 145.11297607421875 133.4196319580078 136.16885375976562 136.83082580566406 C 112.27226257324219 160.24671936035156 97.47855377197266 193.7511749267578 83.23741912841797 218.7643280029297" stroke-width="0.0" fill="rgb(242, 158, 192)" opacity="0.9651473" stroke="rgb(0, 0, 0)" stroke-opacity="1.0" stroke-linecap="round" stroke-linejoin="round" />
    <path d="M 128.90576171875 251.8151092529297 C 119.64491271972656 297.9727783203125 105.19056701660156 329.1894226074219 97.16822052001953 371.1789855957031 C 94.68923950195312 387.1850280761719 95.66258239746094 393.67156982421875 101.17164611816406 403.21148681640625 C 114.31312561035156 401.810302734375 123.98622131347656 404.4555969238281 138.1853790283203 410.8318176269531 C 144.22799682617188 409.1421203613281 147.31161499023438 405.2645263671875 148.1561737060547 403.80596923828125 C 163.73228454589844 382.4499206542969 167.9873046875 342.3297424316406 184.5418243408203 315.17510986328125 C 200.9910125732422 338.66815185546875 212.9065704345703 373.1227111816406 230.45896911621094 400.99957275390625 C 248.22335815429688 391.8130187988281 266.2512512207031 399.396240234375 271.348876953125 397.57672119140625 C 279.5798034667969 385.0255432128906 279.4356384277344 381.95831298828125 276.1492004394531 355.380126953125 C 269.85174560546875 323.9914245605469 262.2183837890625 288.1604919433594 252.86756896972656 254.0281524658203 C 201.2205352783203 259.735595703125 172.97909545898438 256.9014892578125 128.90576171875 251.8151092529297" stroke-width="0.0" fill="rgb(211, 185, 209)" opacity="0.94333667" stroke="rgb(0, 0, 0)" stroke-opacity="1.0" stroke-linecap="round" stroke-linejoin="round" />
    <path d="M 137.52206420898438 112.9443359375 C 135.47738647460938 123.89697265625 137.03286743164062 130.4825897216797 139.654052734375 135.5063934326172 C 141.95973205566406 137.00784301757812 152.69113159179688 142.5737762451172 160.54444885253906 138.9989013671875 C 169.91127014160156 136.5809783935547 172.09640502929688 131.0543975830078 176.25991821289062 123.91718292236328 C 178.12771606445312 112.68448638916016 180.15762329101562 97.96289825439453 187.41793823242188 88.08793640136719 C 190.50674438476562 80.01497650146484 199.66152954101562 78.30370330810547 201.1845245361328 81.50279998779297 C 207.87384033203125 80.3773193359375 212.73509216308594 86.53380584716797 216.61080932617188 92.56275939941406 C 224.79248046875 106.45779418945312 224.2678985595703 126.734130859375 233.62425231933594 136.9706268310547 C 239.8591766357422 141.88577270507812 242.80960083007812 145.25057983398438 254.4384002685547 144.19888305664062 C 257.1197204589844 145.02740478515625 265.0281982421875 142.97769165039062 266.4635009765625 138.175537109375 C 266.8625793457031 116.61730194091797 255.91270446777344 99.3113784790039 246.86534118652344 84.3363037109375 C 239.0854949951172 74.28369903564453 231.6559600830078 65.46961975097656 221.63499450683594 59.38082504272461 C 215.42144775390625 55.46052932739258 210.1171112060547 52.57830047607422 198.8617401123047 51.90110397338867 C 188.93397521972656 51.86180877685547 178.81985473632812 57.555721282958984 171.3894500732422 63.293758392333984 C 155.5079345703125 76.54131317138672 143.67141723632812 92.18758392333984 137.52206420898438 112.9443359375" stroke-width="0.0" fill="rgb(64, 37, 41)" opacity="0.96624315" stroke="rgb(0, 0, 0)" stroke-opacity="1.0" stroke-linecap="round" stroke-linejoin="round" />
    <path d="M 353.78814697265625 234.02662658691406 C 348.2712707519531 242.06912231445312 347.9889221191406 251.6544952392578 356.4020080566406 259.0586853027344 C 361.3252868652344 264.41015625 371.4101867675781 264.32769775390625 381.2268981933594 266.8963928222656 C 385.9216003417969 268.23577880859375 403.7803039550781 264.8406677246094 406.8449401855469 266.0260925292969 C 412.0905456542969 261.8560791015625 411.8929138183594 249.90293884277344 410.9488830566406 240.7078399658203 C 407.6615905761719 229.77197265625 403.7597961425781 224.18479919433594 396.15185546875 220.30313110351562 C 391.4198303222656 216.1258087158203 386.2532043457031 216.87152099609375 378.4559326171875 216.8179168701172 C 366.2373046875 218.96234130859375 358.8321228027344 226.9152069091797 353.78814697265625 234.02662658691406" stroke-width="0.0" fill="rgb(250, 93, 62)" opacity="0.98922056" stroke="rgb(0, 0, 0)" stroke-opacity="1.0" stroke-linecap="round" stroke-linejoin="round" />
    <path d="M 188.7550048828125 83.44046783447266 C 180.38099670410156 95.11351776123047 176.492919921875 111.42718505859375 175.4401092529297 124.3921127319336 C 187.87574768066406 126.73441314697266 209.4867401123047 127.3582992553711 227.44473266601562 125.35888671875 C 223.3511962890625 112.14119720458984 221.15350341796875 94.17520141601562 210.8447723388672 85.19595336914062 C 204.68800354003906 78.81794738769531 199.03909301757812 77.87910461425781 188.7550048828125 83.44046783447266" stroke-width="0.0" fill="rgb(239, 134, 141)" opacity="0.82683975" stroke="rgb(0, 0, 0)" stroke-opacity="1.0" stroke-linecap="round" stroke-linejoin="round" />
    <path d="M 234.69467163085938 399.1922607421875 C 229.63687133789062 402.2127685546875 228.73724365234375 403.84429931640625 230.60462951660156 414.9515686035156 C 232.3144989013672 419.92144775390625 236.17906188964844 424.3119201660156 240.74652099609375 425.9918212890625 C 251.2532958984375 428.7909240722656 254.95091247558594 426.095703125 260.5037536621094 423.07757568359375 C 265.3282470703125 420.7864074707031 268.5403747558594 415.5057373046875 271.08282470703125 408.0874328613281 C 270.4378967285156 396.889892578125 272.1601257324219 402.7314147949219 268.598388671875 399.105224609375 C 255.33566284179688 395.80755615234375 244.11148071289062 396.4759521484375 234.69467163085938 399.1922607421875" stroke-width="0.0" fill="rgb(251, 98, 65)" opacity="0.95674175" stroke="rgb(0, 0, 0)" stroke-opacity="1.0" stroke-linecap="round" stroke-linejoin="round" />
    <path d="M 97.49400329589844 416.4080810546875 C 98.51704406738281 423.1541442871094 101.1165542602539 427.2893371582031 106.18379974365234 429.5003662109375 C 111.31600952148438 432.1064453125 121.94000244140625 431.565673828125 125.49092102050781 428.7685546875 C 130.4373016357422 425.41705322265625 135.3429412841797 420.64520263671875 138.10671997070312 412.9158935546875 C 129.92990112304688 406.9783935546875 121.63227081298828 403.9727783203125 107.4107894897461 403.2442932128906 C 101.77648162841797 403.7164306640625 99.03388977050781 404.92755126953125 97.49400329589844 416.4080810546875" stroke-width="0.0" fill="rgb(244, 107, 81)" opacity="1.0007291" stroke="rgb(0, 0, 0)" stroke-opacity="1.0" stroke-linecap="round" stroke-linejoin="round" />
    <path d="M 266.9786071777344 258.31201171875 C 265.51715087890625 270.4910888671875 271.2276916503906 274.6986083984375 278.7666320800781 280.1040344238281 C 283.9696960449219 281.5333557128906 289.8497009277344 285.19281005859375 290.1316833496094 283.0370178222656 C 295.5414733886719 278.7982482910156 300.01971435546875 276.37548828125 302.07379150390625 271.2138671875 C 303.409912109375 263.3233642578125 300.3426208496094 258.3058776855469 294.5762939453125 256.0661926269531 C 285.95001220703125 251.69911193847656 274.9005126953125 255.4174041748047 266.9786071777344 258.31201171875" stroke-width="0.0" fill="rgb(235, 164, 145)" opacity="0.93706447" stroke="rgb(0, 0, 0)" stroke-opacity="1.0" stroke-linecap="round" stroke-linejoin="round" />
    <path d="M 408.95233154296875 406.90130615234375 C 408.4085388183594 413.611083984375 413.2738952636719 419.2757568359375 421.7850036621094 421.4946594238281 C 435.2860412597656 423.3938903808594 439.7206115722656 421.04949951171875 443.1109924316406 412.23907470703125 C 442.85650634765625 406.6519470214844 438.7209777832031 398.5429382324219 433.93902587890625 398.0199279785156 C 420.530517578125 397.21490478515625 412.9056091308594 398.76953125 408.95233154296875 406.90130615234375" stroke-width="0.0" fill="rgb(81, 51, 55)" opacity="0.99987894" stroke="rgb(0, 0, 0)" stroke-opacity="1.0" stroke-linecap="round" stroke-linejoin="round" />
    <path d="M 455.63330078125 306.944580078125 C 448.4957275390625 310.7381286621094 443.6619567871094 317.67132568359375 443.9737548828125 326.96075439453125 C 447.10614013671875 334.02459716796875 451.19915771484375 335.6207580566406 464.78375244140625 335.0303649902344 C 470.8134765625 330.6342468261719 474.77386474609375 329.2205505371094 472.9791564941406 317.98492431640625 C 469.2294006347656 312.121826171875 463.7610168457031 308.45733642578125 455.63330078125 306.944580078125" stroke-width="0.0" fill="rgb(252, 169, 65)" opacity="1.0205518" stroke="rgb(0, 0, 0)" stroke-opacity="1.0" stroke-linecap="round" stroke-linejoin="round" />
    <path d="M 89.39398193359375 247.29656982421875 C 88.52365112304688 257.4174499511719 91.60781860351562 263.7922668457031 101.49063110351562 268.7745361328125 C 111.66658782958984 270.00408935546875 114.34088897705078 269.1941223144531 120.63142395019531 260.007080078125 C 119.1446762084961 249.01828002929688 132.89198303222656 251.63623046875 137.0843505859375 249.63491821289062 C 111.28262329101562 245.75218200683594 100.18010711669922 242.21231079101562 89.39398193359375 247.29656982421875" stroke-width="0.0" fill="rgb(209, 136, 80)" opacity="1.0024009" stroke="rgb(0, 0, 0)" stroke-opacity="1.0" stroke-linecap="round" stroke-linejoin="round" />
    <path d="M 339.8434143066406 397.0894775390625 C 334.8633117675781 407.19451904296875 334.7104797363281 406.4011535644531 338.7451477050781 414.6625061035156 C 340.2355651855469 417.5218200683594 344.5196533203125 418.9993591308594 351.4848937988281 420.2008056640625 C 360.25494384765625 418.729736328125 364.91961669921875 417.0992126464844 366.4556884765625 403.87615966796875 C 363.3654479980469 399.09564208984375 362.9347229003906 395.9605407714844 364.1304931640625 398.9071044921875 C 350.7433166503906 396.819091796875 338.4871520996094 398.7507629394531 339.8434143066406 397.0894775390625" stroke-width="0.0" fill="rgb(86, 57, 62)" opacity="0.98292977" stroke="rgb(0, 0, 0)" stroke-opacity="1.0" stroke-linecap="round" stroke-linejoin="round" />
    <path d="M 301.9250793457031 264.5398254394531 C 304.3370666503906 275.1655578613281 294.62652587890625 279.7417297363281 286.46405029296875 284.6427001953125 C 297.3219909667969 298.8963317871094 319.7438659667969 300.0264587402344 326.2070617675781 320.7210693359375 C 328.8075256347656 346.1454162597656 327.6930847167969 378.2171936035156 336.33526611328125 400.9704895019531 C 344.8125305175781 397.2024841308594 350.46929931640625 394.6291198730469 365.7037658691406 401.2350158691406 C 372.323486328125 395.4174499511719 373.4198303222656 383.0608825683594 381.2701416015625 377.0797424316406 C 390.2593688964844 382.0353698730469 395.0329895019531 399.4678955078125 407.0455627441406 409.63671875 C 409.0550537109375 404.32928466796875 411.1603698730469 400.76239013671875 415.2295837402344 400.10638427734375 C 418.1536560058594 396.0453186035156 429.4255065917969 397.5533447265625 435.35498046875 396.98919677734375 C 434.5920715332031 374.132568359375 427.6686096191406 356.8725280761719 425.2724304199219 338.3779296875 C 427.4173278808594 330.0450134277344 430.15106201171875 332.5525817871094 443.0976867675781 331.8560791015625 C 441.3036804199219 317.353271484375 447.7301330566406 309.468994140625 453.7652893066406 303.6864013671875 C 435.6784973144531 291.01702880859375 421.51416015625 281.0321044921875 403.22021484375 272.28515625 C 401.7189636230469 279.1866149902344 392.0486755371094 283.3858337402344 377.9253845214844 286.386474609375 C 357.0093994140625 282.73779296875 344.91156005859375 272.5857238769531 327.3334045410156 276.2283935546875 C 313.808349609375 275.5573425292969 309.7774353027344 266.33001708984375 301.9250793457031 264.5398254394531" stroke-width="0.0" fill="rgb(241, 202, 255)" opacity="0.8498908" stroke="rgb(0, 0, 0)" stroke-opacity="1.0" stroke-linecap="round" stroke-linejoin="round" />
    <path d="M 345.6162109375 276.4490661621094 C 354.1554870605469 279.0175476074219 364.41412353515625 286.34161376953125 382.65899658203125 286.65240478515625 C 394.19873046875 284.5010986328125 403.14117431640625 276.85333251953125 407.4703369140625 264.5263977050781 C 397.1561584472656 265.68438720703125 385.2439880371094 268.1097412109375 371.50079345703125 265.1743469238281 C 359.2944030761719 262.318359375 351.94134521484375 259.51824951171875 349.1968994140625 245.8990020751953 C 346.89227294921875 255.527099609375 341.3538513183594 268.65386962890625 345.6162109375 276.4490661621094" stroke-width="0.0" fill="rgb(256, 167, 180)" opacity="0.823594" stroke="rgb(0, 0, 0)" stroke-opacity="1.0" stroke-linecap="round" stroke-linejoin="round" />
    <path d="M 145.1300506591797 251.0829315185547 C 132.7263946533203 249.59991455078125 131.3004608154297 253.701171875 125.84760284423828 259.6535949707031 C 118.5215072631836 300.9613952636719 102.40278625488281 335.09600830078125 95.30248260498047 373.9994812011719 C 93.63917541503906 388.8482360839844 95.91487121582031 396.550048828125 101.02067565917969 402.99853515625 C 114.4315185546875 402.7382507324219 127.33177185058594 404.87841796875 135.64064025878906 413.4668884277344 C 146.58409118652344 412.2202453613281 150.70965576171875 403.5447082519531 156.95111083984375 393.0556640625 C 165.9957733154297 363.5675048828125 173.75143432617188 333.2604064941406 185.46812438964844 307.4794616699219 C 183.17886352539062 289.4854736328125 184.91290283203125 275.40692138671875 180.2319793701172 265.24127197265625 C 173.60755920410156 256.8052978515625 156.18370056152344 257.6537780761719 145.1300506591797 251.0829315185547" stroke-width="0.0" fill="rgb(199, 196, 217)" opacity="0.9805117" stroke="rgb(0, 0, 0)" stroke-opacity="1.0" stroke-linecap="round" stroke-linejoin="round" />
    <path d="M 188.13067626953125 262.5635681152344 C 190.36178588867188 280.5991516113281 184.78890991210938 300.7322998046875 186.96034240722656 313.4420471191406 C 199.0580291748047 344.0678405761719 215.31263732910156 371.94097900390625 230.76710510253906 399.7770690917969 C 246.26953125 396.86572265625 257.7320556640625 395.1322326660156 270.67926025390625 399.4334716796875 C 276.7762756347656 390.4442443847656 281.19427490234375 385.9989929199219 277.6815185546875 362.86822509765625 C 271.6282043457031 326.4736633300781 261.4404296875 290.4422607421875 253.31820678710938 252.57801818847656 C 235.00929260253906 250.84927368164062 216.47714233398438 262.7850341796875 188.13067626953125 262.5635681152344" stroke-width="0.0" fill="rgb(203, 198, 218)" opacity="0.92958677" stroke="rgb(0, 0, 0)" stroke-opacity="1.0" stroke-linecap="round" stroke-linejoin="round" />
    <path d="M 187.2645263671875 105.82986450195312 C 185.86148071289062 111.42818450927734 188.71376037597656 117.36160278320312 194.03936767578125 117.84253692626953 C 202.4511260986328 120.12483978271484 212.73004150390625 120.02814483642578 212.28826904296875 113.06134796142578 C 215.51821899414062 108.53145599365234 207.55653381347656 108.395751953125 206.87191772460938 104.75118255615234 C 193.40505981445312 100.08792877197266 189.21929931640625 100.96412658691406 187.2645263671875 105.82986450195312" stroke-width="0.0" fill="rgb(251, 104, 75)" opacity="0.9991592" stroke="rgb(0, 0, 0)" stroke-opacity="1.0" stroke-linecap="round" stroke-linejoin="round" />
    <path d="M 283.50115966796875 253.2435302734375 C 274.71673583984375 255.35899353027344 267.27239990234375 251.12149047851562 264.37506103515625 262.9503173828125 C 266.3753967285156 271.1292724609375 269.1674499511719 279.4185485839844 278.91070556640625 282.7479553222656 C 291.75640869140625 284.01287841796875 294.68792724609375 281.6556701660156 297.1379699707031 267.3898620605469 C 298.803466796875 265.8041076660156 293.26861572265625 256.93682861328125 283.50115966796875 253.2435302734375" stroke-width="0.0" fill="rgb(213, 138, 76)" opacity="0.91771317" stroke="rgb(0, 0, 0)" stroke-opacity="1.0" stroke-linecap="round" stroke-linejoin="round" />
    <path d="M 380.25286865234375 288.17620849609375 C 379.3196716308594 293.25897216796875 382.11492919921875 320.6420593261719 380.686767578125 362.062744140625 C 384.5958251953125 363.0810852050781 381.7647705078125 366.2120666503906 390.75189208984375 363.571533203125 C 393.326904296875 363.825439453125 391.3703918457031 344.59149169921875 392.36517333984375 334.0792541503906 C 386.41705322265625 308.31781005859375 388.3462829589844 280.1863708496094 380.25286865234375 288.17620849609375" stroke-width="0.0" fill="rgb(195, 158, 183)" opacity="0.9990111" stroke="rgb(0, 0, 0)" stroke-opacity="1.0" stroke-linecap="round" stroke-linejoin="round" />
    <path d="M 296.1540832519531 262.50628662109375 C 297.90032958984375 274.1261291503906 295.3527526855469 280.8406066894531 284.6023864746094 283.5446472167969 C 285.2377014160156 292.9385681152344 298.9986572265625 295.050048828125 307.3762512207031 301.2593078613281 C 318.3459167480469 287.3229064941406 308.915283203125 280.6712951660156 316.17169189453125 275.4264831542969 C 308.960205078125 268.0303955078125 304.75445556640625 256.7551574707031 296.1540832519531 262.50628662109375" stroke-width="0.0" fill="rgb(251, 191, 205)" opacity="0.9129143" stroke="rgb(0, 0, 0)" stroke-opacity="1.0" stroke-linecap="round" stroke-linejoin="round" />
  </g>
</svg>