<?xml version='1.0' encoding='utf-8'?>
<svg xmlns="http://www.w3.org/2000/svg" version="1.1" width="512" height="512">
  <defs />
  <g>
    <path d="M 257.7090759277344 154.90997314453125 C 244.00924682617188 153.0591278076172 239.45950317382812 158.31175231933594 229.73178100585938 164.41815185546875 C 219.6385040283203 182.2892303466797 206.59609985351562 184.83718872070312 195.0299072265625 197.90969848632812 C 187.71331787109375 209.17333984375 191.74618530273438 237.48037719726562 183.67189025878906 265.2491455078125 C 184.08668518066406 281.3128356933594 183.27728271484375 291.5495910644531 187.0155029296875 298.1849060058594 C 192.11380004882812 312.73736572265625 205.19772338867188 314.98974609375 209.8897705078125 324.8454284667969 C 208.76206970214844 344.4686279296875 212.4895477294922 355.3577880859375 216.0651092529297 369.7577819824219 C 219.05877685546875 376.3760681152344 223.8287811279297 380.75634765625 235.79148864746094 382.2080078125 C 243.0873565673828 380.3368835449219 245.30747985839844 380.55731201171875 250.4814453125 373.8554992675781 C 255.52133178710938 362.07501220703125 257.6561584472656 343.1818542480469 261.6205139160156 330.24713134765625 C 269.6865234375 339.5162353515625 269.8900146484375 363.73773193359375 282.2532958984375 374.6416320800781 C 293.46246337890625 379.5148010253906 303.0894775390625 376.8183898925781 307.9988708496094 371.47869873046875 C 313.3559875488281 362.580810546875 312.2034606933594 346.7155456542969 311.9486389160156 324.49786376953125 C 314.61962890625 316.99163818359375 320.3704528808594 312.43585205078125 321.80413818359375 303.4740905761719 C 323.5586242675781 285.77972412109375 320.81622314453125 275.621826171875 317.5924987792969 260.4098815917969 C 310.6884765625 232.32666015625 300.21197509765625 208.86338806152344 292.85626220703125 183.26609802246094 C 287.52960205078125 171.92127990722656 282.3209228515625 165.11883544921875 273.0313720703125 159.06605529785156 C 266.8760070800781 156.59266662597656 261.511962890625 153.8436279296875 257.7090759277344 154.90997314453125" stroke-width="0.0" fill="rgb(251, 214, 205)" opacity="0.8103922" stroke="rgb(0, 0, 0)" stroke-opacity="1.0" stroke-linecap="round" stroke-linejoin="round" />
    <path d="M 210.4793701171875 325.0760803222656 C 208.30587768554688 342.5713195800781 212.6700439453125 359.9626770019531 217.76150512695312 373.0316467285156 C 222.7379150390625 380.4257507324219 236.2467803955078 384.69671630859375 247.14678955078125 377.8507995605469 C 254.08230590820312 369.5311279296875 256.6729736328125 348.50372314453125 259.3209533691406 333.6169128417969 C 257.07421875 321.4002990722656 249.4886474609375 324.0352783203125 248.6355743408203 322.0891418457031 C 232.31105041503906 320.5235595703125 210.65182495117188 319.1062927246094 210.4793701171875 325.0760803222656" stroke-width="0.0" fill="rgb(180, 137, 103)" opacity="0.8618012" stroke="rgb(0, 0, 0)" stroke-opacity="1.0" stroke-linecap="round" stroke-linejoin="round" />
    <path d="M 268.5448913574219 325.54681396484375 C 270.0896911621094 327.19219970703125 265.9443359375 327.41650390625 265.5194091796875 332.1358337402344 C 268.7274475097656 348.186767578125 273.0816650390625 361.32110595703125 279.53985595703125 372.2699890136719 C 286.935546875 378.4102783203125 297.6976623535156 380.00347900390625 307.1208801269531 371.68804931640625 C 311.4043884277344 365.8675231933594 313.4985656738281 346.07037353515625 311.15350341796875 326.51873779296875 C 301.8271789550781 320.2012023925781 281.5299377441406 321.63677978515625 268.5448913574219 325.54681396484375" stroke-width="0.0" fill="rgb(204, 150, 116)" opacity="0.8491449" stroke="rgb(0, 0, 0)" stroke-opacity="1.0" stroke-linecap="round" stroke-linejoin="round" />
    <path d="M 200.00132751464844 191.37442016601562 C 183.94216918945312 206.23992919921875 189.81448364257812 222.2831573486328 191.5392608642578 234.56533813476562 C 212.9088897705078 239.18133544921875 230.84014892578125 246.04385375976562 255.37469482421875 246.421875 C 275.8348083496094 247.07667541503906 292.6592102050781 240.76177978515625 311.31634521484375 238.28244018554688 C 302.9142150878906 217.55868530273438 296.8214111328125 194.75897216796875 291.6314392089844 179.02023315429688 C 283.0025939941406 165.20457458496094 277.6723937988281 158.152099609375 263.8687438964844 154.05557250976562 C 249.18881225585938 151.46231079101562 242.70628356933594 154.0384979248047 232.24130249023438 162.44871520996094 C 217.34701538085938 177.6144256591797 222.73629760742188 183.26747131347656 200.00132751464844 191.37442016601562" stroke-width="0.0" fill="rgb(237, 188, 199)" opacity="1.005306" stroke="rgb(0, 0, 0)" stroke-opacity="1.0" stroke-linecap="round" stroke-linejoin="round" />
    <path d="M 192.19168090820312 233.5538787841797 C 187.31256103515625 244.9612579345703 183.07882690429688 261.35430908203125 181.11875915527344 282.0949401855469 C 181.6195068359375 297.259521484375 183.2198944091797 305.2243347167969 197.38502502441406 312.626953125 C 205.90528869628906 319.3558044433594 213.15646362304688 308.0469665527344 242.85903930664062 316.0908508300781 C 251.63934326171875 316.06060791015625 258.9574890136719 323.21636962890625 262.7129211425781 330.75787353515625 C 274.1824035644531 320.8974609375 292.9412841796875 322.015625 309.48345947265625 323.8974304199219 C 314.66363525390625 319.63800048828125 318.37347412109375 314.924560546875 321.6706848144531 309.6285705566406 C 324.489013671875 304.78118896484375 326.0933837890625 299.3793640136719 323.52911376953125 289.3586730957031 C 318.61151123046875 270.06396484375 316.51983642578125 248.8301239013672 310.37353515625 237.44540405273438 C 296.9196472167969 240.39511108398438 281.31585693359375 245.74761962890625 260.2574462890625 245.7776641845703 C 248.83164978027344 246.8059539794922 234.80276489257812 244.3271942138672 220.44122314453125 241.20086669921875 C 210.922607421875 236.994384765625 198.028564453125 235.9602508544922 192.19168090820312 233.5538787841797" stroke-width="0.0" fill="rgb(237, 161, 175)" opacity="0.91702354" stroke="rgb(0, 0, 0)" stroke-opacity="1.0" stroke-linecap="round" stroke-linejoin="round" />
    <path d="M 216.9777069091797 361.2541809082031 C 212.38400268554688 371.7768859863281 220.83929443359375 378.7720947265625 226.64456176757812 380.4566955566406 C 231.67697143554688 383.5060119628906 241.25213623046875 382.0923156738281 245.7580108642578 379.924072265625 C 248.09909057617188 377.3598327636719 253.232177734375 375.2723693847656 251.76072692871094 362.3605651855469 C 258.6949157714844 361.5860290527344 250.36566162109375 365.53289794921875 242.24330139160156 356.6388854980469 C 221.78125 359.2678527832031 214.4583740234375 356.4895935058594 216.9777069091797 361.2541809082031" stroke-width="0.0" fill="rgb(77, 52, 52)" opacity="1.0078661" stroke="rgb(0, 0, 0)" stroke-opacity="1.0" stroke-linecap="round" stroke-linejoin="round" />
    <path d="M 275.1730041503906 359.10662841796875 C 276.4726867675781 369.73455810546875 278.8115539550781 372.53643798828125 283.5240173339844 375.2424621582031 C 287.0180969238281 378.4971923828125 299.9164123535156 376.85186767578125 300.27557373046875 377.2279968261719 C 304.8153076171875 375.52142333984375 313.1743469238281 368.9369812011719 310.0299072265625 363.9220886230469 C 310.6021423339844 356.4559631347656 304.29815673828125 355.2427673339844 298.42608642578125 354.83135986328125 C 284.90087890625 355.25164794921875 279.3219299316406 357.46478271484375 275.1730041503906 359.10662841796875" stroke-width="0.0" fill="rgb(91, 61, 61)" opacity="0.98286515" stroke="rgb(0, 0, 0)" stroke-opacity="1.0" stroke-linecap="round" stroke-linejoin="round" />
    <path d="M 217.85824584960938 188.9442901611328 C 221.9194793701172 198.26943969726562 231.6552734375 202.28799438476562 243.09140014648438 207.963134765625 C 257.9279479980469 211.88946533203125 278.7340087890625 210.23605346679688 299.3405456542969 211.53189086914062 C 295.69110107421875 197.80044555664062 295.9351501464844 184.5548858642578 289.2353515625 175.485107421875 C 284.3949890136719 165.9754638671875 276.7173156738281 158.2086639404297 266.5849914550781 154.44703674316406 C 251.5752716064453 151.11395263671875 243.88365173339844 154.4145965576172 234.9810028076172 160.5725860595703 C 228.12367248535156 166.39859008789062 219.1014404296875 177.06924438476562 217.85824584960938 188.9442901611328" stroke-width="0.0" fill="rgb(248, 176, 189)" opacity="0.9887108" stroke="rgb(0, 0, 0)" stroke-opacity="1.0" stroke-linecap="round" stroke-linejoin="round" />
    <path d="M 267.55926513671875 328.5648498535156 C 265.8545837402344 339.89874267578125 269.94970703125 355.6514587402344 273.6186828613281 360.44525146484375 C 284.1960144042969 356.77423095703125 288.8180236816406 354.35479736328125 295.7593078613281 356.6568298339844 C 299.950927734375 355.31707763671875 303.60919189453125 356.7132263183594 309.6430969238281 359.1272277832031 C 314.1462707519531 352.8979797363281 312.6728820800781 330.64044189453125 310.0889587402344 325.2667541503906 C 291.6828918457031 323.4515686035156 271.3374938964844 322.7683410644531 267.55926513671875 328.5648498535156" stroke-width="0.0" fill="rgb(198, 126, 63)" opacity="0.84263027" stroke="rgb(0, 0, 0)" stroke-opacity="1.0" stroke-linecap="round" stroke-linejoin="round" />
    <path d="M 187.95602416992188 202.302490234375 C 183.96243286132812 211.55154418945312 186.61276245117188 224.90245056152344 193.43992614746094 231.49351501464844 C 201.8434600830078 231.4718475341797 209.50607299804688 238.54295349121094 222.34942626953125 240.98028564453125 C 235.85513305664062 240.20912170410156 244.8869171142578 248.78050231933594 268.5604553222656 246.74017333984375 C 285.1293029785156 244.92819213867188 296.2143249511719 238.946533203125 307.5344543457031 231.99462890625 C 311.1045227050781 222.09906005859375 302.5802917480469 216.09080505371094 300.5282287597656 211.26388549804688 C 277.4242858886719 209.95834350585938 255.3527069091797 211.20147705078125 240.61219787597656 207.21311950683594 C 229.00100708007812 202.82693481445312 220.54396057128906 196.2437286376953 216.7130126953125 187.74627685546875 C 210.51864624023438 188.21192932128906 206.03402709960938 186.85728454589844 200.1684112548828 188.95106506347656 C 195.4738006591797 192.55743408203125 187.80250549316406 199.590576171875 187.95602416992188 202.302490234375" stroke-width="0.0" fill="rgb(188, 142, 153)" opacity="0.8683146" stroke="rgb(0, 0, 0)" stroke-opacity="1.0" stroke-linecap="round" stroke-linejoin="round" />
    <path d="M 211.74525451660156 314.1490173339844 C 209.72181701660156 326.5487060546875 206.39732360839844 353.4571838378906 214.7198486328125 359.1868591308594 C 221.92413330078125 361.09429931640625 235.3872528076172 352.45556640625 253.20289611816406 363.65240478515625 C 258.9313659667969 361.11053466796875 259.50042724609375 329.3644714355469 258.61962890625 324.6087646484375 C 246.51919555664062 316.3986511230469 226.6411590576172 311.64337158203125 211.74525451660156 314.1490173339844" stroke-width="0.0" fill="rgb(197, 121, 55)" opacity="0.82801354" stroke="rgb(0, 0, 0)" stroke-opacity="1.0" stroke-linecap="round" stroke-linejoin="round" />
    <path d="M 321.334228515625 283.3554382324219 C 311.9573974609375 286.0743103027344 306.75 285.73956298828125 303.8353271484375 292.56793212890625 C 303.57745361328125 310.2667541503906 306.8717041015625 307.5916748046875 316.92718505859375 316.0423889160156 C 320.8193359375 310.7223815917969 326.1287536621094 308.6825866699219 326.46673583984375 303.16265869140625 C 327.0057678222656 292.92376708984375 324.0538024902344 288.2189025878906 321.334228515625 283.3554382324219" stroke-width="0.0" fill="rgb(224, 191, 210)" opacity="0.97884506" stroke="rgb(0, 0, 0)" stroke-opacity="1.0" stroke-linecap="round" stroke-linejoin="round" />
    <path d="M 270.1165466308594 249.394287109375 C 259.4566345214844 246.6387939453125 263.1489562988281 249.13706970214844 260.4132385253906 271.1785583496094 C 265.185546875 291.5564880371094 261.3755798339844 310.028076171875 263.5203857421875 328.721923828125 C 267.4707336425781 331.6534118652344 267.46685791015625 322.4370422363281 271.10040283203125 322.1958312988281 C 270.0777893066406 294.6199645996094 272.68450927734375 262.7497863769531 270.1165466308594 249.394287109375" stroke-width="0.0" fill="rgb(220, 145, 149)" opacity="0.9994164" stroke="rgb(0, 0, 0)" stroke-opacity="1.0" stroke-linecap="round" stroke-linejoin="round" />
    <path d="M 181.28196716308594 298.2883605957031 C 183.77642822265625 304.7905578613281 190.56178283691406 310.2512512207031 192.79598999023438 313.3375549316406 C 206.36602783203125 318.5103454589844 211.32615661621094 316.3744201660156 212.87017822265625 311.6468200683594 C 213.8951873779297 300.5283203125 213.24087524414062 302.81256103515625 206.0418701171875 298.7215270996094 C 199.86529541015625 298.25152587890625 190.95938110351562 295.57421875 181.28196716308594 298.2883605957031" stroke-width="0.0" fill="rgb(219, 201, 220)" opacity="0.98030466" stroke="rgb(0, 0, 0)" stroke-opacity="1.0" stroke-linecap="round" stroke-linejoin="round" />
    </g>
</svg>