<?xml version='1.0' encoding='utf-8'?>
<svg xmlns="http://www.w3.org/2000/svg" version="1.1" width="512" height="512">
  <defs />
  <g>
    <path d="M 291.1982727050781 65.11226654052734 C 278.0710144042969 61.144187927246094 271.98785400390625 62.33436965942383 260.45111083984375 65.31575775146484 C 252.77642822265625 68.9972915649414 244.8247833251953 73.28207397460938 240.57510375976562 80.63068389892578 C 234.15553283691406 85.9759750366211 230.7529296875 95.2893295288086 226.5645751953125 108.85780334472656 C 223.5225830078125 124.79339599609375 229.79974365234375 134.98414611816406 224.3903045654297 143.1006622314453 C 212.7786407470703 160.0497589111328 197.85488891601562 151.48460388183594 185.2206268310547 162.78004455566406 C 174.29873657226562 179.9958953857422 187.18069458007812 179.3280487060547 183.6131591796875 188.22036743164062 C 176.2786407470703 201.16319274902344 162.03689575195312 201.96026611328125 156.3123016357422 218.3673095703125 C 150.8802947998047 232.90652465820312 160.16896057128906 243.2735137939453 164.77890014648438 252.72476196289062 C 161.33998107910156 257.4128723144531 157.16961669921875 268.533203125 158.0360565185547 275.3121337890625 C 160.5334930419922 288.1014099121094 168.5670166015625 290.33392333984375 179.30491638183594 299.4957275390625 C 172.661865234375 335.63720703125 155.04161071777344 361.6542663574219 153.63706970214844 389.3031311035156 C 146.45294189453125 389.7424621582031 143.123779296875 410.2288513183594 146.93118286132812 412.7579650878906 C 148.4945831298828 415.64239501953125 150.49342346191406 418.3570556640625 153.01011657714844 418.0586853027344 C 159.16021728515625 422.7530517578125 168.2252960205078 422.26446533203125 172.89688110351562 421.77545166015625 C 179.5791015625 421.40887451171875 190.5543670654297 411.65887451171875 190.9826202392578 402.7737731933594 C 214.6056365966797 381.3828125 219.67581176757812 339.7244873046875 233.63563537597656 314.9884338378906 C 244.07073974609375 304.98590087890625 244.09185791015625 308.89959716796875 245.6616973876953 324.17266845703125 C 242.23965454101562 354.3638610839844 242.1000213623047 380.1448059082031 244.57406616210938 414.6458740234375 C 249.99850463867188 425.5461120605469 254.08811950683594 429.2742919921875 271.4710998535156 430.01708984375 C 278.2893371582031 429.0246887207031 285.6348876953125 427.2947692871094 288.489501953125 418.8286437988281 C 290.6748962402344 379.82440185546875 296.9310607910156 336.0999755859375 302.1999206542969 303.54632568359375 C 307.57464599609375 288.0906066894531 314.75732421875 293.95159912109375 326.166015625 285.8016357421875 C 331.6916198730469 278.5562438964844 338.05499267578125 279.614013671875 337.0177307128906 256.0785827636719 C 335.62799072265625 250.2429962158203 332.6058044433594 253.34805297851562 334.4912414550781 227.53082275390625 C 332.1643981933594 208.0896759033203 322.6849365234375 199.78744506835938 321.2341003417969 185.8128204345703 C 321.5115051269531 176.2321014404297 325.0027770996094 168.19180297851562 324.12835693359375 162.666748046875 C 322.72705078125 149.8973846435547 315.9820251464844 147.2612762451172 313.8287048339844 137.65109252929688 C 316.98974609375 124.38742065429688 320.175048828125 117.51691436767578 319.02313232421875 96.34774017333984 C 316.9647521972656 88.94924926757812 313.30078125 83.13626861572266 309.50494384765625 77.7137451171875 C 304.7414245605469 72.8979263305664 298.9078369140625 67.76923370361328 291.1982727050781 65.11226654052734" stroke-width="0.0" fill="rgb(248, 225, 200)" opacity="0.8662339" stroke="rgb(0, 0, 0)" stroke-opacity="1.0" stroke-linecap="round" stroke-linejoin="round" />
    <path d="M 248.89637756347656 71.8695068359375 C 239.5983428955078 78.71195220947266 234.6012725830078 86.46562957763672 230.1441192626953 97.79810333251953 C 226.4984893798828 107.8504638671875 222.73388671875 121.66337585449219 228.7012939453125 133.06092834472656 C 239.64234924316406 139.85394287109375 259.4869689941406 146.58192443847656 279.740478515625 151.42173767089844 C 288.3198547363281 152.13426208496094 302.23779296875 147.916259765625 307.0222473144531 144.20367431640625 C 313.86956787109375 137.367431640625 317.3299255371094 126.5640869140625 318.913330078125 113.09998321533203 C 319.7983703613281 94.13111114501953 318.2486572265625 91.17926025390625 310.5449523925781 78.83858489990234 C 304.1335144042969 71.78656768798828 294.90704345703125 65.08686828613281 283.6353759765625 62.90478515625 C 267.8356628417969 61.33901596069336 258.0117492675781 65.32524108886719 248.89637756347656 71.8695068359375" stroke-width="0.0" fill="rgb(211, 172, 86)" opacity="0.99429476" stroke="rgb(0, 0, 0)" stroke-opacity="1.0" stroke-linecap="round" stroke-linejoin="round" />
    <path d="M 168.1277618408203 251.3543243408203 C 161.91981506347656 257.3389892578125 156.65631103515625 264.266845703125 157.75714111328125 277.2948913574219 C 159.69334411621094 283.92279052734375 165.35914611816406 290.31536865234375 173.71531677246094 294.3722839355469 C 176.0706024169922 297.5679931640625 188.81472778320312 297.12701416015625 198.77706909179688 296.90045166015625 C 211.610107421875 292.5596618652344 214.1606903076172 289.40203857421875 220.04745483398438 281.505859375 C 221.00741577148438 276.3951721191406 222.43258666992188 267.84320068359375 219.36842346191406 261.68121337890625 C 217.0974884033203 255.69735717773438 213.97689819335938 253.1363983154297 206.71603393554688 249.26426696777344 C 197.78271484375 244.57611083984375 179.46409606933594 244.0889129638672 168.1277618408203 251.3543243408203" stroke-width="0.0" fill="rgb(250, 152, 62)" opacity="0.99974275" stroke="rgb(0, 0, 0)" stroke-opacity="1.0" stroke-linecap="round" stroke-linejoin="round" />
    <path d="M 296.0252380371094 243.31045532226562 C 288.87188720703125 246.52053833007812 284.0790100097656 251.11436462402344 281.7066650390625 257.1767578125 C 278.2616271972656 264.1007080078125 280.2679748535156 271.1138610839844 281.8217468261719 276.3424377441406 C 286.0670166015625 282.8226623535156 291.73651123046875 286.69122314453125 299.8085632324219 289.6709289550781 C 311.6914367675781 292.8039245605469 314.6809387207031 291.185302734375 322.5883483886719 287.4834289550781 C 327.4875793457031 284.5023498535156 332.987548828125 279.57843017578125 335.2266845703125 275.3312072753906 C 338.3345031738281 266.8168640136719 337.7496643066406 255.57308959960938 334.91888427734375 251.50076293945312 C 331.16632080078125 245.99639892578125 325.9083251953125 243.89633178710938 321.51959228515625 242.218994140625 C 309.984619140625 239.67825317382812 302.7419128417969 240.55250549316406 296.0252380371094 243.31045532226562" stroke-width="0.0" fill="rgb(249, 167, 74)" opacity="1.0001258" stroke="rgb(0, 0, 0)" stroke-opacity="1.0" stroke-linecap="round" stroke-linejoin="round" />
    <path d="M 247.6180419921875 186.8668975830078 C 246.21046447753906 190.62396240234375 243.59117126464844 194.56289672851562 245.90525817871094 201.50062561035156 C 248.2008819580078 209.44735717773438 254.3663787841797 212.76675415039062 260.3872375488281 214.65846252441406 C 266.33447265625 217.87811279296875 278.8065185546875 217.5183868408203 286.3710021972656 216.0369415283203 C 294.61126708984375 211.99949645996094 298.0669860839844 208.10604858398438 301.14422607421875 197.63795471191406 C 301.51739501953125 194.65338134765625 298.9453430175781 188.17938232421875 297.9811096191406 186.25953674316406 C 292.8233642578125 180.56105041503906 286.3050537109375 175.38095092773438 274.372802734375 174.8636932373047 C 262.9848937988281 174.4196014404297 254.01202392578125 178.55670166015625 247.6180419921875 186.8668975830078" stroke-width="0.0" fill="rgb(252, 160, 68)" opacity="1.0001723" stroke="rgb(0, 0, 0)" stroke-opacity="1.0" stroke-linecap="round" stroke-linejoin="round" />
    <path d="M 248.52880859375 398.42822265625 C 243.14944458007812 401.7835998535156 244.47052001953125 411.2108154296875 245.1111297607422 416.7752380371094 C 247.4613037109375 422.2803955078125 251.09017944335938 424.7102355957031 255.16969299316406 426.99005126953125 C 261.80706787109375 431.1181640625 268.45416259765625 430.1723327636719 276.1288757324219 430.09722900390625 C 282.9324951171875 426.7353515625 286.18597412109375 425.1046142578125 289.0035400390625 418.3521423339844 C 290.70257568359375 411.5361633300781 289.6782531738281 406.3157958984375 286.086669921875 401.4175720214844 C 282.3500671386719 398.7182922363281 281.4250793457031 396.957763671875 277.5923156738281 397.1662902832031 C 266.5543518066406 393.0848388671875 252.68045043945312 394.7893981933594 248.52880859375 398.42822265625" stroke-width="0.0" fill="rgb(215, 178, 90)" opacity="1.001907" stroke="rgb(0, 0, 0)" stroke-opacity="1.0" stroke-linecap="round" stroke-linejoin="round" />
    <path d="M 147.76438903808594 395.2701416015625 C 144.2043914794922 400.62115478515625 144.7450714111328 402.82965087890625 144.95687866210938 410.0668029785156 C 147.28057861328125 415.61962890625 152.8440704345703 418.94512939453125 156.0382080078125 420.9320983886719 C 168.29718017578125 423.8712463378906 169.18753051757812 423.67950439453125 178.85482788085938 420.32879638671875 C 183.1577606201172 417.9454345703125 187.24313354492188 414.12188720703125 189.15086364746094 410.20947265625 C 190.34693908691406 404.0708923339844 191.9600372314453 399.0171203613281 185.50804138183594 395.9851989746094 C 180.94992065429688 392.866943359375 176.44541931152344 390.3849182128906 166.0979461669922 387.9664001464844 C 159.61720275878906 386.5157165527344 154.0030975341797 387.7090759277344 147.76438903808594 395.2701416015625" stroke-width="0.0" fill="rgb(212, 173, 85)" opacity="0.9936362" stroke="rgb(0, 0, 0)" stroke-opacity="1.0" stroke-linecap="round" stroke-linejoin="round" />
    <path d="M 209.49171447753906 154.92337036132812 C 199.3733673095703 153.67628479003906 192.03567504882812 157.08587646484375 185.17864990234375 161.899169921875 C 181.22605895996094 168.22808837890625 179.23683166503906 167.8719024658203 181.6052703857422 180.49896240234375 C 185.70416259765625 184.33401489257812 191.81182861328125 188.34239196777344 202.9609375 186.67970275878906 C 207.1903533935547 187.75247192382812 211.668701171875 184.63836669921875 215.8689422607422 182.89991760253906 C 220.96177673339844 178.9646759033203 221.62709045410156 175.5933380126953 221.06211853027344 164.53268432617188 C 218.42608642578125 158.70700073242188 213.9498291015625 157.3817901611328 209.49171447753906 154.92337036132812" stroke-width="0.0" fill="rgb(248, 175, 79)" opacity="1.0030264" stroke="rgb(0, 0, 0)" stroke-opacity="1.0" stroke-linecap="round" stroke-linejoin="round" />
    <path d="M 157.92506408691406 211.2313995361328 C 154.56857299804688 213.23678588867188 151.35873413085938 227.7345428466797 153.5734100341797 231.86111450195312 C 154.76817321777344 238.4183807373047 158.51608276367188 242.79519653320312 168.30909729003906 248.62083435058594 C 181.45709228515625 244.32162475585938 196.08624267578125 242.01597595214844 203.20814514160156 245.62384033203125 C 207.72691345214844 235.2172088623047 212.53611755371094 228.92678833007812 207.6873779296875 216.8744659423828 C 205.5950927734375 212.9269561767578 202.0072784423828 205.19627380371094 199.7670440673828 203.13565063476562 C 191.96697998046875 199.7791748046875 188.2166290283203 197.08775329589844 179.6591796875 197.9690704345703 C 170.66183471679688 200.59927368164062 162.71792602539062 203.96908569335938 157.92506408691406 211.2313995361328" stroke-width="0.0" fill="rgb(251, 202, 238)" opacity="0.9917855" stroke="rgb(0, 0, 0)" stroke-opacity="1.0" stroke-linecap="round" stroke-linejoin="round" />
    <path d="M 225.0047149658203 273.4443664550781 C 226.87112426757812 275.34930419921875 221.94515991210938 284.3634338378906 216.11695861816406 291.6744384765625 C 207.17095947265625 299.26641845703125 194.8747100830078 301.27996826171875 180.10089111328125 299.1570129394531 C 171.52101135253906 333.13824462890625 154.69287109375 359.0282287597656 153.50857543945312 387.7357177734375 C 168.36195373535156 386.9627380371094 183.93316650390625 390.4826965332031 193.83250427246094 401.2657775878906 C 204.5177459716797 394.62982177734375 208.32984924316406 387.1871032714844 211.40943908691406 378.5294494628906 C 220.21636962890625 357.8039855957031 226.3204803466797 335.1859130859375 234.53700256347656 313.1780090332031 C 237.79843139648438 309.78314208984375 239.6576385498047 306.68939208984375 245.38516235351562 306.8453063964844 C 248.68885803222656 342.172607421875 234.70591735839844 370.1571350097656 243.8728485107422 399.0188903808594 C 259.5008544921875 394.0933837890625 262.34393310546875 392.64947509765625 287.4891662597656 399.8638000488281 C 297.35260009765625 370.4757385253906 294.55755615234375 326.54345703125 306.47186279296875 294.9244689941406 C 289.5415954589844 289.7506103515625 280.19366455078125 281.79345703125 273.9497985839844 269.661865234375 C 256.2752380371094 269.3991394042969 243.57925415039062 272.269775390625 225.0047149658203 273.4443664550781" stroke-width="0.0" fill="rgb(244, 217, 218)" opacity="0.8696505" stroke="rgb(0, 0, 0)" stroke-opacity="1.0" stroke-linecap="round" stroke-linejoin="round" />
    <path d="M 336.93133544921875 233.3312225341797 C 333.8736572265625 224.2521209716797 331.31268310546875 211.76222229003906 327.9500427246094 209.63645935058594 C 323.7181091308594 203.2828369140625 316.691650390625 200.30018615722656 305.7947082519531 201.49615478515625 C 300.4285583496094 211.3633575439453 295.4510803222656 216.9250946044922 283.2947998046875 221.49632263183594 C 271.4456787109375 220.53013610839844 262.3154602050781 218.21180725097656 251.78436279296875 214.5908660888672 C 245.91778564453125 214.76744079589844 237.07069396972656 218.68746948242188 230.5174560546875 224.43104553222656 C 226.18028259277344 228.35646057128906 220.9329071044922 234.7808074951172 223.34201049804688 248.48104858398438 C 225.47610473632812 257.1380310058594 233.4789276123047 259.94891357421875 241.815185546875 265.13739013671875 C 250.4953155517578 268.50091552734375 259.42340087890625 269.8500061035156 273.5176696777344 265.46337890625 C 275.885986328125 263.4613342285156 279.80120849609375 248.3367919921875 294.8797607421875 240.89810180664062 C 311.8416442871094 238.9066162109375 320.1513671875 237.80010986328125 332.6824951171875 243.69418334960938 C 333.97113037109375 234.6438751220703 335.53607177734375 246.82676696777344 336.93133544921875 233.3312225341797" stroke-width="0.0" fill="rgb(247, 196, 204)" opacity="0.9843519" stroke="rgb(0, 0, 0)" stroke-opacity="1.0" stroke-linecap="round" stroke-linejoin="round" />
    <path d="M 229.21397399902344 136.41897583007812 C 229.09132385253906 147.23634338378906 227.17189025878906 151.9593048095703 234.3040771484375 155.33251953125 C 248.139404296875 165.02549743652344 257.10302734375 159.72039794921875 275.08819580078125 157.4688720703125 C 277.682373046875 157.4683074951172 277.0910339355469 165.5688934326172 276.0902099609375 173.14344787597656 C 285.6127624511719 174.1077880859375 295.02996826171875 178.57785034179688 302.7601318359375 185.04354858398438 C 309.8659362792969 185.9036102294922 314.92010498046875 181.8526611328125 319.6634216308594 179.9346466064453 C 323.91943359375 176.73703002929688 326.79119873046875 172.72848510742188 328.3415832519531 169.7011260986328 C 330.125732421875 165.8032989501953 329.033935546875 152.93630981445312 327.6806945800781 152.9767608642578 C 323.3566589355469 149.170654296875 319.7995910644531 144.0556640625 314.553955078125 141.6289520263672 C 307.09075927734375 145.06190490722656 307.0041198730469 150.81695556640625 296.15093994140625 152.60389709472656 C 287.3799133300781 153.305419921875 279.5620422363281 154.6970977783203 271.80267333984375 153.79830932617188 C 258.6789855957031 151.15158081054688 256.15155029296875 141.8603515625 247.64422607421875 138.093505859375 C 244.11473083496094 137.5329132080078 233.16688537597656 138.2266845703125 229.21397399902344 136.41897583007812" stroke-width="0.0" fill="rgb(237, 213, 186)" opacity="0.9663986" stroke="rgb(0, 0, 0)" stroke-opacity="1.0" stroke-linecap="round" stroke-linejoin="round" />
    <path d="M 222.91513061523438 217.15516662597656 C 216.11337280273438 219.56317138671875 216.00880432128906 233.823974609375 207.61761474609375 245.59474182128906 C 216.97860717773438 251.01275634765625 219.63442993164062 257.59417724609375 224.13677978515625 260.4916687011719 C 226.15411376953125 259.5774841308594 222.5220947265625 271.8714904785156 226.99021911621094 273.93341064453125 C 243.1338348388672 268.9983825683594 255.83023071289062 282.6080322265625 264.9067687988281 271.4591979980469 C 246.8375244140625 268.59796142578125 235.89389038085938 266.13433837890625 225.31103515625 252.2793731689453 C 222.66575622558594 247.1126708984375 221.2035369873047 243.32701110839844 222.6772918701172 236.9800262451172 C 225.45167541503906 224.41864013671875 232.7082977294922 222.86058044433594 237.2594451904297 217.18238830566406 C 235.16766357421875 214.2864227294922 225.15049743652344 216.91058349609375 222.91513061523438 217.15516662597656" stroke-width="0.0" fill="rgb(253, 249, 251)" opacity="1.00164" stroke="rgb(0, 0, 0)" stroke-opacity="1.0" stroke-linecap="round" stroke-linejoin="round" />
    <path d="M 198.51657104492188 202.5006103515625 C 205.99009704589844 209.20152282714844 205.05471801757812 218.43914794921875 216.6468048095703 225.40135192871094 C 222.61940002441406 210.14466857910156 241.46807861328125 220.0582733154297 246.01817321777344 210.93368530273438 C 237.7278289794922 206.79946899414062 233.2945556640625 203.37489318847656 227.91958618164062 197.1591339111328 C 217.03146362304688 195.39649963378906 210.51480102539062 200.14759826660156 198.51657104492188 202.5006103515625" stroke-width="0.0" fill="rgb(250, 231, 241)" opacity="0.9980321" stroke="rgb(0, 0, 0)" stroke-opacity="1.0" stroke-linecap="round" stroke-linejoin="round" />
    <path d="M 260.2381591796875 87.52627563476562 C 257.02960205078125 91.1026382446289 258.37298583984375 97.33812713623047 263.0709533691406 100.25101470947266 C 268.2160339355469 100.4737319946289 271.048828125 98.99358367919922 275.0621032714844 94.5109634399414 C 275.34661865234375 90.25949096679688 273.6643371582031 87.2996597290039 271.2298889160156 87.6482925415039 C 265.0666198730469 88.08246612548828 266.17547607421875 81.36714935302734 260.2381591796875 87.52627563476562" stroke-width="0.0" fill="rgb(81, 55, 51)" opacity="1.0216103" stroke="rgb(0, 0, 0)" stroke-opacity="1.0" stroke-linecap="round" stroke-linejoin="round" />
    <path d="M 294.29119873046875 87.94828796386719 C 288.68792724609375 88.33495330810547 283.248291015625 93.91487884521484 284.86328125 95.21344757080078 C 287.92718505859375 100.43537139892578 291.6761474609375 101.904541015625 296.48394775390625 109.5346450805664 C 294.0528564453125 101.97116088867188 301.8770751953125 101.42919158935547 302.2074890136719 94.7684097290039 C 300.1509094238281 89.91661834716797 296.8397521972656 88.66681671142578 294.29119873046875 87.94828796386719" stroke-width="0.0" fill="rgb(78, 53, 51)" opacity="1.0097746" stroke="rgb(0, 0, 0)" stroke-opacity="1.0" stroke-linecap="round" stroke-linejoin="round" />
    <path d="M 259.72747802734375 87.51680755615234 C 267.5498046875 88.65833282470703 274.4723815917969 85.01881408691406 275.0635986328125 93.09239196777344 C 274.3304138183594 98.60902404785156 270.47528076171875 97.80387115478516 267.9345703125 99.85482788085938 C 260.6736755371094 100.79700469970703 260.080810546875 101.30351257324219 264.4882507324219 97.4620361328125 C 260.6670227050781 105.65336608886719 253.4670867919922 106.66677856445312 261.7738952636719 120.18914794921875 C 265.44390869140625 126.0908432006836 273.25762939453125 130.11648559570312 283.7726135253906 126.91984558105469 C 291.7626953125 122.28763580322266 296.8357849121094 115.20709228515625 296.34478759765625 108.47653198242188 C 286.8008728027344 98.94532775878906 281.0885314941406 92.14085388183594 273.0003356933594 85.67051696777344 C 274.9892272949219 84.51931762695312 262.3776550292969 83.74822998046875 259.72747802734375 87.51680755615234" stroke-width="0.0" fill="rgb(215, 204, 207)" opacity="0.86728126" stroke="rgb(0, 0, 0)" stroke-opacity="1.0" stroke-linecap="round" stroke-linejoin="round" />
    <path d="M 273.6529235839844 272.96722412109375 C 260.1717224121094 273.7615661621094 261.36419677734375 282.5557556152344 261.8631896972656 292.45745849609375 C 258.5223693847656 299.639892578125 252.79086303710938 302.65814208984375 247.6039276123047 307.3522644042969 C 246.56605529785156 339.9264831542969 237.58950805664062 373.5235900878906 243.62197875976562 395.5230712890625 C 252.9588623046875 397.1356506347656 262.34326171875 390.81103515625 287.2324523925781 399.8076477050781 C 297.0299987792969 374.2687683105469 294.27728271484375 328.5735168457031 306.2019348144531 294.59869384765625 C 288.9322814941406 291.365966796875 280.1089782714844 281.86334228515625 273.6529235839844 272.96722412109375" stroke-width="0.0" fill="rgb(241, 221, 223)" opacity="0.99420345" stroke="rgb(0, 0, 0)" stroke-opacity="1.0" stroke-linecap="round" stroke-linejoin="round" />
    <path d="M 217.81639099121094 291.38232421875 C 212.9781951904297 295.8035888671875 198.28375244140625 302.65008544921875 179.8820037841797 298.6100158691406 C 172.50198364257812 329.77581787109375 156.47010803222656 354.815673828125 153.21705627441406 386.624267578125 C 169.4063720703125 387.86566162109375 184.62193298339844 390.2177734375 192.65489196777344 399.4177551269531 C 198.13156127929688 400.0845947265625 201.58099365234375 395.0124206542969 204.66615295410156 392.0121765136719 C 219.5050811767578 367.0429992675781 225.06466674804688 333.32574462890625 235.7804412841797 307.28009033203125 C 229.897216796875 302.1563415527344 219.7279510498047 297.1213073730469 217.81639099121094 291.38232421875" stroke-width="0.0" fill="rgb(242, 221, 222)" opacity="0.9710285" stroke="rgb(0, 0, 0)" stroke-opacity="1.0" stroke-linecap="round" stroke-linejoin="round" />
    <path d="M 229.75640869140625 224.88829040527344 C 224.39833068847656 231.3655242919922 222.81871032714844 233.54197692871094 222.68801879882812 247.16905212402344 C 227.11717224121094 256.7583923339844 233.37388610839844 261.4625244140625 244.34170532226562 265.4481201171875 C 258.09637451171875 269.6039123535156 260.40521240234375 268.3236999511719 272.3301696777344 265.4109802246094 C 278.2265930175781 255.94105529785156 282.68316650390625 248.95306396484375 290.19244384765625 242.1680145263672 C 289.8389587402344 232.74160766601562 283.79693603515625 228.4232940673828 280.40997314453125 223.0652313232422 C 272.7772216796875 221.28558349609375 264.4166564941406 218.80101013183594 252.24520874023438 215.7834930419922 C 244.86309814453125 216.32521057128906 236.7066192626953 218.28184509277344 229.75640869140625 224.88829040527344" stroke-width="0.0" fill="rgb(249, 201, 237)" opacity="0.9963005" stroke="rgb(0, 0, 0)" stroke-opacity="1.0" stroke-linecap="round" stroke-linejoin="round" />
    <path d="M 304.5525207519531 200.70655822753906 C 302.10760498046875 213.3239288330078 291.46258544921875 214.68392944335938 284.5559387207031 225.282958984375 C 287.65264892578125 229.5554962158203 290.91082763671875 235.17478942871094 293.1160888671875 241.5343780517578 C 315.59417724609375 238.0109100341797 320.4580078125 239.4068145751953 334.58038330078125 246.89129638671875 C 337.34100341796875 237.07916259765625 333.6669921875 218.22164916992188 332.5413818359375 213.08055114746094 C 325.56219482421875 203.00172424316406 319.61932373046875 197.67568969726562 304.5525207519531 200.70655822753906" stroke-width="0.0" fill="rgb(246, 221, 209)" opacity="0.9861654" stroke="rgb(0, 0, 0)" stroke-opacity="1.0" stroke-linecap="round" stroke-linejoin="round" />
    <path d="M 329.036376953125 156.13992309570312 C 324.83038330078125 150.01174926757812 321.67401123046875 145.72512817382812 314.02685546875 141.63111877441406 C 304.9564514160156 151.3625946044922 300.5161437988281 154.2269287109375 282.7774658203125 154.26873779296875 C 278.2421875 154.7251739501953 276.6202697753906 169.9119415283203 280.1107177734375 173.6068572998047 C 290.5703125 175.99996948242188 298.3409423828125 181.38002014160156 303.6004943847656 185.59580993652344 C 316.87384033203125 182.8283233642578 323.43609619140625 177.5781707763672 326.01666259765625 172.1607208251953 C 329.4112243652344 169.89944458007812 329.916748046875 160.53854370117188 329.036376953125 156.13992309570312" stroke-width="0.0" fill="rgb(248, 199, 225)" opacity="0.97713715" stroke="rgb(0, 0, 0)" stroke-opacity="1.0" stroke-linecap="round" stroke-linejoin="round" />
    <path d="M 227.267578125 271.83251953125 C 221.8294677734375 277.53790283203125 222.60186767578125 290.2789306640625 213.60626220703125 293.1055603027344 C 221.7168731689453 295.2196350097656 227.12327575683594 304.3019104003906 236.13670349121094 307.21807861328125 C 240.79653930664062 306.5219421386719 247.513671875 303.4101257324219 248.61427307128906 302.9476013183594 C 253.4810333251953 296.76953125 257.4632568359375 289.0626220703125 257.5513610839844 276.63671875 C 249.98377990722656 274.998046875 235.75946044921875 270.9849853515625 227.267578125 271.83251953125" stroke-width="0.0" fill="rgb(248, 206, 232)" opacity="0.99358267" stroke="rgb(0, 0, 0)" stroke-opacity="1.0" stroke-linecap="round" stroke-linejoin="round" />
    <path d="M 230.01284790039062 136.21717834472656 C 227.32537841796875 147.09652709960938 228.5582275390625 154.6611328125 235.52305603027344 157.03395080566406 C 240.2483367919922 162.2406005859375 267.00115966796875 161.24851989746094 264.39697265625 152.95449829101562 C 253.2887420654297 148.49514770507812 258.5064697265625 138.32162475585938 245.87452697753906 136.70394897460938 C 236.55865478515625 140.41458129882812 239.3082733154297 139.30776977539062 230.01284790039062 136.21717834472656" stroke-width="0.0" fill="rgb(250, 208, 234)" opacity="0.9825867" stroke="rgb(0, 0, 0)" stroke-opacity="1.0" stroke-linecap="round" stroke-linejoin="round" />
    <path d="M 280.5706787109375 223.1836700439453 C 285.0643615722656 228.6562042236328 290.3441467285156 232.39080810546875 290.6053466796875 241.916015625 C 301.9234924316406 244.10934448242188 309.85479736328125 235.47193908691406 312.8463439941406 241.99722290039062 C 306.5688171386719 236.46156311035156 297.149169921875 223.37440490722656 293.3689880371094 217.9764404296875 C 292.7735595703125 222.60121154785156 283.8799743652344 216.76084899902344 280.5706787109375 223.1836700439453" stroke-width="0.0" fill="rgb(252, 243, 246)" opacity="0.9932611" stroke="rgb(0, 0, 0)" stroke-opacity="1.0" stroke-linecap="round" stroke-linejoin="round" />
    </g>
</svg>