<?xml version='1.0' encoding='utf-8'?>
<svg xmlns="http://www.w3.org/2000/svg" version="1.1" width="512" height="512">
  <defs />
  <g>
    <path d="M 265.12042236328125 71.7568130493164 C 254.19740295410156 73.4934310913086 248.76620483398438 76.6380844116211 245.29486083984375 83.12596130371094 C 242.4001922607422 94.4850845336914 246.2628936767578 99.4455795288086 246.03851318359375 106.51619720458984 C 230.3603973388672 127.90840148925781 240.79669189453125 141.74029541015625 229.97865295410156 155.64060974121094 C 219.93028259277344 173.16775512695312 195.89141845703125 179.39781188964844 180.2342987060547 200.86045837402344 C 172.43028259277344 208.9102783203125 164.15194702148438 219.7756805419922 159.16818237304688 231.7635040283203 C 155.53878784179688 244.1381378173828 154.4361114501953 245.0594482421875 158.82305908203125 256.67596435546875 C 166.13681030273438 264.074951171875 171.04544067382812 267.3815002441406 189.14341735839844 266.18206787109375 C 186.93594360351562 295.8078308105469 179.3112335205078 322.3816223144531 180.01266479492188 346.2586364746094 C 177.50755310058594 359.7933654785156 175.25302124023438 362.7856140136719 168.61643981933594 372.0946960449219 C 158.7202911376953 382.52679443359375 138.7626190185547 389.41363525390625 130.18028259277344 403.76812744140625 C 130.14036560058594 415.42205810546875 132.96713256835938 418.7832336425781 149.92373657226562 413.6485290527344 C 155.15451049804688 407.8108215332031 170.14988708496094 407.62567138671875 180.8835906982422 400.6913146972656 C 199.65267944335938 392.4466552734375 208.27890014648438 376.1788635253906 217.4014434814453 361.24700927734375 C 220.06640625 356.92742919921875 233.98684692382812 357.4876708984375 245.88348388671875 358.7430114746094 C 248.66714477539062 390.6534729003906 258.9214782714844 407.1872863769531 264.8388671875 434.50341796875 C 271.6510009765625 441.78863525390625 276.80377197265625 443.01568603515625 289.3250427246094 441.9637451171875 C 293.36895751953125 439.3095703125 297.0948181152344 437.9869384765625 295.9655456542969 429.5903625488281 C 294.1799011230469 424.13018798828125 289.1045837402344 419.5347900390625 287.0570983886719 417.2126159667969 C 287.5734558105469 394.43487548828125 289.7021179199219 371.9063720703125 288.881591796875 351.46002197265625 C 292.6849670410156 329.8831787109375 296.84173583984375 311.3340759277344 300.2978820800781 291.4199523925781 C 301.4402770996094 291.5562438964844 301.0917663574219 289.15948486328125 304.3406677246094 288.8900146484375 C 312.4461669921875 296.7044372558594 315.857177734375 309.704833984375 326.941162109375 315.1099853515625 C 333.74371337890625 317.1575927734375 343.4154357910156 315.2777404785156 345.604736328125 313.26776123046875 C 348.360595703125 306.65869140625 350.0398254394531 309.8357238769531 348.7738952636719 294.441650390625 C 337.08203125 264.8617858886719 330.31854248046875 232.6182861328125 322.04278564453125 204.23110961914062 C 316.3168029785156 188.58932495117188 310.38922119140625 179.58778381347656 303.7380676269531 171.7659912109375 C 298.0575256347656 142.6966552734375 311.36883544921875 132.43284606933594 300.9088439941406 111.88028717041016 C 293.58441162109375 97.38215637207031 287.6974792480469 106.09810638427734 287.9534912109375 89.89971923828125 C 280.31866455078125 70.9215087890625 273.1189880371094 73.67821502685547 265.12042236328125 71.7568130493164" stroke-width="0.0" fill="rgb(180, 139, 140)" opacity="0.8020552" stroke="rgb(0, 0, 0)" stroke-opacity="1.0" stroke-linecap="round" stroke-linejoin="round" />
    <path d="M 303.39495849609375 171.59732055664062 C 297.4005126953125 169.01397705078125 293.6485290527344 176.9634552001953 287.9805908203125 180.77793884277344 C 271.8943786621094 196.36582946777344 260.2410583496094 216.41175842285156 244.90672302246094 229.1362762451172 C 234.55807495117188 229.73973083496094 227.8425750732422 230.38072204589844 226.3602294921875 228.6135711669922 C 220.6340789794922 226.67930603027344 218.26527404785156 220.3169708251953 217.68222045898438 217.3422088623047 C 215.8972930908203 209.11563110351562 216.67037963867188 193.29010009765625 217.4617156982422 171.357177734375 C 195.261962890625 182.4503936767578 179.0995635986328 200.69525146484375 166.9470672607422 218.6077423095703 C 160.7012176513672 226.569091796875 155.8096466064453 237.11077880859375 156.8000030517578 249.31033325195312 C 158.2901153564453 255.94793701171875 160.8138885498047 258.2337646484375 164.21128845214844 260.8344421386719 C 177.65579223632812 270.12353515625 185.12933349609375 261.1939697265625 188.8816680908203 267.7158508300781 C 187.69195556640625 294.3604736328125 179.5222930908203 320.6304016113281 180.84530639648438 346.15960693359375 C 191.89915466308594 350.98748779296875 204.66317749023438 354.4573669433594 215.76881408691406 358.0924072265625 C 244.37200927734375 359.0141296386719 264.3931884765625 353.10772705078125 288.2420959472656 347.647705078125 C 293.36212158203125 330.0005187988281 295.7626953125 307.1920166015625 301.4034729003906 287.32366943359375 C 310.23590087890625 286.9089660644531 304.731201171875 296.1477355957031 319.8473815917969 296.15374755859375 C 327.524169921875 296.5751647949219 341.3102111816406 293.7795104980469 342.53936767578125 277.7706298828125 C 333.158203125 254.821533203125 328.970703125 223.80970764160156 319.68402099609375 198.12405395507812 C 315.43231201171875 187.840576171875 309.78509521484375 179.36293029785156 303.39495849609375 171.59732055664062" stroke-width="0.0" fill="rgb(123, 76, 67)" opacity="0.97165143" stroke="rgb(0, 0, 0)" stroke-opacity="1.0" stroke-linecap="round" stroke-linejoin="round" />
    <path d="M 301.4877624511719 147.78521728515625 C 270.3994140625 153.26553344726562 259.4439697265625 149.3869171142578 265.5576477050781 150.35272216796875 C 258.240234375 151.7553253173828 252.7854766845703 149.3509521484375 236.59219360351562 144.33807373046875 C 231.92625427246094 157.4957275390625 222.6951141357422 162.4136199951172 216.7035675048828 172.85386657714844 C 218.21043395996094 193.53652954101562 214.41104125976562 212.2294921875 218.48997497558594 220.17762756347656 C 220.94088745117188 229.65765380859375 228.76449584960938 231.0993194580078 237.62864685058594 229.86672973632812 C 243.6738739013672 230.90435791015625 247.27381896972656 228.10447692871094 250.7997589111328 224.91505432128906 C 267.8826599121094 206.16612243652344 280.6453857421875 183.51124572753906 302.3918762207031 170.92630004882812 C 298.889892578125 157.05125427246094 302.6822814941406 152.98439025878906 301.4877624511719 147.78521728515625" stroke-width="0.0" fill="rgb(217, 211, 225)" opacity="0.83500475" stroke="rgb(0, 0, 0)" stroke-opacity="1.0" stroke-linecap="round" stroke-linejoin="round" />
    <path d="M 256.3564147949219 72.92205810546875 C 251.85240173339844 77.71641540527344 243.0247344970703 76.66075897216797 243.99098205566406 94.89635467529297 C 251.95945739746094 112.80777740478516 232.90130615234375 108.4228515625 236.6659698486328 145.81182861328125 C 253.12069702148438 150.6269989013672 269.7171630859375 152.6122283935547 290.6597900390625 148.94302368164062 C 302.1388244628906 147.58096313476562 303.23077392578125 140.2626953125 305.096923828125 133.48684692382812 C 304.6231994628906 126.99774932861328 306.854248046875 114.38191986083984 294.97979736328125 104.11112976074219 C 281.9794616699219 96.00491333007812 293.00640869140625 92.49880981445312 282.3102722167969 79.11278533935547 C 277.3945007324219 72.63916778564453 267.2354736328125 70.24266815185547 256.3564147949219 72.92205810546875" stroke-width="0.0" fill="rgb(160, 139, 137)" opacity="0.75148326" stroke="rgb(0, 0, 0)" stroke-opacity="1.0" stroke-linecap="round" stroke-linejoin="round" />
    <path d="M 217.65963745117188 358.96435546875 C 204.1681365966797 355.9795227050781 192.1273193359375 351.5837707519531 180.5352020263672 348.13006591796875 C 177.66580200195312 357.8178405761719 175.46432495117188 363.7539978027344 169.96141052246094 370.1223449707031 C 160.95553588867188 381.5469055175781 143.72457885742188 386.48358154296875 132.54144287109375 402.1894226074219 C 135.4968719482422 408.8555908203125 125.2525863647461 417.4966735839844 145.2987518310547 414.1488037109375 C 153.6490478515625 407.7098083496094 174.748046875 405.94915771484375 187.9102020263672 396.8883361816406 C 201.96490478515625 388.08062744140625 209.3000030517578 374.88592529296875 217.65963745117188 358.96435546875" stroke-width="0.0" fill="rgb(243, 109, 82)" opacity="0.9973542" stroke="rgb(0, 0, 0)" stroke-opacity="1.0" stroke-linecap="round" stroke-linejoin="round" />
    <path d="M 288.8319091796875 348.1319885253906 C 272.00726318359375 355.0066223144531 254.54299926757812 353.79248046875 246.0957794189453 358.40435791015625 C 248.4860076904297 381.77667236328125 254.8103790283203 401.84271240234375 262.4753723144531 420.1041259765625 C 279.96453857421875 417.38800048828125 284.8349609375 416.8628845214844 286.90032958984375 420.1221008300781 C 287.169677734375 394.172119140625 290.3122863769531 375.0517578125 288.8319091796875 348.1319885253906" stroke-width="0.0" fill="rgb(248, 103, 74)" opacity="0.9938325" stroke="rgb(0, 0, 0)" stroke-opacity="1.0" stroke-linecap="round" stroke-linejoin="round" />
    <path d="M 344.01593017578125 283.0695495605469 C 336.9446105957031 292.7069091796875 323.8982849121094 298.1588439941406 309.7693786621094 295.16851806640625 C 314.6888427734375 302.49969482421875 316.8368225097656 310.134033203125 326.8094787597656 315.75653076171875 C 337.03936767578125 319.90789794921875 344.98016357421875 315.9768981933594 348.4521484375 309.27325439453125 C 352.5906066894531 298.5943603515625 346.93841552734375 292.102294921875 344.01593017578125 283.0695495605469" stroke-width="0.0" fill="rgb(243, 160, 64)" opacity="1.0149399" stroke="rgb(0, 0, 0)" stroke-opacity="1.0" stroke-linecap="round" stroke-linejoin="round" />
    <path d="M 263.31640625 421.44403076171875 C 260.3948059082031 428.61383056640625 266.1293029785156 437.80230712890625 273.12725830078125 441.1092224121094 C 284.4357604980469 443.8382568359375 293.084228515625 442.7118225097656 296.36761474609375 436.0378723144531 C 297.13970947265625 426.8034362792969 291.51385498046875 418.84210205078125 283.8692626953125 417.7880554199219 C 272.9660949707031 416.80926513671875 266.32940673828125 418.6038818359375 263.31640625 421.44403076171875" stroke-width="0.0" fill="rgb(77, 53, 58)" opacity="0.9868949" stroke="rgb(0, 0, 0)" stroke-opacity="1.0" stroke-linecap="round" stroke-linejoin="round" />
    <path d="M 245.07733154296875 82.7921371459961 C 242.7196807861328 90.19190979003906 244.1570587158203 103.23359680175781 247.7310333251953 105.6601791381836 C 262.3989562988281 94.97183990478516 275.9481201171875 99.3000717163086 288.18609619140625 97.452880859375 C 288.7449035644531 84.30554962158203 282.19793701171875 76.85446166992188 275.31365966796875 73.5910873413086 C 271.5860595703125 71.04900360107422 263.88482666015625 71.96908569335938 261.37579345703125 71.75504302978516 C 251.15277099609375 74.6684799194336 248.81410217285156 75.96067810058594 245.07733154296875 82.7921371459961" stroke-width="0.0" fill="rgb(225, 137, 65)" opacity="0.94034654" stroke="rgb(0, 0, 0)" stroke-opacity="1.0" stroke-linecap="round" stroke-linejoin="round" />
    <path d="M 141.52401733398438 393.7569885253906 C 135.806640625 394.1947021484375 132.73013305664062 399.8809814453125 130.07815551757812 403.1373291015625 C 129.3798370361328 409.42138671875 130.91143798828125 413.6089782714844 134.67620849609375 416.1633605957031 C 142.47265625 416.93572998046875 149.96107482910156 413.98394775390625 153.2655029296875 409.3260498046875 C 152.2751922607422 399.8038635253906 144.89309692382812 398.88067626953125 141.52401733398438 393.7569885253906" stroke-width="0.0" fill="rgb(104, 70, 74)" opacity="1.0050055" stroke="rgb(0, 0, 0)" stroke-opacity="1.0" stroke-linecap="round" stroke-linejoin="round" />
    <path d="M 304.9246520996094 113.28672790527344 C 296.57501220703125 100.534912109375 284.17083740234375 100.8826675415039 281.8495788574219 97.12893676757812 C 268.54644775390625 96.17716979980469 262.8283996582031 98.68089294433594 256.85491943359375 100.92874908447266 C 251.55223083496094 106.37981414794922 241.501220703125 109.21639251708984 238.9578399658203 118.25999450683594 C 242.55020141601562 129.20033264160156 232.9724578857422 128.22747802734375 236.21861267089844 143.3584442138672 C 242.7084503173828 151.5779266357422 248.79141235351562 149.45164489746094 260.4175109863281 151.27078247070312 C 272.8677978515625 147.50804138183594 277.88214111328125 151.39764404296875 287.20758056640625 145.7030792236328 C 296.4838562011719 139.26812744140625 305.5075378417969 134.44276428222656 308.693115234375 131.28282165527344 C 305.8489074707031 116.70013427734375 299.81982421875 128.68438720703125 304.9246520996094 113.28672790527344" stroke-width="0.0" fill="rgb(47, 29, 35)" opacity="0.88833416" stroke="rgb(0, 0, 0)" stroke-opacity="1.0" stroke-linecap="round" stroke-linejoin="round" />
    <path d="M 289.5555419921875 335.8257751464844 C 287.92535400390625 329.9427490234375 283.326171875 328.20697021484375 277.4525451660156 325.44476318359375 C 268.58160400390625 326.9836730957031 264.59185791015625 332.6305236816406 251.57542419433594 334.388916015625 C 245.6237030029297 336.2053527832031 243.07135009765625 345.3736572265625 245.93603515625 355.7763671875 C 265.57220458984375 355.4544677734375 273.667236328125 353.4446105957031 289.17340087890625 348.6231384277344 C 288.4075012207031 347.078369140625 291.4405822753906 340.1839294433594 289.5555419921875 335.8257751464844" stroke-width="0.0" fill="rgb(170, 79, 61)" opacity="0.9539375" stroke="rgb(0, 0, 0)" stroke-opacity="1.0" stroke-linecap="round" stroke-linejoin="round" />
    <path d="M 344.1778259277344 290.3232421875 C 339.36907958984375 281.99847412109375 335.9541320800781 281.886962890625 322.2652893066406 286.217529296875 C 317.4423522949219 287.47418212890625 312.4171447753906 290.4241943359375 315.97845458984375 303.63238525390625 C 323.2485046386719 292.21405029296875 333.8813781738281 302.8259582519531 344.1778259277344 290.3232421875" stroke-width="0.0" fill="rgb(169, 98, 66)" opacity="0.94701093" stroke="rgb(0, 0, 0)" stroke-opacity="1.0" stroke-linecap="round" stroke-linejoin="round" />
    <path d="M 220.03550720214844 327.40240478515625 C 218.108154296875 328.787841796875 223.33480834960938 330.8038635253906 221.76852416992188 330.63787841796875 C 224.19155883789062 329.16326904296875 226.45726013183594 331.5289306640625 225.97679138183594 327.979736328125 C 228.18751525878906 327.77593994140625 222.29676818847656 325.1405029296875 220.03550720214844 327.40240478515625" stroke-width="0.0" fill="rgb(143, 97, 87)" opacity="0.99931467" stroke="rgb(0, 0, 0)" stroke-opacity="1.0" stroke-linecap="round" stroke-linejoin="round" />
  </g>
</svg>