<?xml version='1.0' encoding='utf-8'?>
<svg xmlns="http://www.w3.org/2000/svg" version="1.1" width="512" height="512">
  <defs />
  <g>
    <path d="M 316.2896728515625 113.88996887207031 C 302.1145324707031 118.60057067871094 291.1622314453125 125.71621704101562 283.3299255371094 135.408447265625 C 275.025390625 144.9082794189453 269.91607666015625 156.46417236328125 266.8640441894531 173.43890380859375 C 267.0898742675781 178.83602905273438 266.1528015136719 189.18780517578125 268.8447570800781 192.96678161621094 C 272.1659851074219 199.8936309814453 279.2677917480469 198.1540985107422 284.96087646484375 201.01292419433594 C 283.50604248046875 226.0886688232422 270.9134216308594 240.49566650390625 274.0241394042969 267.6689758300781 C 277.9351501464844 283.7091979980469 285.7928771972656 298.02197265625 297.4674377441406 308.22003173828125 C 291.8000183105469 337.72918701171875 289.79205322265625 365.9278869628906 292.2685852050781 400.9427490234375 C 292.93341064453125 406.16058349609375 297.847412109375 410.086669921875 305.22698974609375 410.972412109375 C 317.71661376953125 411.85107421875 318.2326965332031 409.80194091796875 324.58642578125 403.9878845214844 C 332.47698974609375 378.4747009277344 334.2190856933594 335.2960510253906 347.2483215332031 326.22869873046875 C 362.648193359375 341.97894287109375 366.0837097167969 369.2189025878906 390.4066467285156 393.7825012207031 C 389.9635009765625 399.4269104003906 404.7064514160156 403.390625 411.38104248046875 400.20452880859375 C 418.6795654296875 397.4424743652344 420.0157165527344 395.9835205078125 422.3221740722656 387.6540832519531 C 411.24200439453125 357.43182373046875 400.5775451660156 329.7744445800781 389.7312316894531 301.66412353515625 C 395.6944580078125 294.51727294921875 401.7723388671875 285.69140625 404.8762512207031 275.3366394042969 C 407.8312683105469 265.6314697265625 407.5386047363281 248.553466796875 406.20257568359375 236.23377990722656 C 402.98492431640625 217.16348266601562 391.9273681640625 202.18035888671875 379.8533020019531 188.04141235351562 C 387.7713928222656 173.77664184570312 387.2823181152344 168.09646606445312 381.89642333984375 148.10488891601562 C 376.19378662109375 133.23013305664062 369.12152099609375 123.8400650024414 357.4549560546875 117.02534484863281 C 347.80535888671875 111.4636001586914 332.4847106933594 110.44842529296875 316.2896728515625 113.88996887207031" stroke-width="0.0" fill="rgb(248, 203, 226)" opacity="0.8033127" stroke="rgb(0, 0, 0)" stroke-opacity="1.0" stroke-linecap="round" stroke-linejoin="round" />
    <path d="M 133.0855712890625 239.2238006591797 C 114.41223907470703 236.84442138671875 112.54205322265625 245.42916870117188 110.1722412109375 252.52786254882812 C 107.7501220703125 266.09326171875 102.53544616699219 273.44219970703125 102.25601196289062 298.6895751953125 C 107.17066955566406 297.81817626953125 91.36872863769531 299.04888916015625 87.04650115966797 294.0020446777344 C 71.98645782470703 292.9547424316406 65.79077911376953 297.79541015625 66.89171600341797 311.30926513671875 C 75.27503204345703 320.21893310546875 87.24681091308594 341.0668640136719 95.76527404785156 350.6723327636719 C 100.0884017944336 389.9440002441406 77.55819702148438 399.0975036621094 71.44194793701172 434.8702087402344 C 72.56576538085938 441.0362548828125 76.58404541015625 445.01116943359375 79.652099609375 445.9716491699219 C 89.29415893554688 448.3549499511719 95.75806427001953 450.6754455566406 103.93971252441406 442.8445739746094 C 108.33769989013672 432.21588134765625 115.72954559326172 420.67791748046875 124.89019012451172 409.60162353515625 C 128.83731079101562 402.9671936035156 135.61676025390625 398.5467224121094 142.6791534423828 402.6240234375 C 153.79322814941406 409.1775207519531 163.38409423828125 430.14947509765625 174.33456420898438 447.3584899902344 C 180.6141815185547 450.2276916503906 184.65872192382812 452.958740234375 196.33062744140625 449.8904113769531 C 201.74368286132812 448.04083251953125 208.18832397460938 443.0350646972656 207.41238403320312 437.049072265625 C 202.00198364257812 419.151123046875 194.02279663085938 406.966064453125 190.84811401367188 389.37835693359375 C 192.1226348876953 378.54608154296875 191.63626098632812 363.26617431640625 193.00672912597656 347.90911865234375 C 204.18093872070312 336.214599609375 211.30282592773438 320.8568420410156 221.73101806640625 303.0007019042969 C 224.55772399902344 299.62677001953125 226.63877868652344 289.1311340332031 222.34254455566406 284.91424560546875 C 219.45030212402344 281.77325439453125 214.0531005859375 278.1936950683594 204.38729858398438 280.72467041015625 C 192.6797332763672 284.4421691894531 193.62359619140625 299.4344177246094 178.43978881835938 295.508544921875 C 175.46615600585938 281.02001953125 172.0313262939453 265.8636779785156 167.73558044433594 252.37014770507812 C 153.7875213623047 246.26983642578125 135.875 239.8434295654297 133.0855712890625 239.2238006591797" stroke-width="0.0" fill="rgb(226, 193, 188)" opacity="0.8628952" stroke="rgb(0, 0, 0)" stroke-opacity="1.0" stroke-linecap="round" stroke-linejoin="round" />
    <path d="M 380.9957580566406 190.650146484375 C 346.10943603515625 186.6749725341797 339.6767272949219 191.6519012451172 312.4599914550781 191.40567016601562 C 301.859130859375 192.48426818847656 293.8939514160156 197.4167022705078 287.3410949707031 203.7353973388672 C 281.9908447265625 222.57345581054688 273.4276123046875 241.86451721191406 273.9986877441406 261.14129638671875 C 275.8738708496094 283.9351806640625 285.8954772949219 294.02105712890625 296.4360046386719 307.5491027832031 C 328.22137451171875 300.0938720703125 361.34051513671875 300.9388732910156 389.56103515625 300.4033203125 C 396.487548828125 291.4116516113281 401.571533203125 285.6639099121094 403.94293212890625 274.4154968261719 C 406.6651611328125 264.57366943359375 406.586669921875 252.15956115722656 405.7607421875 237.32118225097656 C 399.8158264160156 219.37222290039062 392.6153564453125 203.15733337402344 380.9957580566406 190.650146484375" stroke-width="0.0" fill="rgb(249, 200, 242)" opacity="0.99967396" stroke="rgb(0, 0, 0)" stroke-opacity="1.0" stroke-linecap="round" stroke-linejoin="round" />
    <path d="M 212.6466827392578 315.84710693359375 C 201.06520080566406 308.81011962890625 194.93948364257812 306.4486083984375 189.9752960205078 296.29339599609375 C 171.16798400878906 295.62591552734375 178.2894287109375 313.4407653808594 153.4503173828125 318.30194091796875 C 146.8189239501953 321.5904846191406 133.78750610351562 319.1559143066406 126.74227905273438 316.481689453125 C 111.7189712524414 310.1966552734375 112.84620666503906 296.0773010253906 103.09498596191406 298.17657470703125 C 94.13190460205078 300.2710266113281 102.69181823730469 306.76190185546875 96.19035339355469 311.65521240234375 C 91.63704681396484 319.1551513671875 85.20835876464844 321.7873229980469 78.29690551757812 325.2430114746094 C 82.11052703857422 334.8631286621094 90.37468719482422 342.7308044433594 95.32205200195312 349.5649719238281 C 98.52392578125 359.75592041015625 94.44253540039062 373.0395202636719 93.59373474121094 383.0765075683594 C 119.9762954711914 387.03216552734375 152.4866485595703 390.56280517578125 190.31771850585938 386.1914367675781 C 191.68667602539062 376.9254150390625 190.87213134765625 359.9710693359375 193.0584259033203 351.19659423828125 C 198.46453857421875 335.2434997558594 211.4983673095703 329.0005798339844 212.6466827392578 315.84710693359375" stroke-width="0.0" fill="rgb(205, 207, 216)" opacity="0.97964257" stroke="rgb(0, 0, 0)" stroke-opacity="1.0" stroke-linecap="round" stroke-linejoin="round" />
    <path d="M 374.7942199707031 133.2468719482422 C 366.81341552734375 122.28716278076172 357.4461669921875 114.73667907714844 342.9056396484375 112.16216278076172 C 322.9617004394531 110.28272247314453 313.2579345703125 114.0481948852539 299.5906982421875 121.1258316040039 C 287.2603454589844 129.05072021484375 278.21539306640625 139.17591857910156 272.0422058105469 153.8743896484375 C 267.656494140625 166.10850524902344 264.77130126953125 182.8384246826172 268.2518310546875 191.37083435058594 C 271.5784912109375 199.1160430908203 277.39117431640625 199.43869018554688 285.5465393066406 200.4606475830078 C 296.9993896484375 196.6841278076172 300.2154235839844 189.91281127929688 312.27978515625 189.28587341308594 C 340.2558288574219 191.20037841796875 349.8869934082031 183.4495849609375 367.0781555175781 189.08169555664062 C 387.50787353515625 188.54917907714844 385.1948547363281 177.55691528320312 384.7991027832031 160.0147705078125 C 383.22479248046875 149.84129333496094 378.7872619628906 139.95379638671875 374.7942199707031 133.2468719482422" stroke-width="0.0" fill="rgb(217, 148, 147)" opacity="0.8286497" stroke="rgb(0, 0, 0)" stroke-opacity="1.0" stroke-linecap="round" stroke-linejoin="round" />
    <path d="M 389.3951721191406 301.0889892578125 C 355.5718688964844 300.90020751953125 323.7673034667969 302.195556640625 298.478759765625 307.89361572265625 C 292.59344482421875 324.6980285644531 290.8028259277344 358.96478271484375 292.20379638671875 385.2188415527344 C 307.69256591796875 388.891845703125 322.182373046875 383.3293151855469 326.8422546386719 385.75921630859375 C 336.75384521484375 365.18890380859375 335.0762939453125 330.9890441894531 347.03955078125 327.9211730957031 C 359.5679626464844 332.8068542480469 363.6642761230469 362.9666748046875 379.0709533691406 378.89898681640625 C 387.302734375 383.409912109375 400.0910339355469 377.1116943359375 414.96685791015625 372.4026184082031 C 407.98785400390625 346.57861328125 397.7076416015625 324.85321044921875 389.3951721191406 301.0889892578125" stroke-width="0.0" fill="rgb(174, 172, 187)" opacity="0.756505" stroke="rgb(0, 0, 0)" stroke-opacity="1.0" stroke-linecap="round" stroke-linejoin="round" />
    <path d="M 72.00044250488281 429.88055419921875 C 71.73212432861328 439.3140869140625 72.69349670410156 441.3584289550781 77.34095764160156 444.840576171875 C 81.43949890136719 446.4322509765625 95.53447723388672 452.15631103515625 103.8291244506836 443.1380310058594 C 106.65354919433594 432.91510009765625 115.59492492675781 421.8962707519531 124.8159408569336 409.462646484375 C 130.32374572753906 402.3943176269531 134.3345184326172 398.4635314941406 143.04708862304688 402.4832763671875 C 154.2220001220703 410.36895751953125 164.33319091796875 431.64544677734375 174.82537841796875 448.0777893066406 C 182.5826416015625 451.4517517089844 187.2010040283203 452.7114562988281 198.2513885498047 449.4987487792969 C 200.5879364013672 448.6936950683594 206.41050720214844 444.19793701171875 207.1658477783203 438.13397216796875 C 201.50277709960938 420.8769836425781 193.85459899902344 405.249755859375 190.12098693847656 388.1158142089844 C 157.97840881347656 388.19085693359375 129.17308044433594 387.8373107910156 93.30140686035156 384.48663330078125 C 84.16770935058594 397.2332458496094 77.90101623535156 413.65887451171875 72.00044250488281 429.88055419921875" stroke-width="0.0" fill="rgb(232, 149, 131)" opacity="0.7992641" stroke="rgb(0, 0, 0)" stroke-opacity="1.0" stroke-linecap="round" stroke-linejoin="round" />
    <path d="M 129.78033447265625 237.83033752441406 C 114.73399353027344 238.0532989501953 116.10125732421875 244.30319213867188 111.76245880126953 246.04953002929688 C 109.89218139648438 263.54620361328125 99.9417495727539 277.4317932128906 103.83110809326172 293.4757385253906 C 117.86412811279297 297.8009033203125 114.63117980957031 308.4664306640625 126.63304901123047 314.5768127441406 C 136.3225555419922 318.7430114746094 151.7613525390625 318.76849365234375 157.0331573486328 314.8565368652344 C 167.0584716796875 310.92755126953125 167.62039184570312 304.9506530761719 173.47555541992188 296.4792785644531 C 178.3461151123047 276.72021484375 169.57725524902344 270.4791564941406 169.59103393554688 253.63746643066406 C 156.02105712890625 246.01760864257812 137.54029846191406 240.67947387695312 129.78033447265625 237.83033752441406" stroke-width="0.0" fill="rgb(177, 153, 165)" opacity="0.95547587" stroke="rgb(0, 0, 0)" stroke-opacity="1.0" stroke-linecap="round" stroke-linejoin="round" />
    <path d="M 327.94134521484375 385.5046081542969 C 318.44281005859375 384.9220886230469 308.7345275878906 385.21649169921875 294.1871032714844 385.1083068847656 C 292.4234313964844 386.80633544921875 289.7097473144531 401.80224609375 294.5129699707031 405.31298828125 C 295.39019775390625 407.7342224121094 298.06890869140625 410.2738952636719 306.2736511230469 412.0812072753906 C 310.6648254394531 413.011474609375 317.7099914550781 410.2059020996094 319.3969421386719 407.95892333984375 C 325.2835388183594 403.05401611328125 330.364501953125 396.9298400878906 327.94134521484375 385.5046081542969" stroke-width="0.0" fill="rgb(197, 128, 75)" opacity="0.9972016" stroke="rgb(0, 0, 0)" stroke-opacity="1.0" stroke-linecap="round" stroke-linejoin="round" />
    <path d="M 200.34857177734375 282.01239013671875 C 197.116455078125 285.41265869140625 190.1909942626953 289.7099914550781 193.4583740234375 296.58917236328125 C 195.68643188476562 304.507568359375 203.01123046875 310.87432861328125 214.7005157470703 311.3516845703125 C 221.9047088623047 306.54718017578125 225.8709716796875 299.9615173339844 224.90383911132812 289.3944396972656 C 224.63192749023438 284.7262268066406 219.7653045654297 282.2894592285156 216.989013671875 280.21417236328125 C 209.91238403320312 278.0564880371094 208.18081665039062 279.2704162597656 200.34857177734375 282.01239013671875" stroke-width="0.0" fill="rgb(247, 103, 76)" opacity="1.0044782" stroke="rgb(0, 0, 0)" stroke-opacity="1.0" stroke-linecap="round" stroke-linejoin="round" />
    <path d="M 414.44207763671875 371.70037841796875 C 404.24908447265625 376.871337890625 389.6625061035156 381.0090026855469 381.8717346191406 380.22174072265625 C 385.87640380859375 389.5663757324219 388.3426208496094 394.8678894042969 393.327392578125 397.78729248046875 C 396.722412109375 401.2704772949219 404.5820617675781 402.4530334472656 411.38531494140625 400.31109619140625 C 416.97235107421875 397.930908203125 419.2001953125 397.66021728515625 422.141845703125 387.5581359863281 C 421.18670654296875 380.03143310546875 417.9182434082031 375.7232666015625 414.44207763671875 371.70037841796875" stroke-width="0.0" fill="rgb(204, 192, 166)" opacity="0.85150176" stroke="rgb(0, 0, 0)" stroke-opacity="1.0" stroke-linecap="round" stroke-linejoin="round" />
    <path d="M 76.7395248413086 293.84979248046875 C 71.49018859863281 294.9930725097656 65.52525329589844 301.674072265625 65.73670959472656 308.3965759277344 C 66.52013397216797 315.1512756347656 75.76128387451172 322.4267578125 78.58159637451172 323.4984436035156 C 90.42990112304688 320.4219055175781 94.91594696044922 314.6418151855469 97.63568115234375 304.8802185058594 C 94.17586517333984 295.9949951171875 87.06058502197266 293.23126220703125 76.7395248413086 293.84979248046875" stroke-width="0.0" fill="rgb(248, 102, 75)" opacity="0.997188" stroke="rgb(0, 0, 0)" stroke-opacity="1.0" stroke-linecap="round" stroke-linejoin="round" />
    <path d="M 111.64466857910156 246.61318969726562 C 109.46673583984375 263.3124694824219 99.93209075927734 279.65740966796875 103.87206268310547 293.77874755859375 C 122.02237701416016 296.3828125 141.3809356689453 275.316650390625 160.245849609375 267.45916748046875 C 170.78665161132812 263.18865966796875 173.79872131347656 261.52947998046875 165.88455200195312 250.64590454101562 C 153.63796997070312 246.8661651611328 141.6482391357422 241.92724609375 130.22238159179688 237.92567443847656 C 117.86080169677734 238.6096649169922 116.93766021728516 241.37265014648438 111.64466857910156 246.61318969726562" stroke-width="0.0" fill="rgb(145, 148, 166)" opacity="0.94309545" stroke="rgb(0, 0, 0)" stroke-opacity="1.0" stroke-linecap="round" stroke-linejoin="round" />
    <path d="M 132.88497924804688 396.8903503417969 C 131.8238525390625 387.2522277832031 107.23712921142578 387.1144104003906 93.31664276123047 384.48602294921875 C 86.1305923461914 393.6349182128906 81.5631332397461 406.796142578125 75.69684600830078 419.15740966796875 C 72.63468933105469 428.4892883300781 70.10823059082031 436.4063415527344 76.16261291503906 443.38201904296875 C 80.5826187133789 445.6978454589844 93.831298828125 451.3726806640625 103.57290649414062 443.0108337402344 C 110.32923126220703 425.19970703125 124.26832580566406 410.0894775390625 132.88497924804688 396.8903503417969" stroke-width="0.0" fill="rgb(227, 160, 142)" opacity="0.9509583" stroke="rgb(0, 0, 0)" stroke-opacity="1.0" stroke-linecap="round" stroke-linejoin="round" />
    <path d="M 145.37783813476562 388.79541015625 C 137.988525390625 389.8414611816406 138.65406799316406 395.1845703125 138.6767578125 398.0834045410156 C 152.5921173095703 405.60125732421875 160.18594360351562 425.8938293457031 170.83351135253906 439.25665283203125 C 175.08360290527344 433.44134521484375 188.53221130371094 426.8054504394531 202.53358459472656 426.4408264160156 C 198.03677368164062 412.73223876953125 193.2038116455078 400.50653076171875 189.37374877929688 387.5337829589844 C 173.54653930664062 385.81097412109375 157.89907836914062 390.1923828125 145.37783813476562 388.79541015625" stroke-width="0.0" fill="rgb(242, 109, 78)" opacity="0.9877289" stroke="rgb(0, 0, 0)" stroke-opacity="1.0" stroke-linecap="round" stroke-linejoin="round" />
    <path d="M 374.5628356933594 191.2576141357422 C 367.55645751953125 188.49420166015625 363.1259765625 188.5575714111328 361.15386962890625 188.0948486328125 C 351.4393005371094 178.32569885253906 356.0481262207031 167.0735626220703 350.04644775390625 165.38771057128906 C 337.179931640625 165.6542510986328 321.5848693847656 166.48654174804688 305.9424743652344 168.70278930664062 C 296.28753662109375 172.42843627929688 301.8404541015625 187.06619262695312 293.2480773925781 197.36849975585938 C 296.07403564453125 196.17921447753906 302.7800598144531 191.5817413330078 313.4013977050781 189.6874542236328 C 332.9042053222656 194.38343811035156 349.9165954589844 182.11529541015625 374.5628356933594 191.2576141357422" stroke-width="0.0" fill="rgb(237, 164, 168)" opacity="1.0485942" stroke="rgb(0, 0, 0)" stroke-opacity="1.0" stroke-linecap="round" stroke-linejoin="round" />
    <path d="M 206.42076110839844 433.1779479980469 C 203.0629425048828 428.5347900390625 203.93310546875 425.15045166015625 198.7825469970703 425.6725158691406 C 184.8416748046875 427.60260009765625 175.34213256835938 434.0296936035156 170.52969360351562 438.9287414550781 C 171.85009765625 449.8899230957031 179.96798706054688 450.1763916015625 188.04519653320312 452.5202941894531 C 196.12034606933594 450.1264343261719 202.09149169921875 449.2249450683594 204.01467895507812 445.419677734375 C 207.449951171875 442.47021484375 208.35447692871094 436.6584167480469 206.42076110839844 433.1779479980469" stroke-width="0.0" fill="rgb(81, 51, 53)" opacity="0.999575" stroke="rgb(0, 0, 0)" stroke-opacity="1.0" stroke-linecap="round" stroke-linejoin="round" />
    <path d="M 168.91844177246094 261.7435302734375 C 148.65948486328125 272.93402099609375 130.3341064453125 285.79290771484375 109.7052001953125 295.3700256347656 C 109.91476440429688 302.0459899902344 113.67237854003906 304.0765075683594 115.27117156982422 306.8004150390625 C 119.75201416015625 312.6087341308594 128.53794860839844 317.8020324707031 135.72337341308594 318.5028076171875 C 153.20108032226562 320.62652587890625 159.86358642578125 318.001220703125 167.9452667236328 312.7637939453125 C 173.26876831054688 308.1522216796875 176.48977661132812 305.5642395019531 178.9720916748047 294.5544128417969 C 178.2954864501953 278.8218078613281 172.41668701171875 272.4529113769531 168.91844177246094 261.7435302734375" stroke-width="0.0" fill="rgb(232, 169, 157)" opacity="0.90790486" stroke="rgb(0, 0, 0)" stroke-opacity="1.0" stroke-linecap="round" stroke-linejoin="round" />
    <path d="M 298.5154113769531 158.097412109375 C 299.82568359375 162.51609802246094 302.0002746582031 167.95765686035156 310.7267761230469 169.4310760498047 C 326.83013916015625 162.97308349609375 343.5868225097656 169.33277893066406 352.5389709472656 163.3488006591797 C 351.9263610839844 152.0313262939453 347.1300048828125 148.40208435058594 345.2955322265625 147.5640106201172 C 321.33837890625 150.25723266601562 334.0920104980469 150.19070434570312 314.92041015625 144.9125518798828 C 303.3083801269531 146.06805419921875 299.0577087402344 149.38229370117188 298.5154113769531 158.097412109375" stroke-width="0.0" fill="rgb(173, 147, 164)" opacity="0.78800863" stroke="rgb(0, 0, 0)" stroke-opacity="1.0" stroke-linecap="round" stroke-linejoin="round" />
    <path d="M 373.9591369628906 130.4517059326172 C 366.491455078125 120.06244659423828 360.82763671875 113.6494369506836 344.6078796386719 110.79985809326172 C 326.1399230957031 108.11551666259766 315.4154968261719 112.99461364746094 302.6997985839844 120.10274505615234 C 290.4457092285156 126.71881866455078 280.69384765625 135.23831176757812 274.2359313964844 148.24105834960938 C 268.09735107421875 158.62445068359375 266.4420471191406 176.16632080078125 263.5943908691406 186.95408630371094 C 264.7566223144531 198.55674743652344 271.7978820800781 199.78836059570312 281.5462341308594 200.80575561523438 C 291.26153564453125 200.3245086669922 291.90869140625 199.00999450683594 296.9521484375 192.80702209472656 C 299.5362243652344 179.78610229492188 304.8869323730469 166.2143096923828 298.926513671875 156.8264923095703 C 300.6785888671875 143.7958984375 311.8786315917969 138.6534423828125 321.8365173339844 135.7559356689453 C 333.8953857421875 137.99288940429688 339.6815185546875 135.21229553222656 345.3461608886719 144.86837768554688 C 354.24237060546875 153.43588256835938 351.6286926269531 177.50653076171875 359.65264892578125 187.40867614746094 C 371.3591003417969 190.82997131347656 372.2034606933594 190.51499938964844 380.3907165527344 186.33375549316406 C 383.7488098144531 184.3601531982422 384.8011474609375 179.63587951660156 385.8030700683594 174.26588439941406 C 383.7417297363281 155.33863830566406 381.5740661621094 141.4783172607422 373.9591369628906 130.4517059326172" stroke-width="0.0" fill="rgb(179, 108, 52)" opacity="0.8773749" stroke="rgb(0, 0, 0)" stroke-opacity="1.0" stroke-linecap="round" stroke-linejoin="round" />
    <path d="M 345.48809814453125 304.7741394042969 C 334.11083984375 301.9195251464844 326.4820251464844 303.09820556640625 310.5556945800781 304.4798583984375 C 306.6889953613281 309.2646789550781 296.7123718261719 307.6225891113281 296.8719482421875 314.7884216308594 C 289.4683837890625 333.36309814453125 293.4466552734375 351.08294677734375 292.140625 385.277587890625 C 306.71246337890625 390.792724609375 301.1105041503906 381.1951904296875 327.0562744140625 384.5428771972656 C 336.2835998535156 360.71197509765625 334.80078125 341.86468505859375 347.0820007324219 326.75653076171875 C 346.7262268066406 310.05419921875 347.8731384277344 311.87371826171875 345.48809814453125 304.7741394042969" stroke-width="0.0" fill="rgb(86, 97, 113)" opacity="0.9125784" stroke="rgb(0, 0, 0)" stroke-opacity="1.0" stroke-linecap="round" stroke-linejoin="round" />
    <path d="M 354.3526611328125 297.9813232421875 C 346.1694641113281 306.47314453125 345.8845520019531 301.66925048828125 348.75665283203125 320.4117431640625 C 352.83404541015625 332.4363098144531 362.5068054199219 343.84100341796875 366.9773254394531 367.47552490234375 C 374.94775390625 372.20977783203125 379.5639343261719 378.6837158203125 390.74114990234375 381.5058288574219 C 397.1781311035156 378.97210693359375 406.2160339355469 377.1932067871094 410.75164794921875 375.36181640625 C 416.31829833984375 372.6800537109375 413.2939147949219 371.3457946777344 414.0313415527344 361.0629577636719 C 404.9829406738281 341.0751953125 398.5452575683594 334.8108825683594 393.17120361328125 309.8849792480469 C 384.3414306640625 298.89605712890625 371.05084228515625 301.7823181152344 354.3526611328125 297.9813232421875" stroke-width="0.0" fill="rgb(95, 107, 122)" opacity="0.86250025" stroke="rgb(0, 0, 0)" stroke-opacity="1.0" stroke-linecap="round" stroke-linejoin="round" />
    <path d="M 424.1318664550781 380.07861328125 C 421.3251647949219 378.29443359375 417.20489501953125 373.7980041503906 412.4380187988281 374.9314880371094 C 402.8995361328125 380.038818359375 407.2290954589844 381.7876892089844 396.0241394042969 380.5730895996094 C 389.5002746582031 380.8445739746094 387.7208251953125 392.0017395019531 389.8385009765625 391.9595947265625 C 390.0382995605469 397.2317810058594 394.1415100097656 398.4700012207031 398.7404479980469 400.9631042480469 C 402.11151123046875 404.5881042480469 410.9216613769531 399.9026184082031 416.5592346191406 401.3210754394531 C 418.4830017089844 397.76275634765625 424.2236633300781 399.35760498046875 426.0826416015625 391.833984375 C 426.30828857421875 386.3416442871094 425.9593811035156 383.9688720703125 424.1318664550781 380.07861328125" stroke-width="0.0" fill="rgb(209, 142, 78)" opacity="0.9042364" stroke="rgb(0, 0, 0)" stroke-opacity="1.0" stroke-linecap="round" stroke-linejoin="round" />
    </g>
</svg>