<?xml version='1.0' encoding='utf-8'?>
<svg xmlns="http://www.w3.org/2000/svg" version="1.1" width="512" height="512">
  <defs />
  <g>
    <path d="M 252.47280883789062 105.39644622802734 C 256.57794189453125 102.29993438720703 248.79698181152344 109.0252914428711 239.63507080078125 104.74964141845703 C 236.6250762939453 156.02854919433594 214.7713623046875 195.77682495117188 213.61859130859375 236.67819213867188 C 207.4176025390625 284.7669372558594 186.07997131347656 294.7525939941406 181.18869018554688 332.5156555175781 C 183.4766845703125 348.40936279296875 196.45986938476562 343.8152160644531 193.64344787597656 362.20166015625 C 192.65048217773438 378.5454406738281 204.8349609375 375.0982360839844 207.37081909179688 381.23931884765625 C 210.26742553710938 407.72747802734375 208.04945373535156 406.2086181640625 203.06195068359375 419.8493347167969 C 205.44869995117188 430.78564453125 224.26113891601562 426.1678771972656 227.0302276611328 421.59490966796875 C 231.0478515625 410.7243957519531 231.39259338378906 389.2523193359375 236.51907348632812 382.4510192871094 C 241.07362365722656 379.657470703125 245.9744873046875 381.6422424316406 246.70578002929688 385.0054016113281 C 250.8743896484375 397.88555908203125 247.77122497558594 410.7127990722656 249.29629516601562 420.7187805175781 C 252.81358337402344 426.8561706542969 269.1326904296875 429.7949523925781 273.5755615234375 419.755615234375 C 272.5395202636719 410.27130126953125 269.6661682128906 402.7237854003906 274.8162536621094 383.70220947265625 C 278.3167419433594 379.8298645019531 283.9986572265625 380.3609924316406 287.38800048828125 372.83575439453125 C 290.7843017578125 369.3616943359375 290.2833251953125 358.0928649902344 292.177978515625 350.3409423828125 C 295.6645812988281 348.0589294433594 302.03094482421875 345.2251281738281 303.99566650390625 337.28131103515625 C 306.00701904296875 323.51641845703125 304.44952392578125 312.9633483886719 301.1176452636719 299.0894775390625 C 294.8482360839844 279.14739990234375 282.07635498046875 264.3305358886719 276.31268310546875 234.01881408691406 C 276.78607177734375 188.71896362304688 261.47528076171875 147.7533721923828 264.8466491699219 106.84027099609375 C 252.07220458984375 105.59050750732422 249.14346313476562 104.18720245361328 252.47280883789062 105.39644622802734" stroke-width="0.0" fill="rgb(231, 193, 185)" opacity="0.6949183" stroke="rgb(0, 0, 0)" stroke-opacity="1.0" stroke-linecap="round" stroke-linejoin="round" />
    <path d="M 180.1478271484375 329.2629699707031 C 175.7129364013672 332.5848388671875 174.08099365234375 339.7330627441406 173.62216186523438 344.78424072265625 C 174.8498077392578 349.7875671386719 179.4156494140625 351.2655334472656 184.69142150878906 351.89703369140625 C 198.29220581054688 346.6914367675781 190.02676391601562 348.09857177734375 188.0408172607422 344.8248291015625 C 184.07672119140625 342.08135986328125 180.9251708984375 333.91876220703125 180.1478271484375 329.2629699707031" stroke-width="0.0" fill="rgb(252, 210, 244)" opacity="0.9936438" stroke="rgb(0, 0, 0)" stroke-opacity="1.0" stroke-linecap="round" stroke-linejoin="round" />
    <path d="M 235.29608154296875 94.39152526855469 C 235.3879852294922 90.54518127441406 232.99571228027344 106.86957550048828 236.02638244628906 113.738525390625 C 241.78363037109375 117.60128021240234 242.75169372558594 108.39460754394531 249.9999542236328 106.28382873535156 C 251.30035400390625 105.8736801147461 260.8925476074219 105.67253112792969 261.83160400390625 107.28319549560547 C 265.13653564453125 108.7373046875 267.7315673828125 111.2979965209961 266.7172546386719 117.88993072509766 C 271.5497741699219 114.27314758300781 274.5159912109375 109.50921630859375 274.27288818359375 99.16682434082031 C 271.59912109375 92.8636703491211 267.49169921875 89.40367889404297 264.0489807128906 86.95195007324219 C 260.6905212402344 84.9017105102539 259.711181640625 82.1348876953125 251.0425262451172 82.76597595214844 C 246.57008361816406 84.82772827148438 240.43173217773438 86.6856918334961 235.29608154296875 94.39152526855469" stroke-width="0.0" fill="rgb(219, 210, 226)" opacity="0.98142964" stroke="rgb(0, 0, 0)" stroke-opacity="1.0" stroke-linecap="round" stroke-linejoin="round" />
    <path d="M 272.0520324707031 232.88363647460938 C 272.9937438964844 239.4725799560547 256.19390869140625 240.34332275390625 246.71531677246094 241.11032104492188 C 244.30653381347656 241.67849731445312 227.96136474609375 241.4901123046875 217.96397399902344 233.8804168701172 C 209.72132873535156 277.0404052734375 187.92799377441406 295.92913818359375 182.32925415039062 328.3426513671875 C 185.45887756347656 351.43548583984375 196.07337951660156 333.0152893066406 193.80332946777344 360.8602600097656 C 192.45303344726562 378.2398376464844 203.95254516601562 374.87908935546875 211.14695739746094 382.279052734375 C 230.46542358398438 379.5663757324219 250.46484375 381.25244140625 268.27935791015625 385.43743896484375 C 278.52734375 379.1469421386719 289.9343566894531 379.9681396484375 289.79541015625 360.0959167480469 C 289.7030334472656 338.1818542480469 305.9450378417969 348.6921691894531 303.9804382324219 317.4587097167969 C 299.9117431640625 284.7521667480469 280.588623046875 264.03564453125 272.0520324707031 232.88363647460938" stroke-width="0.0" fill="rgb(248, 187, 186)" opacity="0.77766" stroke="rgb(0, 0, 0)" stroke-opacity="1.0" stroke-linecap="round" stroke-linejoin="round" />
    <path d="M 244.9722442626953 113.62195587158203 C 249.92811584472656 115.15332794189453 246.17257690429688 119.03591918945312 239.5496826171875 116.82791900634766 C 233.31907653808594 147.92840576171875 224.6232147216797 180.96881103515625 215.4231414794922 214.8396759033203 C 215.6564178466797 215.20669555664062 222.1707000732422 218.5393829345703 229.59877014160156 222.25096130371094 C 241.80062866210938 225.07948303222656 255.07083129882812 224.2351837158203 269.8023681640625 221.36007690429688 C 276.7169189453125 216.7671356201172 278.832763671875 219.8211669921875 275.4574279785156 212.84234619140625 C 271.1886291503906 177.45945739746094 265.7322082519531 150.5177764892578 263.13043212890625 115.6034927368164 C 272.1009521484375 114.54176330566406 255.50242614746094 119.5883560180664 244.9722442626953 113.62195587158203" stroke-width="0.0" fill="rgb(250, 99, 69)" opacity="0.987923" stroke="rgb(0, 0, 0)" stroke-opacity="1.0" stroke-linecap="round" stroke-linejoin="round" />
    <path d="M 208.66891479492188 379.5271301269531 C 205.96530151367188 386.9167785644531 211.1905975341797 395.6648864746094 208.35797119140625 410.48651123046875 C 215.4609832763672 409.3302917480469 225.03927612304688 408.9067687988281 228.9849395751953 413.7143859863281 C 231.11428833007812 403.0569152832031 231.9391632080078 393.7131652832031 235.6778106689453 382.2475280761719 C 231.741943359375 379.4604187011719 216.29464721679688 382.44549560546875 208.66891479492188 379.5271301269531" stroke-width="0.0" fill="rgb(251, 207, 243)" opacity="1.0051908" stroke="rgb(0, 0, 0)" stroke-opacity="1.0" stroke-linecap="round" stroke-linejoin="round" />
    <path d="M 247.40606689453125 383.2353210449219 C 248.23753356933594 391.17864990234375 249.09048461914062 401.0709533691406 249.4156036376953 409.905029296875 C 255.89097595214844 410.3133239746094 265.23236083984375 408.5014953613281 271.2838439941406 409.4112243652344 C 272.926025390625 404.0233459472656 270.9401550292969 393.61370849609375 274.5633239746094 383.5539245605469 C 260.95367431640625 384.6087341308594 249.28480529785156 380.0176696777344 247.40606689453125 383.2353210449219" stroke-width="0.0" fill="rgb(242, 198, 232)" opacity="0.98828995" stroke="rgb(0, 0, 0)" stroke-opacity="1.0" stroke-linecap="round" stroke-linejoin="round" />
    <path d="M 203.70372009277344 416.69964599609375 C 203.64041137695312 421.84197998046875 203.49354553222656 422.1032409667969 204.575927734375 422.95306396484375 C 205.1119842529297 427.2768859863281 219.7507781982422 427.060546875 222.7999267578125 424.68096923828125 C 226.65867614746094 424.25567626953125 229.80563354492188 418.1949768066406 228.78903198242188 413.91070556640625 C 223.28363037109375 407.3424072265625 218.68226623535156 407.64453125 209.25872802734375 408.17333984375 C 210.40451049804688 409.1564025878906 205.37301635742188 412.880126953125 203.70372009277344 416.69964599609375" stroke-width="0.0" fill="rgb(79, 56, 60)" opacity="0.98776317" stroke="rgb(0, 0, 0)" stroke-opacity="1.0" stroke-linecap="round" stroke-linejoin="round" />
    <path d="M 252.36843872070312 409.508056640625 C 245.7950897216797 416.4225769042969 250.8429718017578 422.5825500488281 254.59507751464844 424.79180908203125 C 262.9619445800781 427.4739685058594 269.9517822265625 426.50592041015625 272.9528503417969 421.291748046875 C 274.29150390625 412.80731201171875 271.0953674316406 410.1688232421875 266.611328125 409.2099304199219 C 260.7331848144531 409.0657958984375 253.04771423339844 410.41558837890625 252.36843872070312 409.508056640625" stroke-width="0.0" fill="rgb(72, 49, 52)" opacity="0.99694026" stroke="rgb(0, 0, 0)" stroke-opacity="1.0" stroke-linecap="round" stroke-linejoin="round" />
    <path d="M 248.11276245117188 85.88504028320312 C 239.88873291015625 86.68965148925781 237.81393432617188 93.69126892089844 236.17405700683594 96.42937469482422 C 235.08795166015625 105.09467315673828 237.3495330810547 110.40674591064453 239.49644470214844 117.84174346923828 C 246.34461975097656 117.09576416015625 254.4297332763672 116.97382354736328 263.86865234375 118.0887680053711 C 267.1175842285156 113.07901000976562 275.697265625 100.93455505371094 268.7243957519531 92.32980346679688 C 266.4141845703125 86.5920181274414 252.5805206298828 82.91114044189453 248.11276245117188 85.88504028320312" stroke-width="0.0" fill="rgb(207, 201, 219)" opacity="0.9376874" stroke="rgb(0, 0, 0)" stroke-opacity="1.0" stroke-linecap="round" stroke-linejoin="round" />
    <path d="M 215.2664337158203 212.12757873535156 C 211.08450317382812 220.35086059570312 215.92160034179688 234.32411193847656 214.5354766845703 237.2345733642578 C 237.43167114257812 242.05421447753906 250.7027587890625 244.59561157226562 274.63470458984375 236.2783660888672 C 274.6382751464844 234.1115264892578 276.59576416015625 222.78028869628906 277.0749206542969 218.10614013671875 C 256.4543762207031 226.78053283691406 225.9001007080078 226.66668701171875 215.2664337158203 212.12757873535156" stroke-width="0.0" fill="rgb(247, 174, 182)" opacity="1.0483997" stroke="rgb(0, 0, 0)" stroke-opacity="1.0" stroke-linecap="round" stroke-linejoin="round" />
    <path d="M 302.61285400390625 330.43597412109375 C 305.6864929199219 330.96795654296875 297.57745361328125 343.36273193359375 298.1529541015625 341.756591796875 C 306.1407470703125 338.3215026855469 290.5679931640625 343.2905578613281 292.1798095703125 350.9636535644531 C 302.7151184082031 351.9350891113281 302.460693359375 349.91961669921875 306.91851806640625 345.7028503417969 C 309.6463317871094 340.1136779785156 307.34844970703125 333.6720275878906 302.61285400390625 330.43597412109375" stroke-width="0.0" fill="rgb(252, 215, 244)" opacity="1.0201164" stroke="rgb(0, 0, 0)" stroke-opacity="1.0" stroke-linecap="round" stroke-linejoin="round" />
    <path d="M 272.619384765625 265.0388488769531 C 249.0467987060547 267.11407470703125 229.56765747070312 269.1895751953125 218.94078063964844 270.4233093261719 C 214.2953643798828 300.9375 202.87667846679688 323.12841796875 194.98065185546875 346.18634033203125 C 193.61180114746094 362.12615966796875 191.13882446289062 376.346923828125 200.07626342773438 375.97149658203125 C 208.59764099121094 382.20526123046875 239.7721405029297 380.53582763671875 265.13470458984375 381.3733215332031 C 276.0557556152344 383.1986999511719 282.4883117675781 378.9588317871094 286.8821716308594 376.1934509277344 C 290.8516540527344 368.43768310546875 289.99761962890625 364.838134765625 290.0744934082031 349.3782043457031 C 284.95849609375 318.93780517578125 272.98431396484375 295.46478271484375 272.619384765625 265.0388488769531" stroke-width="0.0" fill="rgb(189, 147, 55)" opacity="0.9624237" stroke="rgb(0, 0, 0)" stroke-opacity="1.0" stroke-linecap="round" stroke-linejoin="round" />
    <path d="M 277.635498046875 267.52801513671875 C 274.4290466308594 270.12225341796875 270.4669189453125 276.5998229980469 272.7215576171875 281.3480224609375 C 280.3085632324219 303.7222595214844 281.45458984375 326.2123107910156 287.28466796875 338.72216796875 C 295.8627624511719 338.8511657714844 301.4667053222656 336.3582763671875 304.04010009765625 332.4994201660156 C 304.2051086425781 322.0541687011719 304.83673095703125 311.88623046875 302.3183288574219 303.09100341796875 C 299.4940185546875 291.4490661621094 294.80621337890625 280.4847412109375 286.95538330078125 270.09405517578125 C 291.3351135253906 266.3550109863281 283.76812744140625 269.47125244140625 277.635498046875 267.52801513671875" stroke-width="0.0" fill="rgb(136, 88, 69)" opacity="0.95788985" stroke="rgb(0, 0, 0)" stroke-opacity="1.0" stroke-linecap="round" stroke-linejoin="round" />
    <path d="M 288.792236328125 269.7578430175781 C 286.09478759765625 256.4894104003906 280.5718994140625 248.92518615722656 274.224365234375 243.6699676513672 C 251.76812744140625 248.1612548828125 230.1750030517578 251.50909423828125 216.0074005126953 244.3192596435547 C 209.0885772705078 248.63516235351562 203.16189575195312 252.2387237548828 203.04725646972656 262.02740478515625 C 203.14500427246094 265.8232116699219 202.58880615234375 274.63104248046875 209.094970703125 274.2191162109375 C 233.05935668945312 265.9855041503906 256.42376708984375 264.8687438964844 288.792236328125 269.7578430175781" stroke-width="0.0" fill="rgb(200, 176, 174)" opacity="0.8684344" stroke="rgb(0, 0, 0)" stroke-opacity="1.0" stroke-linecap="round" stroke-linejoin="round" />
    <path d="M 211.3054962158203 272.5582275390625 C 202.38018798828125 280.3328552246094 192.00425720214844 297.181884765625 185.92694091796875 310.40325927734375 C 183.3125 317.21527099609375 181.12583923339844 323.7402038574219 179.54493713378906 330.1620788574219 C 180.31173706054688 332.7475891113281 187.0459442138672 337.4662780761719 193.6846923828125 339.788818359375 C 202.63583374023438 333.3247985839844 204.93138122558594 315.4617919921875 211.5785369873047 304.141845703125 C 212.84437561035156 290.6505432128906 224.4181365966797 272.759765625 211.3054962158203 272.5582275390625" stroke-width="0.0" fill="rgb(135, 88, 73)" opacity="0.9210325" stroke="rgb(0, 0, 0)" stroke-opacity="1.0" stroke-linecap="round" stroke-linejoin="round" />
    <path d="M 227.58230590820312 217.94354248046875 C 222.34170532226562 221.9289093017578 225.65292358398438 222.6044158935547 228.65573120117188 226.50047302246094 C 234.2504119873047 226.813232421875 236.67115783691406 221.83045959472656 236.27452087402344 220.18173217773438 C 234.5135040283203 215.6829071044922 228.22694396972656 216.02230834960938 227.58230590820312 217.94354248046875" stroke-width="0.0" fill="rgb(87, 52, 52)" opacity="1.0142487" stroke="rgb(0, 0, 0)" stroke-opacity="1.0" stroke-linecap="round" stroke-linejoin="round" />
    <path d="M 267.1423645019531 117.723876953125 C 268.4969787597656 108.70347595214844 261.9588623046875 104.76628875732422 258.9715270996094 105.81664276123047 C 247.75621032714844 103.91179656982422 241.8098602294922 109.81061553955078 237.95606994628906 117.4829330444336 C 248.64161682128906 118.8395767211914 263.4548645019531 120.57141876220703 267.1423645019531 117.723876953125" stroke-width="0.0" fill="rgb(218, 146, 115)" opacity="0.93241477" stroke="rgb(0, 0, 0)" stroke-opacity="1.0" stroke-linecap="round" stroke-linejoin="round" />
    <path d="M 227.97543334960938 232.87242126464844 C 226.93507385253906 244.6165313720703 231.30967712402344 237.2967071533203 235.57676696777344 243.53851318359375 C 243.8306884765625 241.48251342773438 251.69613647460938 243.15089416503906 253.20883178710938 237.7646942138672 C 254.28387451171875 232.3541717529297 249.20211791992188 231.9365234375 247.23646545410156 231.83033752441406 C 240.1508331298828 236.019287109375 236.0930633544922 229.09657287597656 227.97543334960938 232.87242126464844" stroke-width="0.0" fill="rgb(248, 119, 89)" opacity="1.0098662" stroke="rgb(0, 0, 0)" stroke-opacity="1.0" stroke-linecap="round" stroke-linejoin="round" />
    <path d="M 245.94161987304688 220.45068359375 C 245.5040740966797 226.00146484375 246.08694458007812 224.5497283935547 249.84939575195312 226.98236083984375 C 253.5560760498047 227.32626342773438 259.0576477050781 226.54885864257812 259.1377258300781 221.4730682373047 C 255.70050048828125 219.19195556640625 258.4308776855469 216.15151977539062 253.1761932373047 216.0557403564453 C 248.99905395507812 215.12759399414062 248.6501007080078 218.25621032714844 245.94161987304688 220.45068359375" stroke-width="0.0" fill="rgb(106, 62, 58)" opacity="1.0017266" stroke="rgb(0, 0, 0)" stroke-opacity="1.0" stroke-linecap="round" stroke-linejoin="round" />
  </g>
</svg>