<?xml version='1.0' encoding='utf-8'?>
<svg xmlns="http://www.w3.org/2000/svg" version="1.1" width="512" height="512">
  <defs />
  <g>
    <path d="M 215.9710693359375 131.06092834472656 C 207.0993194580078 131.67874145507812 209.13673400878906 138.41534423828125 208.556640625 146.28733825683594 C 212.955810546875 169.14501953125 224.1299591064453 184.28704833984375 224.25157165527344 199.16868591308594 C 219.40625 209.86865234375 205.12391662597656 214.48165893554688 194.88519287109375 218.9130096435547 C 168.8686981201172 224.4561309814453 139.18142700195312 229.42938232421875 110.08386993408203 231.36947631835938 C 105.23698425292969 232.62582397460938 101.25392150878906 240.1422576904297 105.2155990600586 249.1000518798828 C 109.80131530761719 263.4632873535156 122.78396606445312 269.7212219238281 135.74697875976562 277.7869873046875 C 164.2178192138672 286.5796203613281 177.80239868164062 276.02655029296875 203.45343017578125 280.4150695800781 C 191.1302032470703 302.1259765625 172.903076171875 316.4354248046875 160.78504943847656 341.3695983886719 C 159.0737762451172 345.4422912597656 158.2747039794922 351.1531677246094 159.12696838378906 357.5062255859375 C 161.42337036132812 363.0637512207031 163.65359497070312 370.18408203125 171.86532592773438 372.9900817871094 C 180.5571746826172 376.3871154785156 186.32754516601562 369.72515869140625 194.13685607910156 365.267578125 C 224.0091552734375 347.70526123046875 243.83692932128906 321.281494140625 267.0147399902344 308.1534423828125 C 271.3101501464844 306.33935546875 275.28302001953125 303.74920654296875 281.0638732910156 308.9559020996094 C 288.2476806640625 321.54083251953125 293.6731262207031 336.5687255859375 304.05816650390625 350.48492431640625 C 309.98590087890625 356.4216613769531 315.0285339355469 363.7463073730469 325.0624084472656 361.36956787109375 C 332.1091003417969 356.8316650390625 333.73931884765625 350.3023376464844 333.2730407714844 338.787841796875 C 329.0480041503906 308.303955078125 317.610595703125 290.7405700683594 317.17120361328125 271.16961669921875 C 329.1361999511719 252.74142456054688 354.43603515625 246.1973114013672 366.27001953125 237.97189331054688 C 374.462646484375 228.27902221679688 377.7060852050781 218.47515869140625 371.36083984375 204.81521606445312 C 368.47918701171875 196.2333526611328 358.21630859375 187.0380096435547 343.8431091308594 186.6630096435547 C 325.1553039550781 184.4696807861328 317.2530822753906 205.14390563964844 284.6111145019531 202.48989868164062 C 267.19561767578125 188.09033203125 257.03839111328125 160.25079345703125 237.50022888183594 141.46966552734375 C 231.50611877441406 136.4873809814453 225.69839477539062 129.67762756347656 215.9710693359375 131.06092834472656" stroke-width="0.0" fill="rgb(246, 168, 143)" opacity="0.68989855" stroke="rgb(0, 0, 0)" stroke-opacity="1.0" stroke-linecap="round" stroke-linejoin="round" />
    <path d="M 321.310302734375 192.8948211669922 C 313.9725646972656 200.21559143066406 311.3760681152344 200.84681701660156 317.22039794921875 196.7603759765625 C 323.3374328613281 217.48638916015625 330.7917175292969 227.75015258789062 339.2867431640625 237.3140411376953 C 344.7380676269531 240.3195343017578 346.2727355957031 245.27586364746094 351.52117919921875 245.17608642578125 C 359.1144104003906 243.2725372314453 365.6399841308594 238.9200439453125 368.78887939453125 234.59384155273438 C 373.0839538574219 228.89418029785156 373.91070556640625 225.90533447265625 374.84088134765625 216.49839782714844 C 373.8878173828125 205.49151611328125 368.2959899902344 197.56150817871094 362.9056396484375 193.3511962890625 C 358.966064453125 190.4097137451172 354.5863342285156 188.4104461669922 351.791015625 187.56451416015625 C 334.1405029296875 184.4525604248047 330.2958068847656 189.56948852539062 321.310302734375 192.8948211669922" stroke-width="0.0" fill="rgb(45, 55, 74)" opacity="0.9589942" stroke="rgb(0, 0, 0)" stroke-opacity="1.0" stroke-linecap="round" stroke-linejoin="round" />
    <path d="M 167.3666534423828 331.0973205566406 C 161.59434509277344 336.25213623046875 158.41763305664062 344.3047180175781 158.7847137451172 351.7176513671875 C 159.0676727294922 363.63427734375 163.73251342773438 367.70989990234375 168.5696258544922 372.3079528808594 C 172.1793975830078 372.7044982910156 171.91552734375 375.7409362792969 180.99114990234375 373.3507995605469 C 184.8961639404297 372.8597717285156 185.2745819091797 370.7647399902344 190.13629150390625 367.0699768066406 C 191.66798400878906 365.3232727050781 181.074951171875 369.7095947265625 185.66847229003906 358.73992919921875 C 183.83021545410156 345.9693298339844 174.84286499023438 339.4223937988281 167.3666534423828 331.0973205566406" stroke-width="0.0" fill="rgb(65, 49, 55)" opacity="1.0022705" stroke="rgb(0, 0, 0)" stroke-opacity="1.0" stroke-linecap="round" stroke-linejoin="round" />
    <path d="M 110.45769500732422 230.9658966064453 C 104.11839294433594 233.91725158691406 101.7743148803711 238.36793518066406 105.12545013427734 250.9629669189453 C 109.01182556152344 257.1803894042969 115.26826477050781 266.7742919921875 123.65377807617188 269.889404296875 C 132.0981903076172 265.31378173828125 127.52901458740234 248.1584014892578 127.03099060058594 232.24227905273438 C 128.47186279296875 231.07090759277344 116.6051254272461 230.44931030273438 110.45769500732422 230.9658966064453" stroke-width="0.0" fill="rgb(86, 58, 61)" opacity="1.0054241" stroke="rgb(0, 0, 0)" stroke-opacity="1.0" stroke-linecap="round" stroke-linejoin="round" />
    <path d="M 218.84890747070312 129.84088134765625 C 209.0007781982422 128.37721252441406 208.09217834472656 137.68450927734375 207.66888427734375 140.47288513183594 C 212.29005432128906 168.302001953125 223.72286987304688 183.4210205078125 224.1544189453125 196.03977966308594 C 224.23495483398438 208.4053955078125 206.04013061523438 210.8922576904297 198.6966552734375 219.1301727294922 C 210.48252868652344 232.91775512695312 216.45448303222656 252.592529296875 223.54957580566406 272.836181640625 C 232.72097778320312 285.2383117675781 245.3386993408203 298.42193603515625 255.32028198242188 311.44482421875 C 264.4915771484375 313.8951721191406 268.95428466796875 301.6454772949219 279.9402770996094 307.2012023925781 C 288.16082763671875 319.2727355957031 292.8525695800781 337.7059631347656 306.10833740234375 354.2904357910156 C 308.68865966796875 358.37225341796875 319.29705810546875 365.42041015625 322.81817626953125 362.3643493652344 C 331.8218688964844 359.5263366699219 332.43243408203125 352.9140319824219 334.199462890625 344.9354553222656 C 331.3940734863281 307.32537841796875 314.866455078125 288.84063720703125 318.2862854003906 267.4394836425781 C 326.3450927734375 258.9322509765625 341.07928466796875 253.88307189941406 350.67938232421875 245.42514038085938 C 334.126708984375 232.98220825195312 324.1477966308594 215.5852508544922 317.0889587402344 197.60842895507812 C 305.34527587890625 200.72360229492188 295.0532531738281 207.21949768066406 283.12225341796875 201.6957244873047 C 269.17822265625 186.7290802001953 257.5924987792969 164.9077606201172 243.6122589111328 146.8553466796875 C 235.94081115722656 139.69198608398438 226.09376525878906 129.5509796142578 218.84890747070312 129.84088134765625" stroke-width="0.0" fill="rgb(231, 181, 154)" opacity="0.79196835" stroke="rgb(0, 0, 0)" stroke-opacity="1.0" stroke-linecap="round" stroke-linejoin="round" />
    <path d="M 122.7818832397461 231.71603393554688 C 133.4517059326172 245.42080688476562 124.81063842773438 263.8627014160156 127.81096649169922 272.9691162109375 C 134.8227996826172 277.34844970703125 140.3968048095703 280.4631652832031 148.79151916503906 282.0121765136719 C 176.15744018554688 283.2017822265625 197.65054321289062 273.5927734375 203.9852294921875 282.5392761230469 C 192.8631134033203 298.7122497558594 175.66574096679688 311.1856384277344 166.52908325195312 333.9554748535156 C 176.2212677001953 337.9842224121094 182.75555419921875 347.5074768066406 185.4958038330078 358.8890686035156 C 180.98712158203125 362.4555969238281 173.3225860595703 359.9071960449219 163.2736053466797 358.2017517089844 C 165.99798583984375 355.0053405761719 171.5509033203125 357.1583557128906 178.49386596679688 355.92950439453125 C 173.110107421875 354.9754943847656 168.7197265625 353.63250732421875 166.4808349609375 355.6311950683594 C 162.9615936279297 350.1431579589844 166.75216674804688 349.12921142578125 172.29412841796875 349.71307373046875 C 167.2964324951172 351.91650390625 165.3606414794922 351.74420166015625 164.21946716308594 347.2178039550781 C 165.80482482910156 354.351806640625 158.27944946289062 355.4505615234375 161.7947540283203 361.3951721191406 C 168.4838104248047 363.38531494140625 176.628662109375 360.8606872558594 184.1674346923828 362.1822814941406 C 185.41246032714844 366.1940612792969 181.83670043945312 369.5027770996094 180.91514587402344 365.12518310546875 C 187.3982391357422 370.1358337402344 190.59378051757812 365.74285888671875 197.91812133789062 362.7629699707031 C 217.6998748779297 348.89154052734375 236.43577575683594 332.50177001953125 256.2317810058594 313.6058654785156 C 245.59373474121094 298.1786804199219 231.5367889404297 287.5445861816406 222.71725463867188 270.07232666015625 C 217.89747619628906 251.2442626953125 208.23814392089844 236.4846954345703 200.9080352783203 219.09918212890625 C 175.06036376953125 223.416748046875 151.02044677734375 227.47525024414062 122.7818832397461 231.71603393554688" stroke-width="0.0" fill="rgb(238, 58, 26)" opacity="0.6980731" stroke="rgb(0, 0, 0)" stroke-opacity="1.0" stroke-linecap="round" stroke-linejoin="round" />
    <path d="M 224.8895263671875 279.5887451171875 C 218.06690979003906 284.07275390625 212.18394470214844 276.8767395019531 205.93028259277344 280.31451416015625 C 198.00807189941406 297.3092956542969 176.9609375 304.8962097167969 167.98641967773438 332.3973693847656 C 169.81874084472656 330.6960754394531 177.01950073242188 335.3517761230469 182.14901733398438 340.89166259765625 C 187.46197509765625 351.19384765625 188.84400939941406 357.8143310546875 189.822265625 367.03411865234375 C 214.61476135253906 353.1910095214844 234.23072814941406 334.38250732421875 252.93531799316406 316.265625 C 243.95184326171875 300.4551086425781 235.83438110351562 288.99700927734375 224.8895263671875 279.5887451171875" stroke-width="0.0" fill="rgb(250, 100, 70)" opacity="0.9370191" stroke="rgb(0, 0, 0)" stroke-opacity="1.0" stroke-linecap="round" stroke-linejoin="round" />
    <path d="M 317.54144287109375 196.74075317382812 C 303.0724792480469 203.40342712402344 302.7682189941406 207.6133575439453 274.5205078125 203.80288696289062 C 277.5172424316406 203.259765625 280.79486083984375 213.21829223632812 276.6835632324219 220.5267791748047 C 277.19207763671875 227.78744506835938 279.2796630859375 239.45823669433594 280.85638427734375 239.98773193359375 C 290.6307678222656 251.402587890625 297.2701721191406 262.948974609375 313.0747985839844 268.3701477050781 C 325.2221374511719 260.0220031738281 340.5465087890625 255.4683380126953 351.18365478515625 243.00242614746094 C 335.37908935546875 232.7644805908203 323.7034606933594 215.6890411376953 317.54144287109375 196.74075317382812" stroke-width="0.0" fill="rgb(210, 155, 121)" opacity="0.9230527" stroke="rgb(0, 0, 0)" stroke-opacity="1.0" stroke-linecap="round" stroke-linejoin="round" />
    <path d="M 331.3840637207031 332.16180419921875 C 315.0087890625 331.0930480957031 306.3794250488281 334.5140380859375 299.9873046875 343.4554748535156 C 302.68963623046875 349.59844970703125 306.50604248046875 356.8503112792969 313.466552734375 361.4947509765625 C 324.5244140625 365.5843200683594 327.2237548828125 361.3108215332031 333.2837219238281 353.2273254394531 C 332.9270935058594 347.8666076660156 333.7747802734375 336.3567199707031 331.3840637207031 332.16180419921875" stroke-width="0.0" fill="rgb(243, 85, 62)" opacity="0.98708504" stroke="rgb(0, 0, 0)" stroke-opacity="1.0" stroke-linecap="round" stroke-linejoin="round" />
    <path d="M 225.48191833496094 131.02581787109375 C 214.288818359375 127.48954772949219 211.18231201171875 131.1656494140625 208.6726837158203 133.7522735595703 C 206.18675231933594 141.23419189453125 207.4998321533203 152.83505249023438 213.53060913085938 156.03321838378906 C 223.78501892089844 152.15870666503906 229.45753479003906 147.66314697265625 232.82711791992188 140.58787536621094 C 233.2561492919922 134.89346313476562 226.0634765625 134.54586791992188 225.48191833496094 131.02581787109375" stroke-width="0.0" fill="rgb(245, 104, 80)" opacity="0.9954621" stroke="rgb(0, 0, 0)" stroke-opacity="1.0" stroke-linecap="round" stroke-linejoin="round" />
    <path d="M 231.81394958496094 141.5313720703125 C 228.9225616455078 153.44569396972656 225.13043212890625 153.2884521484375 215.51846313476562 157.309326171875 C 213.22154235839844 175.96728515625 223.89767456054688 185.17526245117188 229.423095703125 197.7197723388672 C 220.99276733398438 207.4223175048828 211.22544860839844 201.45751953125 202.80844116210938 215.13145446777344 C 206.23504638671875 244.26473999023438 220.78665161132812 251.40248107910156 227.38638305664062 278.8550720214844 C 235.7957000732422 292.6142883300781 249.83192443847656 298.66534423828125 253.90869140625 313.32598876953125 C 262.3749694824219 314.45904541015625 267.0982971191406 302.7242126464844 280.9701232910156 304.38287353515625 C 289.4549865722656 312.523193359375 289.1346435546875 335.4954528808594 298.39935302734375 341.8656311035156 C 305.97882080078125 345.21905517578125 302.516845703125 334.5140075683594 310.6242370605469 332.06414794921875 C 318.0578918457031 328.8568115234375 331.97711181640625 333.67352294921875 332.06744384765625 330.12127685546875 C 329.231201171875 308.73748779296875 319.74176025390625 290.7791442871094 314.298095703125 271.08782958984375 C 310.04083251953125 269.3569030761719 303.6004638671875 266.7913513183594 296.5640563964844 264.859619140625 C 291.9829406738281 255.0286407470703 283.37982177734375 247.65931701660156 277.8333740234375 238.65335083007812 C 269.1858825683594 204.12136840820312 291.0574035644531 212.0827178955078 273.18304443359375 187.4427947998047 C 260.1120910644531 181.5014190673828 258.4339904785156 163.45626831054688 243.046142578125 145.51443481445312 C 240.41217041015625 141.90557861328125 234.9261016845703 141.4051971435547 231.81394958496094 141.5313720703125" stroke-width="0.0" fill="rgb(192, 100, 57)" opacity="0.9505117" stroke="rgb(0, 0, 0)" stroke-opacity="1.0" stroke-linecap="round" stroke-linejoin="round" />
    </g>
</svg>