<?xml version='1.0' encoding='utf-8'?>
<svg xmlns="http://www.w3.org/2000/svg" version="1.1" width="512" height="512">
  <defs />
  <g>
    <path d="M 194.73260498046875 71.64952087402344 C 183.34458923339844 72.12487030029297 177.63873291015625 71.25482940673828 170.25 74.76592254638672 C 160.85409545898438 79.08822631835938 155.8877410888672 85.118896484375 150.65011596679688 93.3285140991211 C 143.1058349609375 108.1554183959961 142.0557861328125 122.94930267333984 143.14788818359375 141.90406799316406 C 129.15176391601562 171.87921142578125 117.85449981689453 200.8976287841797 111.3536605834961 234.2603759765625 C 109.40138244628906 243.95794677734375 106.19322967529297 263.1849060058594 107.05784606933594 274.52398681640625 C 109.07120513916016 294.3921203613281 115.97600555419922 304.0541076660156 116.30677795410156 309.97393798828125 C 112.79606628417969 341.6659851074219 99.68335723876953 365.7492370605469 103.80316925048828 390.0325012207031 C 125.3589096069336 406.4716796875 115.51094055175781 399.62261962890625 120.18250274658203 415.87335205078125 C 124.50179290771484 427.8100891113281 142.0792694091797 424.2462158203125 146.3401336669922 421.2229309082031 C 155.02195739746094 413.26312255859375 149.98057556152344 403.6856384277344 155.26089477539062 403.3890380859375 C 162.11996459960938 401.1650695800781 172.7223358154297 403.9881896972656 180.2018585205078 406.835205078125 C 184.947509765625 412.6781921386719 186.8489990234375 421.17791748046875 198.0266876220703 422.2429504394531 C 209.0670623779297 423.3632507324219 222.03330993652344 420.2847900390625 218.2705078125 403.1822814941406 C 207.62673950195312 395.0166320800781 207.9617156982422 366.3458557128906 205.7859649658203 331.5534362792969 C 211.1990509033203 318.92218017578125 225.0045623779297 316.13848876953125 229.2144775390625 299.4377136230469 C 234.86036682128906 275.3975524902344 231.06423950195312 250.85964965820312 229.80580139160156 222.77835083007812 C 243.65921020507812 217.94415283203125 250.51596069335938 231.43511962890625 288.25201416015625 236.08651733398438 C 294.2159118652344 234.3861541748047 294.4624938964844 235.00938415527344 295.1766357421875 229.83677673339844 C 297.5550537109375 224.9455108642578 295.5025634765625 217.41395568847656 293.0471496582031 215.74314880371094 C 275.1577453613281 193.31192016601562 241.349853515625 185.03176879882812 228.85421752929688 158.17050170898438 C 229.58563232421875 133.28915405273438 239.00550842285156 128.29534912109375 231.0628662109375 100.62599182128906 C 227.36843872070312 90.91893005371094 221.66661071777344 84.2335433959961 216.82858276367188 80.10254669189453 C 210.88986206054688 76.18450164794922 203.46395874023438 73.67062377929688 194.73260498046875 71.64952087402344" stroke-width="0.0" fill="rgb(207, 170, 125)" opacity="0.9379581" stroke="rgb(0, 0, 0)" stroke-opacity="1.0" stroke-linecap="round" stroke-linejoin="round" />
    <path d="M 397.6553039550781 118.70684814453125 C 382.6854553222656 114.54151153564453 380.76263427734375 115.51736450195312 366.6144714355469 118.1186752319336 C 353.4991149902344 123.30013275146484 341.6716003417969 131.3706817626953 333.2870788574219 141.17828369140625 C 329.32659912109375 148.59225463867188 324.8935546875 152.163330078125 323.8174133300781 168.330078125 C 324.6484069824219 171.4800567626953 325.52716064453125 181.86949157714844 326.850341796875 188.5887451171875 C 322.83221435546875 201.1454620361328 308.0086364746094 208.0745391845703 299.4136657714844 221.0952606201172 C 299.46142578125 229.29385375976562 298.09820556640625 235.48880004882812 295.4706726074219 237.22406005859375 C 299.0243225097656 263.1199951171875 310.0555114746094 281.7364807128906 307.7245788574219 304.4248046875 C 292.64752197265625 353.68695068359375 278.3246765136719 392.1189880371094 275.7491149902344 447.1917419433594 C 263.69061279296875 459.5516052246094 270.7935791015625 471.67095947265625 282.0289001464844 472.9368591308594 C 291.6741638183594 476.12176513671875 306.7431335449219 472.6250915527344 308.1175842285156 463.7609558105469 C 334.4496154785156 439.1190490722656 328.1826477050781 406.2002868652344 345.1954650878906 382.35858154296875 C 355.8676452636719 395.2950744628906 360.58929443359375 420.85498046875 369.5869140625 441.761474609375 C 373.41278076171875 453.5852355957031 370.5981750488281 461.7474670410156 373.9141540527344 470.36956787109375 C 380.59588623046875 477.7364807128906 387.53826904296875 477.6363525390625 399.6820068359375 476.7477111816406 C 409.9717102050781 474.4797058105469 421.9064025878906 472.24542236328125 422.4166259765625 451.1208190917969 C 413.6809387207031 404.1837158203125 400.16326904296875 353.42852783203125 390.4489440917969 285.38848876953125 C 388.9753723144531 266.0591735839844 397.52886962890625 240.1206512451172 386.4046630859375 202.01768493652344 C 389.27459716796875 191.65000915527344 404.7944030761719 185.99008178710938 415.04412841796875 169.4750213623047 C 416.1075134277344 166.02056884765625 418.6484680175781 156.4791717529297 418.0929260253906 148.50852966308594 C 416.6092224121094 140.9920196533203 415.07379150390625 135.65655517578125 412.5581970214844 131.21163940429688 C 408.530029296875 124.7994384765625 403.67913818359375 120.59624481201172 397.6553039550781 118.70684814453125" stroke-width="0.0" fill="rgb(224, 215, 228)" opacity="0.9031686" stroke="rgb(0, 0, 0)" stroke-opacity="1.0" stroke-linecap="round" stroke-linejoin="round" />
    <path d="M 387.0306396484375 283.9858703613281 C 367.01123046875 293.3407287597656 341.6229248046875 291.5856018066406 340.72802734375 296.8482360839844 C 321.35302734375 303.1836853027344 320.9563293457031 299.9140625 309.6585998535156 299.0400390625 C 300.5282897949219 328.7255859375 289.7619934082031 356.58221435546875 281.7236022949219 390.7198791503906 C 280.0384521484375 407.2353515625 275.1802062988281 427.6998596191406 275.46038818359375 445.7607116699219 C 298.464111328125 442.112060546875 302.9271545410156 452.3055725097656 319.01220703125 451.1294250488281 C 332.4685363769531 435.8499450683594 332.2082824707031 397.8952941894531 346.45794677734375 384.4428405761719 C 356.6614685058594 400.3907165527344 363.711669921875 429.5546569824219 372.0336608886719 450.57501220703125 C 398.0759582519531 444.5912780761719 397.7060546875 444.78997802734375 423.8035583496094 447.6578674316406 C 406.4427185058594 391.05548095703125 402.0859680175781 333.2261657714844 387.0306396484375 283.9858703613281" stroke-width="0.0" fill="rgb(236, 228, 237)" opacity="1.0001193" stroke="rgb(0, 0, 0)" stroke-opacity="1.0" stroke-linecap="round" stroke-linejoin="round" />
    <path d="M 118.8119125366211 308.7550964355469 C 113.15098571777344 329.6612854003906 107.91353607177734 349.56427001953125 103.86908721923828 370.012451171875 C 103.7773208618164 387.57763671875 102.8797836303711 389.5063781738281 111.2294921875 395.195068359375 C 121.13722229003906 403.5289611816406 159.29672241210938 397.3206787109375 181.61273193359375 404.6314392089844 C 192.7362060546875 397.0229187011719 203.46539306640625 395.3628845214844 210.7069549560547 395.6101989746094 C 208.40013122558594 367.53326416015625 203.5049285888672 345.4350280761719 206.39840698242188 324.4730529785156 C 196.1636505126953 316.9170837402344 190.8749542236328 315.9942321777344 176.63763427734375 313.87115478515625 C 154.35824584960938 312.8378601074219 133.34104919433594 305.5850524902344 118.8119125366211 308.7550964355469" stroke-width="0.0" fill="rgb(251, 163, 43)" opacity="0.9889918" stroke="rgb(0, 0, 0)" stroke-opacity="1.0" stroke-linecap="round" stroke-linejoin="round" />
    <path d="M 412.6997375488281 130.73794555664062 C 406.11737060546875 121.78447723388672 400.4921569824219 118.30927276611328 390.320068359375 116.37793731689453 C 369.78253173828125 114.15567779541016 362.3785095214844 119.01471710205078 350.6524353027344 126.2458724975586 C 339.8603515625 133.02049255371094 330.8133544921875 141.86195373535156 325.8448181152344 154.8525848388672 C 321.315673828125 166.70236206054688 324.25006103515625 180.74766540527344 329.2797546386719 187.52134704589844 C 330.8871154785156 191.8367919921875 339.4356689453125 193.0930938720703 341.75439453125 195.11959838867188 C 367.246826171875 198.19647216796875 383.1972961425781 199.52798461914062 389.1740417480469 195.0164794921875 C 399.26898193359375 186.2913360595703 410.2430725097656 180.17991638183594 415.7310485839844 168.3963623046875 C 420.8783874511719 156.2095184326172 417.64471435546875 135.17446899414062 412.6997375488281 130.73794555664062" stroke-width="0.0" fill="rgb(242, 178, 148)" opacity="0.9124423" stroke="rgb(0, 0, 0)" stroke-opacity="1.0" stroke-linecap="round" stroke-linejoin="round" />
    <path d="M 420.5028381347656 451.2134094238281 C 417.3684997558594 447.5669250488281 398.0649719238281 445.5514831542969 393.4361267089844 447.9595031738281 C 381.4338073730469 446.448486328125 374.5591735839844 453.580322265625 372.1701965332031 456.4358215332031 C 370.9576416015625 455.2801208496094 369.6755065917969 467.5076599121094 371.62286376953125 466.9978332519531 C 372.79693603515625 471.5992126464844 377.2639465332031 476.20013427734375 383.5930480957031 477.42822265625 C 385.7347412109375 479.0669250488281 400.9910888671875 478.1817626953125 405.1541748046875 476.7329406738281 C 409.7480773925781 474.77288818359375 415.6988220214844 472.3617248535156 418.0104064941406 468.6262512207031 C 420.9013977050781 463.7560729980469 424.51776123046875 458.7762451171875 420.5028381347656 451.2134094238281" stroke-width="0.0" fill="rgb(149, 101, 88)" opacity="1.0038228" stroke="rgb(0, 0, 0)" stroke-opacity="1.0" stroke-linecap="round" stroke-linejoin="round" />
    <path d="M 355.3255310058594 248.65589904785156 C 350.9351806640625 250.4361572265625 349.0242004394531 254.72314453125 347.9590148925781 258.746337890625 C 345.3792419433594 265.4325866699219 347.1933288574219 269.8902587890625 349.2626037597656 275.7644958496094 C 351.9427185058594 279.90155029296875 356.4286193847656 282.3220520019531 362.5329284667969 284.9670715332031 C 373.2965393066406 286.27557373046875 372.95721435546875 283.3827209472656 378.9886779785156 281.0093078613281 C 384.8365478515625 273.1759948730469 384.3441162109375 273.6918640136719 384.0950012207031 258.2421875 C 380.37933349609375 248.7871856689453 376.6065368652344 249.36434936523438 372.233154296875 246.9624786376953 C 367.4096984863281 247.47030639648438 360.5327453613281 245.78146362304688 355.3255310058594 248.65589904785156" stroke-width="0.0" fill="rgb(232, 167, 83)" opacity="1.0023052" stroke="rgb(0, 0, 0)" stroke-opacity="1.0" stroke-linecap="round" stroke-linejoin="round" />
    <path d="M 269.5870361328125 455.6509094238281 C 267.3132629394531 465.5379333496094 269.6274108886719 466.6636962890625 273.5431213378906 470.41400146484375 C 276.283447265625 472.7283020019531 281.84381103515625 474.81768798828125 290.3798828125 474.21270751953125 C 297.8251953125 474.6750793457031 307.8612060546875 469.3179931640625 310.0373229980469 464.5545959472656 C 312.27471923828125 460.55126953125 311.3820495605469 454.93109130859375 308.61260986328125 452.3595886230469 C 305.6246643066406 449.0047607421875 295.8425598144531 447.2004699707031 289.88702392578125 445.77069091796875 C 277.879150390625 446.0610656738281 272.6728820800781 447.9651184082031 269.5870361328125 455.6509094238281" stroke-width="0.0" fill="rgb(151, 104, 91)" opacity="1.0041728" stroke="rgb(0, 0, 0)" stroke-opacity="1.0" stroke-linecap="round" stroke-linejoin="round" />
    <path d="M 211.23765563964844 394.6941223144531 C 200.77200317382812 395.8966979980469 191.64462280273438 398.5900573730469 183.8861083984375 404.1621398925781 C 179.97628784179688 408.8434753417969 183.34039306640625 411.4259338378906 187.70632934570312 418.5517272949219 C 193.26644897460938 423.6458435058594 198.5720977783203 424.208984375 211.38058471679688 422.0294494628906 C 217.49147033691406 417.89642333984375 220.6964874267578 414.72955322265625 220.13265991210938 407.07281494140625 C 218.96136474609375 401.0624694824219 213.56980895996094 396.979248046875 211.23765563964844 394.6941223144531" stroke-width="0.0" fill="rgb(157, 104, 85)" opacity="0.9726947" stroke="rgb(0, 0, 0)" stroke-opacity="1.0" stroke-linecap="round" stroke-linejoin="round" />
    <path d="M 119.53949737548828 400.0127868652344 C 118.27955627441406 413.45379638671875 117.81610870361328 416.5888366699219 124.81072998046875 422.5332336425781 C 137.5130157470703 428.5283508300781 145.60853576660156 424.3516540527344 150.42916870117188 416.5075988769531 C 152.5077667236328 408.0490417480469 153.4488525390625 401.8797302246094 148.16297912597656 400.94525146484375 C 143.70635986328125 395.4930114746094 130.53221130371094 399.030517578125 119.53949737548828 400.0127868652344" stroke-width="0.0" fill="rgb(154, 106, 93)" opacity="0.9601734" stroke="rgb(0, 0, 0)" stroke-opacity="1.0" stroke-linecap="round" stroke-linejoin="round" />
    <path d="M 287.9914245605469 209.26870727539062 C 278.96771240234375 215.951416015625 274.82025146484375 219.01141357421875 276.06671142578125 230.9449005126953 C 281.5740051269531 233.29754638671875 281.865966796875 239.0238037109375 292.82763671875 237.077392578125 C 296.5271301269531 233.8235626220703 299.9150085449219 227.453125 297.3254089355469 220.23483276367188 C 295.4442443847656 214.8960723876953 287.6132507324219 214.2696990966797 287.9914245605469 209.26870727539062" stroke-width="0.0" fill="rgb(105, 79, 79)" opacity="1.051139" stroke="rgb(0, 0, 0)" stroke-opacity="1.0" stroke-linecap="round" stroke-linejoin="round" />
    <path d="M 194.3595428466797 157.1510772705078 C 189.85386657714844 150.7288818359375 183.65672302246094 155.13809204101562 183.7372589111328 171.20709228515625 C 181.71168518066406 200.31277465820312 186.58363342285156 238.02197265625 181.43067932128906 281.8123779296875 C 181.3500518798828 299.64495849609375 183.2201690673828 302.007080078125 190.10694885253906 301.3157958984375 C 197.3223876953125 296.3193664550781 194.5890655517578 284.9778137207031 196.7720184326172 268.9242858886719 C 197.3330841064453 230.79051208496094 196.84890747070312 190.48199462890625 194.3595428466797 157.1510772705078" stroke-width="0.0" fill="rgb(152, 125, 117)" opacity="1.0008694" stroke="rgb(0, 0, 0)" stroke-opacity="1.0" stroke-linecap="round" stroke-linejoin="round" />
    <path d="M 186.72816467285156 121.52202606201172 C 186.96778869628906 124.28790283203125 188.8421630859375 128.1566925048828 193.16551208496094 128.97349548339844 C 202.4107208251953 129.83099365234375 204.63795471191406 129.51318359375 205.17254638671875 123.37401580810547 C 205.51272583007812 120.60689544677734 203.45750427246094 117.48908996582031 199.0476531982422 115.98126220703125 C 194.44512939453125 114.74552154541016 187.3998565673828 117.73353576660156 186.72816467285156 121.52202606201172" stroke-width="0.0" fill="rgb(250, 118, 89)" opacity="1.0018631" stroke="rgb(0, 0, 0)" stroke-opacity="1.0" stroke-linecap="round" stroke-linejoin="round" />
    <path d="M 208.10472106933594 98.42786407470703 C 202.65696716308594 101.0047378540039 195.9597930908203 102.9341049194336 203.3482666015625 109.38583374023438 C 205.0817108154297 111.26728057861328 211.72715759277344 109.09600830078125 211.11289978027344 106.800048828125 C 214.14935302734375 103.3969955444336 211.1654815673828 101.61017608642578 208.10472106933594 98.42786407470703" stroke-width="0.0" fill="rgb(96, 70, 75)" opacity="1.0119678" stroke="rgb(0, 0, 0)" stroke-opacity="1.0" stroke-linecap="round" stroke-linejoin="round" />
    <path d="M 184.9288330078125 101.3653793334961 C 180.89541625976562 105.11637115478516 183.25677490234375 111.1110610961914 188.18844604492188 109.9728012084961 C 192.3599090576172 111.30712890625 192.33786010742188 106.95805358886719 194.1099090576172 105.23892974853516 C 194.7669677734375 99.30403900146484 185.760498046875 100.74468231201172 184.9288330078125 101.3653793334961" stroke-width="0.0" fill="rgb(99, 72, 78)" opacity="1.0099125" stroke="rgb(0, 0, 0)" stroke-opacity="1.0" stroke-linecap="round" stroke-linejoin="round" />
    <path d="M 228.20643615722656 162.43093872070312 C 231.3320770263672 185.16268920898438 224.72390747070312 207.4947967529297 230.0078582763672 220.92333984375 C 246.0524444580078 223.04678344726562 255.2858123779297 238.29180908203125 273.2332458496094 235.10916137695312 C 273.46173095703125 214.70330810546875 281.503662109375 220.31764221191406 288.7892761230469 207.12289428710938 C 271.9088134765625 190.23162841796875 249.04302978515625 185.3626251220703 228.20643615722656 162.43093872070312" stroke-width="0.0" fill="rgb(213, 180, 136)" opacity="0.82933366" stroke="rgb(0, 0, 0)" stroke-opacity="1.0" stroke-linecap="round" stroke-linejoin="round" />
    <path d="M 359.1830749511719 121.80615234375 C 355.5935974121094 123.761474609375 353.52606201171875 126.82048034667969 354.5747985839844 132.2056884765625 C 353.7789611816406 139.63461303710938 359.4702453613281 144.84857177734375 363.25823974609375 149.22178649902344 C 372.004150390625 163.794677734375 384.5386657714844 175.81800842285156 395.4706115722656 189.04962158203125 C 408.2370910644531 179.53526306152344 416.78387451171875 172.1327667236328 417.4836730957031 161.66000366210938 C 420.8372802734375 152.8087158203125 416.3171081542969 136.74990844726562 413.2040710449219 130.58432006835938 C 405.2901916503906 122.6517333984375 403.029052734375 118.43447875976562 389.38751220703125 116.01502990722656 C 375.4010009765625 114.93180847167969 367.39630126953125 116.7580337524414 359.1830749511719 121.80615234375" stroke-width="0.0" fill="rgb(237, 139, 60)" opacity="0.99588275" stroke="rgb(0, 0, 0)" stroke-opacity="1.0" stroke-linecap="round" stroke-linejoin="round" />
    <path d="M 345.6686706542969 130.26968383789062 C 334.39898681640625 136.3158721923828 328.1961364746094 144.0785369873047 323.9010925292969 157.9935302734375 C 321.29486083984375 169.03623962402344 324.2808837890625 179.31846618652344 327.273193359375 186.44833374023438 C 332.22406005859375 193.78549194335938 337.81341552734375 195.26760864257812 347.3498229980469 197.6146240234375 C 359.43878173828125 199.0240478515625 370.9954528808594 201.7803497314453 384.1159973144531 199.3345947265625 C 389.1774597167969 195.92913818359375 393.37628173828125 192.3597869873047 397.3496398925781 188.4046630859375 C 378.9568786621094 171.30690002441406 360.99261474609375 150.31619262695312 351.81732177734375 126.50901794433594 C 348.13037109375 130.07835388183594 341.39361572265625 130.7098846435547 345.6686706542969 130.26968383789062" stroke-width="0.0" fill="rgb(251, 178, 193)" opacity="0.8875752" stroke="rgb(0, 0, 0)" stroke-opacity="1.0" stroke-linecap="round" stroke-linejoin="round" />
    <path d="M 310.5802307128906 296.2690734863281 C 299.0880432128906 326.3121337890625 287.85736083984375 360.8121643066406 279.1096496582031 394.5353698730469 C 277.64935302734375 410.14654541015625 276.4292907714844 428.4256591796875 276.8093566894531 446.6959533691406 C 279.0012512207031 450.5652160644531 288.9310302734375 445.929443359375 286.9384460449219 447.45123291015625 C 300.5754699707031 445.1271057128906 310.8523254394531 451.80059814453125 311.6850280761719 457.1632080078125 C 317.28009033203125 455.9590148925781 321.7403564453125 453.36346435546875 326.1424255371094 448.67462158203125 C 330.61590576171875 437.9571838378906 334.93450927734375 400.27642822265625 345.89251708984375 382.45086669921875 C 353.9290771484375 410.8738708496094 364.7019348144531 429.01898193359375 374.0547790527344 452.1930847167969 C 389.5672912597656 446.9930725097656 402.58447265625 443.53125 422.5061950683594 449.1302490234375 C 424.9903869628906 440.5111389160156 423.38299560546875 431.8158264160156 421.1234130859375 422.0667419433594 C 401.83807373046875 383.8977966308594 405.41796875 341.8946533203125 392.7104187011719 300.1279602050781 C 391.0271911621094 297.52783203125 377.5708923339844 300.6180725097656 374.52777099609375 301.973388671875 C 376.623046875 302.9236145019531 370.73272705078125 312.9610595703125 373.71331787109375 314.7721862792969 C 380.9632263183594 353.0798645019531 384.8914489746094 394.52752685546875 395.9701232910156 433.5121765136719 C 380.84478759765625 428.83746337890625 377.8227844238281 399.1910095214844 369.9503173828125 381.85821533203125 C 362.53179931640625 360.9571533203125 364.059326171875 338.2425231933594 363.27435302734375 317.36859130859375 C 363.5453186035156 314.50616455078125 343.9127197265625 316.6141052246094 337.6084899902344 315.5660400390625 C 331.1843566894531 357.9751892089844 317.2555847167969 394.3726501464844 308.1457214355469 437.0977783203125 C 304.25103759765625 442.22418212890625 308.2917175292969 442.3370666503906 298.38519287109375 444.77337646484375 C 298.1945495605469 444.1805419921875 293.2740478515625 440.717041015625 294.07293701171875 442.58135986328125 C 294.1707763671875 418.59930419921875 295.0540466308594 392.0289306640625 301.3197326660156 368.41632080078125 C 307.5240783691406 352.0895080566406 315.2262268066406 332.72186279296875 321.8428039550781 305.95672607421875 C 317.431884765625 303.8266906738281 317.6669616699219 293.1189270019531 310.5802307128906 296.2690734863281" stroke-width="0.0" fill="rgb(226, 208, 206)" opacity="0.9385893" stroke="rgb(0, 0, 0)" stroke-opacity="1.0" stroke-linecap="round" stroke-linejoin="round" />
    </g>
</svg>