<?xml version='1.0' encoding='utf-8'?>
<svg xmlns="http://www.w3.org/2000/svg" version="1.1" width="512" height="512">
  <defs />
  <g>
    <path d="M 283.15753173828125 77.60456848144531 C 271.2425537109375 78.10918426513672 255.67050170898438 84.34786987304688 244.42123413085938 93.34146881103516 C 237.23068237304688 99.40156555175781 233.25689697265625 110.35279083251953 230.85743713378906 123.52613830566406 C 222.85987854003906 130.31471252441406 212.35438537597656 132.14443969726562 203.14584350585938 140.41685485839844 C 196.65371704101562 145.4418182373047 190.28436279296875 153.9627685546875 187.77813720703125 165.67147827148438 C 189.56797790527344 187.13526916503906 184.5727081298828 189.82424926757812 183.03988647460938 203.4976806640625 C 182.88302612304688 229.98883056640625 196.11767578125 233.2584686279297 201.55892944335938 250.45936584472656 C 196.6136932373047 272.1863708496094 183.27304077148438 292.6430969238281 181.45269775390625 324.5439758300781 C 180.0531005859375 325.329833984375 181.36431884765625 343.9847412109375 182.74349975585938 350.4996643066406 C 186.34275817871094 365.53485107421875 193.06358337402344 373.23248291015625 197.97708129882812 381.172607421875 C 200.42477416992188 393.4163513183594 198.1611328125 409.2086181640625 196.3435821533203 420.45428466796875 C 195.2360076904297 427.2617492675781 187.26951599121094 428.6916198730469 184.88369750976562 439.06146240234375 C 183.67164611816406 447.62152099609375 186.17654418945312 452.1510314941406 192.83963012695312 454.7164611816406 C 203.30056762695312 458.01336669921875 213.8500518798828 456.22210693359375 221.89149475097656 451.62884521484375 C 224.9278564453125 449.3231201171875 228.68563842773438 445.7108459472656 231.2980499267578 439.0807189941406 C 232.55905151367188 423.92205810546875 237.09742736816406 401.5353088378906 241.21096801757812 390.7734069824219 C 248.0316162109375 388.4273986816406 271.406982421875 388.52288818359375 273.5249328613281 389.02081298828125 C 277.43023681640625 413.1121520996094 271.4040222167969 428.3265686035156 263.62548828125 440.676025390625 C 266.2641906738281 451.9312744140625 271.40753173828125 453.6436462402344 281.6012878417969 455.1825256347656 C 290.72393798828125 454.4246826171875 302.47650146484375 453.624267578125 308.1053771972656 439.5195617675781 C 310.1192626953125 437.9975891113281 308.3390197753906 404.73876953125 316.75848388671875 381.1145935058594 C 324.93341064453125 375.2285461425781 330.110107421875 368.709228515625 334.35015869140625 350.2634582519531 C 335.9814147949219 314.92083740234375 342.7982482910156 276.6643371582031 342.5274353027344 246.09832763671875 C 337.88543701171875 213.4896240234375 325.65020751953125 197.9607391357422 315.0102844238281 182.70925903320312 C 311.82293701171875 176.3840789794922 316.57818603515625 162.40591430664062 313.8646240234375 154.60086059570312 C 311.7086181640625 142.23458862304688 304.9983825683594 139.412353515625 304.3349914550781 130.5605926513672 C 308.2689208984375 119.38838958740234 312.0365905761719 116.86351776123047 309.93450927734375 98.448974609375 C 306.08917236328125 87.05591583251953 301.32342529296875 81.10557556152344 283.15753173828125 77.60456848144531" stroke-width="0.0" fill="rgb(204, 151, 121)" opacity="0.7625688" stroke="rgb(0, 0, 0)" stroke-opacity="1.0" stroke-linecap="round" stroke-linejoin="round" />
    <path d="M 311.8414001464844 180.2612762451172 C 274.1236267089844 188.3080291748047 232.68380737304688 185.98779296875 190.82040405273438 184.59181213378906 C 186.0986785888672 182.30612182617188 182.46484375 200.80796813964844 183.76499938964844 212.5552215576172 C 186.7042694091797 233.86573791503906 201.25830078125 239.073486328125 201.3218536376953 252.8618927001953 C 191.58932495117188 281.4859619140625 181.024658203125 302.4656982421875 181.10260009765625 337.1156311035156 C 181.95428466796875 356.72723388671875 189.1166229248047 370.9705505371094 200.2076873779297 381.5568542480469 C 222.3546905517578 389.24383544921875 241.1872100830078 389.7567138671875 275.9175720214844 387.8782958984375 C 288.0243225097656 384.9488830566406 302.48797607421875 384.36083984375 311.06060791015625 384.2224426269531 C 320.07763671875 379.7547912597656 326.18365478515625 373.9226379394531 332.0865173339844 359.8756103515625 C 336.612060546875 339.6740417480469 336.8535461425781 291.459716796875 342.96490478515625 259.3306579589844 C 341.5808410644531 233.5420379638672 337.3743591308594 224.19961547851562 334.7275695800781 216.24049377441406 C 328.2526550292969 203.18368530273438 321.3525390625 189.5945587158203 311.8414001464844 180.2612762451172" stroke-width="0.0" fill="rgb(163, 85, 29)" opacity="0.8739462" stroke="rgb(0, 0, 0)" stroke-opacity="1.0" stroke-linecap="round" stroke-linejoin="round" />
    <path d="M 312.2801208496094 110.74417877197266 C 307.9207763671875 78.29283905029297 294.1361083984375 78.09983825683594 277.1011047363281 77.83872985839844 C 262.9971923828125 79.94783782958984 253.49703979492188 86.32936096191406 245.27452087402344 91.26484680175781 C 234.88209533691406 98.98843383789062 233.3881378173828 111.63760375976562 228.78526306152344 125.71853637695312 C 214.3914337158203 132.1333465576172 201.38624572753906 138.76419067382812 193.0936737060547 151.46815490722656 C 188.73336791992188 159.4087371826172 184.58956909179688 171.89028930664062 188.66659545898438 183.3895263671875 C 231.3279266357422 186.73158264160156 277.5384521484375 186.30276489257812 314.4938049316406 179.5050506591797 C 317.7789001464844 136.2020721435547 296.1352844238281 140.13287353515625 312.2801208496094 110.74417877197266" stroke-width="0.0" fill="rgb(250, 191, 175)" opacity="0.7888632" stroke="rgb(0, 0, 0)" stroke-opacity="1.0" stroke-linecap="round" stroke-linejoin="round" />
    <path d="M 198.867919921875 380.9994812011719 C 199.52015686035156 397.6210021972656 198.60279846191406 405.83856201171875 196.16561889648438 423.07952880859375 C 209.1145477294922 421.1966552734375 223.9313201904297 422.6351318359375 231.1476593017578 429.8914794921875 C 236.7954559326172 416.65155029296875 235.55126953125 397.3838806152344 242.6675567626953 388.9470520019531 C 229.62655639648438 386.94329833984375 211.92591857910156 386.6669616699219 198.867919921875 380.9994812011719" stroke-width="0.0" fill="rgb(172, 146, 144)" opacity="0.8926691" stroke="rgb(0, 0, 0)" stroke-opacity="1.0" stroke-linecap="round" stroke-linejoin="round" />
    <path d="M 315.34222412109375 382.6579895019531 C 302.1468811035156 383.147705078125 287.2178039550781 385.447021484375 274.6552734375 388.54852294921875 C 275.7177734375 399.2778625488281 273.5195617675781 410.05694580078125 273.957763671875 421.9601135253906 C 284.9159240722656 420.5760803222656 298.802734375 420.076171875 308.121337890625 425.8993225097656 C 309.95330810546875 411.5316162109375 312.2705993652344 397.3863525390625 315.34222412109375 382.6579895019531" stroke-width="0.0" fill="rgb(184, 160, 160)" opacity="0.89475334" stroke="rgb(0, 0, 0)" stroke-opacity="1.0" stroke-linecap="round" stroke-linejoin="round" />
    <path d="M 185.12017822265625 436.11370849609375 C 182.28855895996094 445.5272521972656 185.35459899902344 449.2083740234375 189.44432067871094 453.33648681640625 C 195.5006561279297 456.4145812988281 200.9616241455078 456.6861572265625 209.13616943359375 455.9012756347656 C 220.3013153076172 454.3516845703125 223.61463928222656 450.5714416503906 228.89369201660156 444.4538269042969 C 231.02325439453125 439.7409973144531 233.3006134033203 437.1180114746094 231.94764709472656 430.7394104003906 C 226.44683837890625 423.07440185546875 212.0352325439453 420.6665954589844 196.6298370361328 422.886962890625 C 194.79554748535156 423.9986267089844 188.6367950439453 429.9706115722656 185.12017822265625 436.11370849609375" stroke-width="0.0" fill="rgb(59, 36, 40)" opacity="1.0047773" stroke="rgb(0, 0, 0)" stroke-opacity="1.0" stroke-linecap="round" stroke-linejoin="round" />
    <path d="M 263.8836364746094 437.5517883300781 C 262.6844177246094 443.7686767578125 266.154296875 450.9898681640625 269.710693359375 451.32684326171875 C 276.5124816894531 455.4742736816406 276.2314758300781 453.779052734375 290.0545349121094 454.129150390625 C 298.3172302246094 452.2117004394531 302.1845703125 448.8994445800781 305.7727966308594 444.78448486328125 C 307.0230712890625 442.1199951171875 308.28680419921875 436.6881408691406 309.1436462402344 433.47802734375 C 307.6104431152344 427.4009704589844 307.9305114746094 426.7182922363281 304.5785827636719 423.9651184082031 C 295.4063720703125 420.18756103515625 285.7266845703125 420.7760314941406 276.25030517578125 421.3958740234375 C 270.791748046875 422.17547607421875 265.7939453125 429.91656494140625 263.8836364746094 437.5517883300781" stroke-width="0.0" fill="rgb(57, 36, 42)" opacity="0.9522923" stroke="rgb(0, 0, 0)" stroke-opacity="1.0" stroke-linecap="round" stroke-linejoin="round" />
    <path d="M 187.71429443359375 166.85247802734375 C 185.43768310546875 170.7676544189453 187.16009521484375 178.63534545898438 188.5924072265625 183.85549926757812 C 212.46286010742188 187.51478576660156 237.7787628173828 186.7036895751953 266.2926330566406 185.89991760253906 C 287.4090576171875 185.15438842773438 296.2531433105469 181.9889373779297 312.2479553222656 178.96734619140625 C 313.4498596191406 175.1829833984375 315.0622863769531 167.3889617919922 314.1308288574219 160.61541748046875 C 314.4467468261719 154.31317138671875 312.2804870605469 146.11724853515625 308.7699890136719 142.34840393066406 C 305.63427734375 136.39376831054688 299.8979187011719 132.17933654785156 291.8778991699219 129.7476348876953 C 280.6646728515625 124.67880249023438 264.87725830078125 124.50468444824219 241.0715789794922 125.0650405883789 C 224.47085571289062 125.42284393310547 213.5062713623047 132.87440490722656 203.41395568847656 140.37765502929688 C 195.40553283691406 146.82916259765625 189.40049743652344 155.97344970703125 187.71429443359375 166.85247802734375" stroke-width="0.0" fill="rgb(249, 84, 48)" opacity="0.9102295" stroke="rgb(0, 0, 0)" stroke-opacity="1.0" stroke-linecap="round" stroke-linejoin="round" />
    <path d="M 310.28656005859375 96.12674713134766 C 307.2299499511719 86.03619384765625 299.5572814941406 80.59549713134766 292.74859619140625 78.68624114990234 C 279.3448791503906 75.00787353515625 275.76763916015625 77.60221099853516 265.7422180175781 80.1792221069336 C 254.53562927246094 84.52400970458984 245.4705047607422 88.55422973632812 238.99227905273438 98.16184997558594 C 233.98358154296875 103.6453857421875 232.4501190185547 114.15355682373047 229.12496948242188 125.5472183227539 C 242.97010803222656 124.00277709960938 258.8424987792969 122.94207000732422 267.7093505859375 124.82550811767578 C 283.8314514160156 124.68788146972656 295.8147888183594 130.29493713378906 304.6009216308594 134.14830017089844 C 307.3177185058594 122.57074737548828 315.96710205078125 108.97749328613281 310.28656005859375 96.12674713134766" stroke-width="0.0" fill="rgb(249, 225, 226)" opacity="1.0631391" stroke="rgb(0, 0, 0)" stroke-opacity="1.0" stroke-linecap="round" stroke-linejoin="round" />
    <path d="M 210.76844787597656 260.1825256347656 C 212.04739379882812 267.97027587890625 215.25840759277344 268.4312438964844 224.1516876220703 271.1112976074219 C 230.16246032714844 272.3779602050781 237.9416961669922 268.9285888671875 239.51780700683594 261.784912109375 C 237.73565673828125 257.662109375 233.05575561523438 252.8503875732422 230.12200927734375 251.194580078125 C 221.29136657714844 249.7128143310547 214.75904846191406 254.06593322753906 210.76844787597656 260.1825256347656" stroke-width="0.0" fill="rgb(79, 46, 34)" opacity="1.0008341" stroke="rgb(0, 0, 0)" stroke-opacity="1.0" stroke-linecap="round" stroke-linejoin="round" />
    <path d="M 209.5111541748047 290.5111083984375 C 203.2903594970703 301.0352783203125 204.85252380371094 302.0289001464844 210.9763946533203 307.3930358886719 C 221.2532196044922 310.32537841796875 226.62112426757812 310.8004150390625 230.30874633789062 303.6982116699219 C 233.35989379882812 298.5290832519531 231.47117614746094 295.52001953125 227.4937744140625 292.0867004394531 C 218.8271026611328 287.5602111816406 221.51722717285156 288.6792907714844 209.5111541748047 290.5111083984375" stroke-width="0.0" fill="rgb(86, 49, 35)" opacity="1.0005754" stroke="rgb(0, 0, 0)" stroke-opacity="1.0" stroke-linecap="round" stroke-linejoin="round" />
    <path d="M 206.7247772216797 336.4515380859375 C 207.68966674804688 342.61962890625 205.2549285888672 343.7850036621094 208.35589599609375 346.2286071777344 C 215.25216674804688 351.89093017578125 225.69642639160156 347.0329284667969 226.15957641601562 341.57330322265625 C 226.00732421875 338.02587890625 227.13092041015625 335.02783203125 223.91162109375 333.6355895996094 C 211.00497436523438 330.2013854980469 211.74610900878906 331.5547790527344 206.7247772216797 336.4515380859375" stroke-width="0.0" fill="rgb(84, 46, 30)" opacity="1.0018582" stroke="rgb(0, 0, 0)" stroke-opacity="1.0" stroke-linecap="round" stroke-linejoin="round" />
    </g>
</svg>