<?xml version='1.0' encoding='utf-8'?>
<svg xmlns="http://www.w3.org/2000/svg" version="1.1" width="512" height="512">
  <defs />
  <g>
    <path d="M 295.6338806152344 57.26749038696289 C 294.8121032714844 60.15507507324219 286.18377685546875 69.14448547363281 281.3750305175781 84.38993835449219 C 277.05157470703125 97.04395294189453 277.8777770996094 120.772216796875 271.9711608886719 143.0484619140625 C 259.7949523925781 151.4017333984375 266.22869873046875 163.78941345214844 254.9237823486328 179.927978515625 C 247.1523895263672 197.52935791015625 247.1072235107422 213.03756713867188 243.84034729003906 232.0831756591797 C 247.6853790283203 243.33323669433594 257.2144775390625 256.5273742675781 262.06439208984375 270.1311340332031 C 263.23480224609375 283.277099609375 256.4180603027344 286.918212890625 253.7176055908203 293.147216796875 C 246.94337463378906 351.0228271484375 237.4700469970703 396.9884948730469 238.1903839111328 461.0087890625 C 240.84088134765625 465.5785827636719 243.9972686767578 469.0321960449219 252.1466064453125 470.96636962890625 C 260.1720886230469 473.7750549316406 276.6241760253906 466.12200927734375 273.45477294921875 451.4047546386719 C 299.1900634765625 420.2964782714844 299.7513732910156 360.1437072753906 321.5876770019531 315.87799072265625 C 329.1304626464844 317.0222473144531 331.5575256347656 330.0736999511719 333.02703857421875 339.3402404785156 C 341.30682373046875 374.76727294921875 341.36749267578125 412.9870910644531 349.0912780761719 447.7345275878906 C 352.1629333496094 454.4137268066406 358.6281433105469 457.46209716796875 368.6172790527344 457.8766784667969 C 376.9728088378906 456.0700378417969 383.6591796875 454.9664306640625 383.9378356933594 444.6221008300781 C 386.92852783203125 366.03216552734375 382.6206359863281 294.0253601074219 389.07550048828125 244.59921264648438 C 385.056884765625 199.55528259277344 380.1729736328125 189.5417022705078 370.7020568847656 172.4862518310547 C 360.7137451171875 159.16432189941406 347.9167785644531 146.5431671142578 335.9189147949219 121.81741333007812 C 337.3683776855469 95.4881362915039 335.4980773925781 81.95619201660156 326.9505920410156 60.65636444091797 C 316.8096008300781 56.67735290527344 304.43902587890625 54.96387481689453 295.6338806152344 57.26749038696289" stroke-width="0.0" fill="rgb(223, 188, 201)" opacity="0.75533086" stroke="rgb(0, 0, 0)" stroke-opacity="1.0" stroke-linecap="round" stroke-linejoin="round" />
    <path d="M 171.23472595214844 88.85792541503906 C 156.96878051757812 90.55618286132812 152.52874755859375 95.98157501220703 142.56382751464844 108.56947326660156 C 130.58021545410156 136.96876525878906 116.82177734375 168.82948303222656 103.77782440185547 203.57449340820312 C 91.07420349121094 215.75274658203125 76.43472290039062 232.78428649902344 71.87126922607422 250.06607055664062 C 69.42625427246094 258.5563659667969 73.1589126586914 262.5177001953125 74.86894226074219 266.61224365234375 C 85.09488677978516 283.0400085449219 101.25360107421875 282.3704528808594 112.13316345214844 293.73974609375 C 108.51174926757812 338.71527099609375 99.28311920166016 375.6294860839844 102.27461242675781 427.7386169433594 C 103.66954803466797 430.2875061035156 103.43064880371094 439.2612609863281 105.95677185058594 439.58770751953125 C 109.59349060058594 447.49334716796875 119.36386108398438 447.9964904785156 124.0621566772461 453.0359191894531 C 120.57260131835938 456.95281982421875 117.93797302246094 458.29376220703125 116.7323226928711 468.0523681640625 C 120.87238311767578 466.4183654785156 116.93669128417969 473.14678955078125 123.14389038085938 475.06536865234375 C 137.56578063964844 475.1845397949219 141.4436492919922 474.5518493652344 148.11805725097656 468.9515686035156 C 155.89535522460938 459.1618957519531 154.41050720214844 450.9627685546875 153.38844299316406 446.90240478515625 C 157.2701416015625 440.7288513183594 166.3396759033203 442.42645263671875 168.00314331054688 447.7574768066406 C 166.94772338867188 460.47503662109375 170.828369140625 460.4255065917969 177.1766357421875 468.3373107910156 C 185.21090698242188 472.2283020019531 199.44752502441406 474.5904235839844 206.8530731201172 468.9197692871094 C 211.4007568359375 461.1748352050781 202.767578125 455.06658935546875 198.30599975585938 449.2089538574219 C 206.70391845703125 440.0513610839844 212.0215606689453 441.0502624511719 213.1016387939453 421.1957092285156 C 213.49801635742188 364.94488525390625 202.61631774902344 309.6331481933594 202.9541778564453 248.18057250976562 C 219.21942138671875 258.6529846191406 228.9684600830078 281.2855529785156 245.39222717285156 290.88311767578125 C 252.62327575683594 289.2451477050781 258.9949645996094 283.0936279296875 259.3243713378906 272.8073425292969 C 258.9031677246094 262.7237854003906 250.6202850341797 252.49681091308594 244.59762573242188 239.54647827148438 C 233.14840698242188 224.20950317382812 221.2134552001953 209.21881103515625 210.05874633789062 195.74111938476562 C 205.5442352294922 164.42379760742188 201.6881103515625 131.53636169433594 194.22947692871094 108.87845611572266 C 188.2711944580078 96.22021484375 186.18846130371094 92.78915405273438 171.23472595214844 88.85792541503906" stroke-width="0.0" fill="rgb(185, 142, 93)" opacity="0.90421563" stroke="rgb(0, 0, 0)" stroke-opacity="1.0" stroke-linecap="round" stroke-linejoin="round" />
    <path d="M 296.0090637207031 32.3519287109375 C 292.1049499511719 36.319847106933594 289.8896789550781 46.772708892822266 294.14398193359375 57.16177749633789 C 310.1934509277344 55.02079391479492 319.0919189453125 57.25556182861328 328.8145446777344 62.877384185791016 C 335.1463928222656 55.69008255004883 338.5042724609375 48.30204391479492 338.315673828125 39.20147705078125 C 335.3394775390625 32.83738708496094 333.1673278808594 29.580141067504883 329.35736083984375 27.239408493041992 C 323.83062744140625 23.240510940551758 320.09619140625 23.879310607910156 317.7429504394531 22.77589988708496 C 304.67962646484375 23.791851043701172 301.2494812011719 26.5048885345459 296.0090637207031 32.3519287109375" stroke-width="0.0" fill="rgb(238, 198, 242)" opacity="0.9767206" stroke="rgb(0, 0, 0)" stroke-opacity="1.0" stroke-linecap="round" stroke-linejoin="round" />
    <path d="M 298.3919982910156 58.35946273803711 C 291.3947448730469 63.560699462890625 286.23321533203125 72.9609146118164 280.98321533203125 85.5277328491211 C 278.05279541015625 95.17984771728516 278.1989440917969 119.09271240234375 271.75439453125 144.01182556152344 C 262.0675048828125 145.31121826171875 263.97906494140625 173.39834594726562 251.45941162109375 189.01605224609375 C 247.94374084472656 208.16790771484375 245.82286071777344 221.76234436035156 244.63734436035156 232.64712524414062 C 250.84466552734375 246.78302001953125 257.9620361328125 257.7214050292969 261.56243896484375 268.3908996582031 C 263.888916015625 294.52777099609375 250.62310791015625 284.51019287109375 253.42144775390625 301.0614318847656 C 274.733154296875 298.89410400390625 295.03363037109375 302.0938720703125 316.80743408203125 301.137939453125 C 342.59271240234375 300.3671875 362.5369567871094 296.4723815917969 386.33099365234375 291.53765869140625 C 387.3293151855469 283.7970275878906 388.2935791015625 257.6238708496094 387.9891662597656 243.13540649414062 C 386.3979797363281 220.3173065185547 384.10430908203125 203.9407501220703 377.4583435058594 188.5223388671875 C 369.78790283203125 166.53465270996094 348.50262451171875 153.76165771484375 335.8793640136719 120.07878112792969 C 336.9399108886719 92.13752746582031 336.3287658691406 87.622802734375 326.50872802734375 62.785987854003906 C 318.84588623046875 60.532066345214844 316.0874938964844 55.235984802246094 298.3919982910156 58.35946273803711" stroke-width="0.0" fill="rgb(197, 162, 175)" opacity="0.99167824" stroke="rgb(0, 0, 0)" stroke-opacity="1.0" stroke-linecap="round" stroke-linejoin="round" />
    <path d="M 383.7470397949219 291.4538879394531 C 335.0071105957031 305.3741455078125 294.7901306152344 299.50701904296875 253.482666015625 301.9680480957031 C 246.75779724121094 342.094482421875 241.67613220214844 379.388671875 238.7528533935547 431.1980285644531 C 242.63746643066406 441.7927551269531 235.65296936035156 460.55816650390625 240.42904663085938 462.91741943359375 C 245.64195251464844 472.302490234375 252.8751983642578 470.3251647949219 261.7235412597656 469.87237548828125 C 266.4278259277344 469.6552734375 276.365478515625 461.7495422363281 272.61651611328125 451.9232177734375 C 298.26373291015625 423.9027099609375 299.7949523925781 361.0772705078125 321.0978088378906 316.3148498535156 C 327.3436279296875 313.1258239746094 329.2522888183594 322.5753479003906 331.5852355957031 331.94659423828125 C 341.1830139160156 373.0751953125 341.64117431640625 414.3191833496094 349.3138732910156 445.6167907714844 C 350.8071594238281 452.2759704589844 354.50933837890625 455.24456787109375 363.3265686035156 457.1833801269531 C 372.0276794433594 457.7589111328125 379.6875305175781 456.6417541503906 382.242431640625 450.4123229980469 C 386.9847412109375 397.91326904296875 384.9320983886719 356.33551025390625 383.7470397949219 291.4538879394531" stroke-width="0.0" fill="rgb(195, 159, 159)" opacity="0.8066136" stroke="rgb(0, 0, 0)" stroke-opacity="1.0" stroke-linecap="round" stroke-linejoin="round" />
    <path d="M 163.57093811035156 90.27561950683594 C 150.095947265625 94.81917572021484 143.03118896484375 106.63585662841797 137.29656982421875 120.66877746582031 C 126.63322448730469 149.7164306640625 112.40974426269531 176.60354614257812 105.78125762939453 201.1441192626953 C 107.78318786621094 218.88343811035156 109.46978759765625 221.33712768554688 118.48831176757812 226.28170776367188 C 121.40568542480469 228.3578643798828 131.92417907714844 224.58360290527344 134.29884338378906 222.35345458984375 C 140.08621215820312 217.80845642089844 142.3035888671875 212.3236083984375 143.34539794921875 203.39517211914062 C 147.06787109375 184.36953735351562 143.14683532714844 159.25921630859375 146.73928833007812 146.6920623779297 C 145.94009399414062 139.59425354003906 156.6390838623047 138.77085876464844 171.7619171142578 138.749755859375 C 167.1349334716797 141.34796142578125 172.66989135742188 138.32127380371094 172.79173278808594 140.7932586669922 C 181.13148498535156 141.69699096679688 187.8765411376953 145.6902618408203 186.9273223876953 154.48056030273438 C 184.2698211669922 175.2876739501953 175.96121215820312 196.8114776611328 178.35548400878906 229.12277221679688 C 179.6023406982422 236.7283172607422 183.0735626220703 243.38662719726562 190.84927368164062 244.26454162597656 C 199.78990173339844 242.95545959472656 200.4798583984375 236.701171875 204.0885009765625 232.25372314453125 C 205.2542724609375 223.39573669433594 207.68650817871094 214.27674865722656 209.49855041503906 196.88717651367188 C 208.27706909179688 178.7418975830078 204.77304077148438 155.70437622070312 200.40293884277344 134.72547912597656 C 198.1042022705078 119.53549194335938 194.798095703125 105.88990020751953 186.73301696777344 95.95269775390625 C 181.24993896484375 91.29497528076172 174.6157989501953 87.8105697631836 163.57093811035156 90.27561950683594" stroke-width="0.0" fill="rgb(129, 122, 124)" opacity="0.7994078" stroke="rgb(0, 0, 0)" stroke-opacity="1.0" stroke-linecap="round" stroke-linejoin="round" />
    <path d="M 211.07630920410156 196.3369598388672 C 207.32041931152344 212.5038299560547 209.1927490234375 227.5054931640625 200.88893127441406 243.78643798828125 C 216.88107299804688 259.2401428222656 228.46925354003906 277.6651306152344 243.2398681640625 289.9535827636719 C 253.14364624023438 288.1562194824219 255.93093872070312 283.1449890136719 258.1235656738281 278.3533630371094 C 259.1199645996094 271.7351989746094 256.6555480957031 258.421630859375 252.3203582763672 256.56060791015625 C 245.69485473632812 235.276123046875 226.88462829589844 219.4781036376953 211.07630920410156 196.3369598388672" stroke-width="0.0" fill="rgb(252, 202, 78)" opacity="0.9762982" stroke="rgb(0, 0, 0)" stroke-opacity="1.0" stroke-linecap="round" stroke-linejoin="round" />
    <path d="M 166.73992919921875 450.0398864746094 C 167.45538330078125 462.24468994140625 171.37098693847656 467.78082275390625 182.15431213378906 472.1981201171875 C 196.19837951660156 474.51373291015625 206.35409545898438 474.5978088378906 209.4400177001953 466.31561279296875 C 210.237060546875 459.4378356933594 201.63357543945312 450.3341369628906 195.1177978515625 447.34332275390625 C 186.15447998046875 443.91973876953125 168.22732543945312 443.4703674316406 166.73992919921875 450.0398864746094" stroke-width="0.0" fill="rgb(85, 60, 65)" opacity="0.9764324" stroke="rgb(0, 0, 0)" stroke-opacity="1.0" stroke-linecap="round" stroke-linejoin="round" />
    <path d="M 153.57931518554688 446.7496643066406 C 146.45411682128906 444.46435546875 131.16773986816406 447.76727294921875 126.24749755859375 450.6536865234375 C 119.33525848388672 456.6688232421875 112.50821685791016 461.8688659667969 117.2978286743164 472.9014892578125 C 125.2366943359375 479.19134521484375 138.0994415283203 476.95623779296875 147.1630096435547 471.6064758300781 C 152.06585693359375 464.99066162109375 156.3044891357422 461.3136901855469 153.57931518554688 446.7496643066406" stroke-width="0.0" fill="rgb(79, 56, 61)" opacity="0.9572819" stroke="rgb(0, 0, 0)" stroke-opacity="1.0" stroke-linecap="round" stroke-linejoin="round" />
    <path d="M 147.8048553466797 141.68838500976562 C 144.07308959960938 149.91409301757812 144.64166259765625 165.93267822265625 147.2067413330078 179.7408905029297 C 156.5125732421875 175.23695373535156 166.430419921875 176.75790405273438 179.18299865722656 179.32460021972656 C 183.22998046875 168.6685333251953 188.45523071289062 157.53147888183594 187.2794952392578 144.5736541748047 C 175.6744842529297 139.536865234375 157.5259246826172 136.119873046875 147.8048553466797 141.68838500976562" stroke-width="0.0" fill="rgb(164, 128, 81)" opacity="0.8335945" stroke="rgb(0, 0, 0)" stroke-opacity="1.0" stroke-linecap="round" stroke-linejoin="round" />
    <path d="M 175.2989501953125 181.6454620361328 C 166.50027465820312 180.29347229003906 149.08958435058594 180.59703063964844 149.3644256591797 182.10630798339844 C 148.7650146484375 188.62278747558594 148.0134735107422 205.69126892089844 150.01316833496094 204.69789123535156 C 145.6232452392578 218.6824188232422 137.8221435546875 223.7908477783203 130.5055389404297 229.19813537597656 C 126.78227996826172 227.00221252441406 121.06536102294922 234.3336944580078 109.3328628540039 228.7733612060547 C 117.81426239013672 233.12673950195312 119.73938751220703 233.82179260253906 126.06814575195312 233.7452850341797 C 121.87459564208984 236.2245330810547 117.92337036132812 239.21571350097656 114.67830657958984 243.60304260253906 C 123.29261779785156 244.5982666015625 122.28288269042969 255.68994140625 129.6259765625 255.60581970214844 C 129.4751434326172 257.1898498535156 132.55319213867188 264.9954833984375 131.15623474121094 266.7320251464844 C 131.30960083007812 283.125732421875 120.24224090576172 285.55389404296875 112.47171783447266 290.8685607910156 C 116.3709945678711 329.23297119140625 97.6000747680664 355.5334777832031 101.51480865478516 419.7607116699219 C 105.94937133789062 437.4501037597656 96.45796966552734 451.9183349609375 126.5656509399414 448.6366882324219 C 152.35545349121094 437.3511657714844 163.48959350585938 443.462890625 210.79702758789062 442.7554016113281 C 221.12808227539062 374.69476318359375 197.0970916748047 322.75048828125 202.1056365966797 238.18222045898438 C 202.30105590820312 249.11117553710938 195.45314025878906 250.94041442871094 189.62899780273438 250.80291748046875 C 182.96742248535156 249.51531982421875 175.4365997314453 245.66204833984375 173.97402954101562 234.79385375976562 C 172.86322021484375 218.48094177246094 178.19712829589844 192.37457275390625 175.2989501953125 181.6454620361328" stroke-width="0.0" fill="rgb(250, 180, 44)" opacity="0.8894804" stroke="rgb(0, 0, 0)" stroke-opacity="1.0" stroke-linecap="round" stroke-linejoin="round" />
    <path d="M 102.52261352539062 206.05218505859375 C 90.899658203125 213.7330322265625 84.15570831298828 222.5583953857422 76.92539978027344 232.68276977539062 C 73.49200439453125 239.97508239746094 66.19721221923828 252.7567596435547 69.6678695678711 260.857177734375 C 70.61138916015625 271.78656005859375 78.19132232666016 275.8658142089844 87.0921859741211 282.74127197265625 C 93.236572265625 286.693359375 105.41085052490234 285.2110595703125 112.90721893310547 289.4820251464844 C 121.03499603271484 286.82171630859375 125.67656707763672 283.462158203125 129.17764282226562 277.345458984375 C 131.76422119140625 274.2767028808594 131.8643341064453 267.5508117675781 129.98513793945312 257.7648010253906 C 126.63609313964844 252.99855041503906 119.01627349853516 248.4571533203125 114.24152374267578 247.6524658203125 C 109.94306182861328 244.73521423339844 115.13313293457031 232.10592651367188 115.38336181640625 229.81044006347656 C 104.23375701904297 223.94671630859375 102.60710144042969 221.18104553222656 102.52261352539062 206.05218505859375" stroke-width="0.0" fill="rgb(256, 166, 57)" opacity="0.8893158" stroke="rgb(0, 0, 0)" stroke-opacity="1.0" stroke-linecap="round" stroke-linejoin="round" />
    <path d="M 352.3938903808594 153.76100158691406 C 350.5623474121094 161.42556762695312 347.2538757324219 168.20762634277344 340.61322021484375 178.5714874267578 C 334.5447998046875 185.0510711669922 327.092041015625 191.02456665039062 313.6819763183594 194.07052612304688 C 303.1405944824219 195.2613525390625 296.3603210449219 193.37921142578125 288.3050842285156 191.07164001464844 C 271.1356506347656 185.1668701171875 268.2812805175781 174.3845672607422 262.02716064453125 168.28689575195312 C 250.6339569091797 184.80975341796875 247.69131469726562 202.74478149414062 244.41990661621094 233.43479919433594 C 247.65377807617188 241.94943237304688 257.05126953125 254.83914184570312 261.1541442871094 269.96368408203125 C 264.19537353515625 288.7386169433594 247.79396057128906 289.23126220703125 253.1027374267578 300.5879211425781 C 273.51959228515625 299.4000549316406 297.3189697265625 302.264892578125 325.3836975097656 301.5303955078125 C 341.9365539550781 297.5751037597656 359.2885437011719 291.1607360839844 385.710205078125 293.92230224609375 C 390.3631591796875 260.89251708984375 388.94158935546875 227.92495727539062 382.6882019042969 203.9625244140625 C 376.3473815917969 183.17135620117188 368.6636657714844 165.57958984375 352.3938903808594 153.76100158691406" stroke-width="0.0" fill="rgb(226, 187, 232)" opacity="1.0214994" stroke="rgb(0, 0, 0)" stroke-opacity="1.0" stroke-linecap="round" stroke-linejoin="round" />
    <path d="M 295.9277038574219 57.950279235839844 C 292.6634826660156 60.912593841552734 285.8199157714844 72.60709381103516 280.712158203125 85.50169372558594 C 274.34765625 120.36784362792969 277.6006774902344 141.93067932128906 265.75469970703125 147.9055938720703 C 256.3138427734375 172.96839904785156 272.9045104980469 179.51165771484375 280.203125 186.5887451171875 C 288.6998291015625 191.18421936035156 297.1595153808594 193.21597290039062 310.2820129394531 194.16314697265625 C 323.00469970703125 192.14739990234375 333.0209655761719 185.77584838867188 339.0959167480469 179.6605987548828 C 345.3056945800781 171.11451721191406 350.8330993652344 161.40330505371094 350.8908386230469 150.89193725585938 C 350.7912292480469 132.9156951904297 337.87152099609375 137.79537963867188 335.9272155761719 120.94229125976562 C 336.95062255859375 89.35502624511719 336.0453186035156 86.83724975585938 327.42071533203125 63.2624626159668 C 321.65863037109375 58.394569396972656 309.9353942871094 54.52613830566406 295.9277038574219 57.950279235839844" stroke-width="0.0" fill="rgb(178, 144, 119)" opacity="0.7989807" stroke="rgb(0, 0, 0)" stroke-opacity="1.0" stroke-linecap="round" stroke-linejoin="round" />
    <path d="M 308.6669006347656 304.6957092285156 C 286.1271667480469 302.9052429199219 263.5253601074219 299.3287353515625 252.88587951660156 305.6545104980469 C 245.9854736328125 349.77801513671875 238.32891845703125 394.3419494628906 239.26055908203125 443.16094970703125 C 250.9403076171875 442.5785217285156 264.40966796875 439.9736022949219 272.8612365722656 448.7601013183594 C 278.4269104003906 443.5667419433594 283.55255126953125 436.7225341796875 286.609619140625 429.2686462402344 C 299.47637939453125 394.407470703125 304.46826171875 353.241455078125 318.188720703125 319.7403259277344 C 317.5016174316406 303.43536376953125 315.87042236328125 311.51019287109375 308.6669006347656 304.6957092285156" stroke-width="0.0" fill="rgb(154, 104, 89)" opacity="0.93354046" stroke="rgb(0, 0, 0)" stroke-opacity="1.0" stroke-linecap="round" stroke-linejoin="round" />
    <path d="M 384.333740234375 296.1173095703125 C 375.5572814941406 292.6643371582031 362.6853942871094 295.115966796875 352.6216735839844 296.5961608886719 C 340.4224548339844 300.2680358886719 326.8775634765625 299.4085693359375 326.48016357421875 311.66790771484375 C 337.5472412109375 346.58917236328125 341.1697998046875 395.2294616699219 346.8036193847656 435.066162109375 C 364.4122009277344 430.90972900390625 379.95068359375 433.6819152832031 382.8529052734375 430.4131164550781 C 388.1744079589844 388.285400390625 382.8448791503906 342.2182312011719 384.333740234375 296.1173095703125" stroke-width="0.0" fill="rgb(146, 100, 87)" opacity="0.95818806" stroke="rgb(0, 0, 0)" stroke-opacity="1.0" stroke-linecap="round" stroke-linejoin="round" />
    <path d="M 239.1499786376953 446.11749267578125 C 235.65013122558594 457.5752258300781 238.2919921875 463.78778076171875 243.087890625 467.5540771484375 C 254.31016540527344 474.3631591796875 264.9808044433594 470.3962097167969 268.978515625 466.3259582519531 C 273.0565490722656 464.47021484375 275.6762390136719 449.8564758300781 272.5531005859375 447.4278869628906 C 262.5375061035156 439.8280944824219 241.07583618164062 439.8446350097656 239.1499786376953 446.11749267578125" stroke-width="0.0" fill="rgb(78, 55, 61)" opacity="0.9858503" stroke="rgb(0, 0, 0)" stroke-opacity="1.0" stroke-linecap="round" stroke-linejoin="round" />
    <path d="M 348.6728210449219 435.0979309082031 C 346.529296875 447.684814453125 351.0909423828125 453.1793212890625 356.7452087402344 455.55340576171875 C 366.0890808105469 458.2729797363281 368.76385498046875 458.79217529296875 375.948974609375 456.1968994140625 C 379.50799560546875 455.015625 382.9319152832031 452.6736145019531 384.2689208984375 444.5404357910156 C 384.0894775390625 438.2048034667969 380.9918518066406 433.66741943359375 382.2018127441406 430.2594909667969 C 367.665771484375 435.496826171875 355.7278747558594 428.86407470703125 348.6728210449219 435.0979309082031" stroke-width="0.0" fill="rgb(84, 62, 69)" opacity="0.9632974" stroke="rgb(0, 0, 0)" stroke-opacity="1.0" stroke-linecap="round" stroke-linejoin="round" />
    <path d="M 189.16726684570312 98.58734130859375 C 183.73463439941406 93.3101806640625 181.6047821044922 88.75044250488281 171.6638641357422 87.99432373046875 C 164.20042419433594 88.52191925048828 159.0174102783203 91.20234680175781 154.3150177001953 95.14131927490234 C 143.7563018798828 105.78048706054688 135.30780029296875 119.75308227539062 129.9314727783203 144.6505584716797 C 161.11317443847656 130.88702392578125 170.61572265625 142.59144592285156 200.2588348388672 140.95660400390625 C 199.87445068359375 124.34552764892578 194.77066040039062 107.63150787353516 189.16726684570312 98.58734130859375" stroke-width="0.0" fill="rgb(66, 81, 100)" opacity="0.9078521" stroke="rgb(0, 0, 0)" stroke-opacity="1.0" stroke-linecap="round" stroke-linejoin="round" />
    <path d="M 201.33982849121094 143.56393432617188 C 198.96766662597656 140.1829071044922 193.0706329345703 142.83021545410156 189.21202087402344 141.4020538330078 C 182.2672119140625 173.907958984375 175.10292053222656 193.28091430664062 177.15744018554688 231.62106323242188 C 179.25746154785156 239.3491973876953 180.9972381591797 243.36782836914062 189.05044555664062 247.3553009033203 C 195.2187957763672 247.19224548339844 197.9218292236328 244.51039123535156 200.6068572998047 240.55264282226562 C 205.11578369140625 232.97250366210938 207.57418823242188 224.70591735839844 208.224609375 211.1645965576172 C 208.18685913085938 187.3897705078125 207.07814025878906 160.56396484375 201.33982849121094 143.56393432617188" stroke-width="0.0" fill="rgb(85, 51, 42)" opacity="0.9142176" stroke="rgb(0, 0, 0)" stroke-opacity="1.0" stroke-linecap="round" stroke-linejoin="round" />
    <path d="M 142.47906494140625 141.57911682128906 C 133.96214294433594 140.22634887695312 132.1873321533203 137.5750274658203 127.005615234375 145.2516326904297 C 120.33834075927734 163.30552673339844 112.13207244873047 178.6842803955078 106.23863220214844 199.31741333007812 C 103.75061798095703 205.36415100097656 105.61429595947266 212.5653076171875 106.4940414428711 217.44578552246094 C 109.45016479492188 223.1534881591797 111.09223937988281 223.31597900390625 117.67459869384766 227.12310791015625 C 124.74949645996094 227.13796997070312 130.11830139160156 224.99412536621094 134.15802001953125 222.46197509765625 C 139.0222625732422 218.50155639648438 143.2205810546875 213.47317504882812 144.62545776367188 203.6837615966797 C 148.0305633544922 180.4678955078125 144.582275390625 157.3981170654297 142.47906494140625 141.57911682128906" stroke-width="0.0" fill="rgb(75, 48, 48)" opacity="0.92755175" stroke="rgb(0, 0, 0)" stroke-opacity="1.0" stroke-linecap="round" stroke-linejoin="round" />
    <path d="M 155.0794677734375 223.40069580078125 C 156.07012939453125 298.288818359375 150.87525939941406 369.29254150390625 150.8937530517578 441.8582763671875 C 153.99356079101562 441.634033203125 158.6914520263672 443.6453552246094 157.3917236328125 439.3736572265625 C 161.54505920410156 419.7959899902344 159.46038818359375 395.290283203125 162.40826416015625 370.4637451171875 C 160.0477752685547 318.0151062011719 170.65646362304688 256.9064636230469 155.0794677734375 223.40069580078125" stroke-width="0.0" fill="rgb(207, 150, 81)" opacity="0.9988212" stroke="rgb(0, 0, 0)" stroke-opacity="1.0" stroke-linecap="round" stroke-linejoin="round" />
    <path d="M 211.02137756347656 198.89263916015625 C 206.73394775390625 204.07595825195312 210.4260711669922 221.22267150878906 208.56959533691406 224.27655029296875 C 210.4144744873047 223.3967742919922 226.22535705566406 224.60940551757812 227.37962341308594 223.5337371826172 C 227.07533264160156 213.04844665527344 217.67710876464844 205.12481689453125 211.02137756347656 198.89263916015625" stroke-width="0.0" fill="rgb(249, 194, 75)" opacity="1.002772" stroke="rgb(0, 0, 0)" stroke-opacity="1.0" stroke-linecap="round" stroke-linejoin="round" />
    <path d="M 153.07005310058594 148.47601318359375 C 149.9983673095703 152.90771484375 153.32595825195312 155.17747497558594 155.7943572998047 157.23255920410156 C 158.5926971435547 157.0691680908203 161.8278045654297 156.62782287597656 162.13816833496094 152.18634033203125 C 161.46011352539062 148.8383331298828 158.26690673828125 146.51040649414062 153.07005310058594 148.47601318359375" stroke-width="0.0" fill="rgb(89, 56, 49)" opacity="1.004359" stroke="rgb(0, 0, 0)" stroke-opacity="1.0" stroke-linecap="round" stroke-linejoin="round" />
    <path d="M 161.14434814453125 400.9388122558594 C 161.3671417236328 416.8132629394531 158.9405059814453 434.2796936035156 161.28746032714844 442.4486999511719 C 188.50953674316406 435.2103271484375 198.77496337890625 450.41455078125 212.1392364501953 439.4571838378906 C 215.0863037109375 429.5644836425781 212.17347717285156 412.5672302246094 208.74398803710938 403.7317810058594 C 197.45504760742188 399.64013671875 178.94754028320312 401.17071533203125 161.14434814453125 400.9388122558594" stroke-width="0.0" fill="rgb(250, 185, 53)" opacity="0.97402674" stroke="rgb(0, 0, 0)" stroke-opacity="1.0" stroke-linecap="round" stroke-linejoin="round" />
    <path d="M 243.50668334960938 237.59503173828125 C 239.79685974121094 253.96456909179688 240.64674377441406 281.4070739746094 235.7200164794922 281.17718505859375 C 231.746337890625 279.3756408691406 236.480712890625 295.3074035644531 239.09408569335938 295.6957092285156 C 250.60693359375 296.8648681640625 254.9234161376953 287.85888671875 260.51318359375 283.0530090332031 C 263.0970153808594 274.0331115722656 262.60516357421875 271.5687255859375 259.8720703125 264.40997314453125 C 256.5167541503906 254.41702270507812 249.99159240722656 247.0788116455078 243.50668334960938 237.59503173828125" stroke-width="0.0" fill="rgb(232, 184, 120)" opacity="0.8599639" stroke="rgb(0, 0, 0)" stroke-opacity="1.0" stroke-linecap="round" stroke-linejoin="round" />
    </g>
</svg>