<?xml version='1.0' encoding='utf-8'?>
<svg xmlns="http://www.w3.org/2000/svg" version="1.1" width="512" height="512">
  <defs />
  <g>
    <path d="M 352.54931640625 199.296875 C 331.82891845703125 197.14260864257812 329.4029846191406 199.8729705810547 317.18634033203125 207.30990600585938 C 310.6025085449219 212.67457580566406 304.9341125488281 221.8266143798828 302.6646423339844 229.95018005371094 C 299.3431396484375 242.67608642578125 301.09039306640625 255.97091674804688 301.02825927734375 259.35650634765625 C 290.9607849121094 271.2052307128906 265.96832275390625 272.2608642578125 252.18092346191406 277.55816650390625 C 246.69737243652344 280.52197265625 242.69281005859375 284.4866943359375 244.02481079101562 291.541015625 C 243.3053436279297 295.85101318359375 246.68069458007812 300.83282470703125 251.3094482421875 302.81298828125 C 265.4622497558594 309.31964111328125 281.88458251953125 300.3305969238281 290.2852478027344 305.8204650878906 C 291.5519714355469 326.54541015625 284.5193176269531 365.4960021972656 289.9736328125 381.1510925292969 C 303.7950744628906 391.141845703125 300.0617980957031 399.1261291503906 309.1168212890625 417.3017578125 C 310.9730529785156 420.4941711425781 315.7479248046875 423.9931640625 320.8941345214844 424.5432434082031 C 327.2269592285156 424.2494812011719 331.3050842285156 420.8995361328125 332.36627197265625 418.7622375488281 C 340.7657470703125 402.5956115722656 341.5147705078125 384.80767822265625 339.5783386230469 388.1419677734375 C 346.48516845703125 382.2834777832031 350.48663330078125 383.6423645019531 353.9657897949219 385.7100524902344 C 356.617431640625 395.8404541015625 358.4405212402344 407.18817138671875 365.1252746582031 415.78057861328125 C 368.35833740234375 420.51568603515625 381.19903564453125 425.46356201171875 386.0662536621094 414.88385009765625 C 392.9820251464844 403.4261169433594 377.4974670410156 389.5210266113281 389.49578857421875 369.0057373046875 C 391.8688049316406 345.428466796875 383.4433898925781 328.4385986328125 385.62493896484375 311.4007263183594 C 395.5025634765625 311.5815124511719 398.00238037109375 324.8554382324219 414.70953369140625 328.3428649902344 C 422.2286376953125 327.2327575683594 424.7078857421875 327.8045959472656 426.09686279296875 320.323486328125 C 427.4097595214844 314.27264404296875 422.9908752441406 307.0364990234375 419.21282958984375 301.6939697265625 C 407.0296325683594 284.74420166015625 393.3885192871094 269.8834533691406 379.06463623046875 257.7799377441406 C 379.6712341308594 234.7431640625 384.23358154296875 230.12945556640625 376.13385009765625 214.75674438476562 C 370.76141357421875 207.80921936035156 362.4303283691406 201.25172424316406 352.54931640625 199.296875" stroke-width="0.0" fill="rgb(233, 198, 114)" opacity="0.7976695" stroke="rgb(0, 0, 0)" stroke-opacity="1.0" stroke-linecap="round" stroke-linejoin="round" />
    <path d="M 182.7941436767578 253.35328674316406 C 180.0506134033203 250.21214294433594 166.61988830566406 251.25564575195312 164.8631591796875 252.60873413085938 C 157.61380004882812 254.6529541015625 150.7615203857422 258.9668273925781 146.7583770751953 267.66680908203125 C 141.59957885742188 286.926025390625 137.03256225585938 308.55340576171875 126.55745697021484 329.8608703613281 C 116.78691864013672 362.6821594238281 127.26528930664062 370.3240966796875 116.08690643310547 400.9866638183594 C 111.81269836425781 421.87884521484375 115.71282196044922 425.7214660644531 126.4725570678711 429.1311340332031 C 131.68865966796875 430.66790771484375 138.76329040527344 426.6200256347656 140.4697723388672 423.8087158203125 C 150.5054473876953 412.9197998046875 152.73316955566406 394.3017578125 163.86981201171875 391.6982727050781 C 172.7113037109375 393.5574645996094 173.2850341796875 409.029541015625 178.3717803955078 417.99432373046875 C 182.6597442626953 426.1204833984375 195.06436157226562 427.2413635253906 200.50209045410156 422.906982421875 C 205.77723693847656 418.2870178222656 206.62298583984375 420.0877380371094 208.29037475585938 404.50286865234375 C 207.34014892578125 398.52178955078125 205.1433868408203 371.2179260253906 209.19947814941406 364.9169616699219 C 225.61045837402344 367.3892822265625 228.898193359375 368.9989929199219 234.65982055664062 354.921630859375 C 228.87930297851562 321.8456115722656 205.32998657226562 307.26031494140625 200.50653076171875 274.1072998046875 C 195.37808227539062 261.6016845703125 190.50057983398438 256.1647033691406 182.7941436767578 253.35328674316406" stroke-width="0.0" fill="rgb(221, 187, 134)" opacity="0.77445024" stroke="rgb(0, 0, 0)" stroke-opacity="1.0" stroke-linecap="round" stroke-linejoin="round" />
    <path d="M 375.7747497558594 256.3997497558594 C 353.025390625 259.73345947265625 326.7411804199219 262.5657043457031 305.1392822265625 258.7545471191406 C 283.1706848144531 275.4689636230469 256.1272277832031 272.203857421875 246.02671813964844 281.8603210449219 C 241.03419494628906 291.374755859375 245.74761962890625 300.8615417480469 250.44664001464844 301.9062805175781 C 259.22442626953125 306.88330078125 277.165771484375 302.6246337890625 290.3924865722656 303.756591796875 C 291.7272644042969 320.66998291015625 287.0673828125 349.5279541015625 288.0312194824219 371.6430969238281 C 288.5887451171875 377.824462890625 292.68267822265625 386.0947570800781 299.16314697265625 388.576416015625 C 332.1669921875 390.0491943359375 355.53765869140625 381.7591857910156 385.90277099609375 375.86920166015625 C 395.1288146972656 356.8772888183594 383.4507141113281 337.4584655761719 385.2706604003906 308.82916259765625 C 392.77587890625 312.5275573730469 399.3952941894531 321.37811279296875 408.51751708984375 326.1649475097656 C 420.9435729980469 328.6151428222656 423.0362548828125 326.20135498046875 424.8781433105469 324.0608215332031 C 427.4511413574219 313.4819641113281 423.00103759765625 307.3872375488281 418.25885009765625 300.8470153808594 C 406.73291015625 285.43878173828125 394.4668273925781 270.4931335449219 375.7747497558594 256.3997497558594" stroke-width="0.0" fill="rgb(252, 166, 40)" opacity="0.9622295" stroke="rgb(0, 0, 0)" stroke-opacity="1.0" stroke-linecap="round" stroke-linejoin="round" />
    <path d="M 208.1752471923828 301.9812316894531 C 190.1676025390625 307.4793701171875 163.4121856689453 319.66290283203125 137.57623291015625 310.7049865722656 C 130.072998046875 316.231689453125 127.00312805175781 329.29010009765625 124.0162124633789 341.15325927734375 C 122.03267669677734 354.91107177734375 118.94734954833984 369.329833984375 126.3730697631836 377.8323059082031 C 137.04644775390625 381.7372741699219 148.100830078125 389.855712890625 171.2517547607422 388.32708740234375 C 178.42031860351562 386.27032470703125 193.59169006347656 382.715576171875 204.72962951660156 376.7425842285156 C 206.30313110351562 359.0470275878906 217.92971801757812 353.4662780761719 231.6434783935547 344.049560546875 C 224.635986328125 328.4300231933594 219.08706665039062 315.5574951171875 208.1752471923828 301.9812316894531" stroke-width="0.0" fill="rgb(211, 127, 50)" opacity="0.9571667" stroke="rgb(0, 0, 0)" stroke-opacity="1.0" stroke-linecap="round" stroke-linejoin="round" />
    <path d="M 303.2384338378906 228.09945678710938 C 298.971435546875 245.1144561767578 301.85137939453125 248.44024658203125 302.26556396484375 264.192626953125 C 335.588134765625 259.58880615234375 346.3074645996094 253.45069885253906 377.5270690917969 261.8345031738281 C 377.1388854980469 239.23635864257812 385.2854919433594 237.20193481445312 378.32293701171875 221.44261169433594 C 375.4700012207031 210.64910888671875 365.8405456542969 204.44918823242188 356.1739807128906 199.8780517578125 C 338.8408203125 197.76580810546875 332.1947021484375 198.41053771972656 322.2179870605469 204.3054656982422 C 313.5688171386719 209.0684356689453 306.65802001953125 217.8041534423828 303.2384338378906 228.09945678710938" stroke-width="0.0" fill="rgb(241, 181, 80)" opacity="0.9470226" stroke="rgb(0, 0, 0)" stroke-opacity="1.0" stroke-linecap="round" stroke-linejoin="round" />
    <path d="M 194.44566345214844 263.3280334472656 C 190.1149139404297 256.515625 184.77806091308594 254.21209716796875 177.97364807128906 252.049072265625 C 167.31594848632812 250.6839599609375 158.7154083251953 253.7119903564453 151.41493225097656 260.86431884765625 C 144.87037658691406 268.0049133300781 141.0439910888672 291.35003662109375 135.95416259765625 309.9681396484375 C 145.69570922851562 314.010009765625 150.07180786132812 314.2820129394531 163.81002807617188 313.906005859375 C 178.45932006835938 310.7235107421875 195.91481018066406 309.3912658691406 208.57598876953125 300.9854431152344 C 201.9475860595703 287.1373291015625 201.42837524414062 270.3379821777344 194.44566345214844 263.3280334472656" stroke-width="0.0" fill="rgb(161, 125, 89)" opacity="0.8990492" stroke="rgb(0, 0, 0)" stroke-opacity="1.0" stroke-linecap="round" stroke-linejoin="round" />
    <path d="M 122.80047607421875 376.7369384765625 C 118.84278106689453 389.6684265136719 113.92070770263672 405.7570495605469 113.68782806396484 418.9618835449219 C 117.99527740478516 427.83941650390625 122.75724029541016 432.1033630371094 135.919189453125 428.0629577636719 C 146.5093536376953 422.0912780761719 149.7512969970703 404.5722961425781 160.02842712402344 390.8873596191406 C 146.3315887451172 386.7737731933594 133.18170166015625 382.82574462890625 122.80047607421875 376.7369384765625" stroke-width="0.0" fill="rgb(163, 163, 150)" opacity="0.9990154" stroke="rgb(0, 0, 0)" stroke-opacity="1.0" stroke-linecap="round" stroke-linejoin="round" />
    <path d="M 204.4664306640625 379.22235107421875 C 192.35353088378906 383.09161376953125 180.22047424316406 386.0845947265625 170.58212280273438 390.73504638671875 C 172.8765869140625 404.3827209472656 176.05368041992188 417.2981872558594 182.1335906982422 422.65850830078125 C 190.29385375976562 426.0928649902344 192.7218017578125 426.3574523925781 197.7826385498047 424.2846374511719 C 205.17550659179688 422.4158630371094 204.03668212890625 418.4293518066406 207.3203887939453 414.182861328125 C 206.77593994140625 399.6822509765625 208.32960510253906 387.9130554199219 204.4664306640625 379.22235107421875" stroke-width="0.0" fill="rgb(166, 168, 164)" opacity="0.9870834" stroke="rgb(0, 0, 0)" stroke-opacity="1.0" stroke-linecap="round" stroke-linejoin="round" />
    <path d="M 300.58050537109375 390.98004150390625 C 299.65802001953125 400.34295654296875 306.27239990234375 407.50482177734375 308.6037292480469 417.5689697265625 C 314.1324462890625 425.7629089355469 322.3626403808594 428.1929016113281 330.2406005859375 421.65606689453125 C 335.42279052734375 416.4525451660156 340.6549072265625 400.5142822265625 340.09967041015625 385.0997619628906 C 321.3824157714844 384.2493896484375 311.39923095703125 384.98931884765625 300.58050537109375 390.98004150390625" stroke-width="0.0" fill="rgb(87, 88, 85)" opacity="1.0454264" stroke="rgb(0, 0, 0)" stroke-opacity="1.0" stroke-linecap="round" stroke-linejoin="round" />
    <path d="M 355.6524353027344 383.69580078125 C 354.0400695800781 394.7135314941406 360.2481994628906 404.4847717285156 363.8235778808594 414.7551574707031 C 368.9658508300781 420.8299255371094 378.3819580078125 424.493896484375 384.7019348144531 417.82415771484375 C 391.56781005859375 409.3947448730469 384.6815185546875 399.244140625 384.73046875 379.8619384765625 C 374.4220275878906 377.9383850097656 365.3551025390625 380.1241455078125 355.6524353027344 383.69580078125" stroke-width="0.0" fill="rgb(170, 150, 124)" opacity="0.9078416" stroke="rgb(0, 0, 0)" stroke-opacity="1.0" stroke-linecap="round" stroke-linejoin="round" />
    <path d="M 230.24728393554688 343.4322814941406 C 229.67913818359375 347.2608337402344 219.38467407226562 350.1680603027344 213.79989624023438 356.6963195800781 C 213.06735229492188 359.8087463378906 205.7827911376953 360.4762268066406 214.33421325683594 366.5327453613281 C 223.42916870117188 368.58160400390625 231.93698120117188 367.79071044921875 233.39407348632812 360.95245361328125 C 238.0666046142578 356.48822021484375 233.35955810546875 342.802978515625 230.24728393554688 343.4322814941406" stroke-width="0.0" fill="rgb(118, 115, 101)" opacity="0.99064773" stroke="rgb(0, 0, 0)" stroke-opacity="1.0" stroke-linecap="round" stroke-linejoin="round" />
    <path d="M 202.172119140625 284.5036315917969 C 200.9835205078125 270.0977478027344 194.5943603515625 262.12109375 189.3811798095703 256.5413818359375 C 183.23211669921875 253.05528259277344 180.1231689453125 251.27825927734375 172.64779663085938 250.9162139892578 C 160.29273986816406 252.51727294921875 155.28717041015625 256.0716247558594 150.0547332763672 262.04522705078125 C 146.07528686523438 267.8382263183594 142.24566650390625 277.0299377441406 143.1165771484375 287.7874450683594 C 165.0388641357422 288.7298583984375 185.67001342773438 287.2044372558594 202.172119140625 284.5036315917969" stroke-width="0.0" fill="rgb(215, 128, 58)" opacity="0.93926585" stroke="rgb(0, 0, 0)" stroke-opacity="1.0" stroke-linecap="round" stroke-linejoin="round" />
    <path d="M 207.4779052734375 298.80902099609375 C 205.11573791503906 292.0097961425781 202.42706298828125 286.2038879394531 202.34432983398438 284.3270568847656 C 183.7714385986328 286.98974609375 162.98817443847656 288.8393859863281 143.6611328125 286.9708557128906 C 139.62069702148438 288.4356384277344 136.69479370117188 305.15386962890625 135.91697692871094 309.82666015625 C 141.1331329345703 314.8923034667969 149.77183532714844 315.79315185546875 167.74903869628906 314.8516540527344 C 178.66506958007812 311.6045227050781 190.76177978515625 311.58685302734375 200.26197814941406 306.2655944824219 C 203.26364135742188 303.3824768066406 207.4622802734375 304.2264099121094 207.4779052734375 298.80902099609375" stroke-width="0.0" fill="rgb(65, 66, 55)" opacity="0.9070362" stroke="rgb(0, 0, 0)" stroke-opacity="1.0" stroke-linecap="round" stroke-linejoin="round" />
    <path d="M 358.7544860839844 221.74032592773438 C 347.9647216796875 224.24307250976562 337.9915466308594 219.2279815673828 329.1669616699219 223.321533203125 C 324.8525695800781 227.55633544921875 324.9514465332031 240.14947509765625 324.26702880859375 247.4241180419922 C 327.120849609375 257.1654052734375 337.05682373046875 256.8564758300781 348.2355041503906 254.5869903564453 C 354.33221435546875 244.5855712890625 361.4879150390625 238.30841064453125 358.7544860839844 221.74032592773438" stroke-width="0.0" fill="rgb(154, 148, 133)" opacity="0.98343885" stroke="rgb(0, 0, 0)" stroke-opacity="1.0" stroke-linecap="round" stroke-linejoin="round" />
    <path d="M 384.1272277832031 380.3110046386719 C 372.23248291015625 378.4837951660156 361.2499694824219 380.921630859375 355.9642333984375 385.27911376953125 C 355.0766906738281 393.1429443359375 358.5297546386719 400.4668273925781 360.7011413574219 405.3724060058594 C 372.4158935546875 405.6150207519531 377.84808349609375 401.93023681640625 384.8494567871094 399.9832458496094 C 386.0916748046875 392.0642395019531 382.6944580078125 384.42724609375 384.1272277832031 380.3110046386719" stroke-width="0.0" fill="rgb(92, 95, 95)" opacity="0.9903503" stroke="rgb(0, 0, 0)" stroke-opacity="1.0" stroke-linecap="round" stroke-linejoin="round" />
    <path d="M 385.24090576171875 399.2834167480469 C 379.9443359375 402.0943603515625 370.58209228515625 406.1661682128906 361.7002868652344 404.92919921875 C 358.8023376464844 408.98138427734375 363.47003173828125 412.6220397949219 364.5555725097656 416.32391357421875 C 368.5783996582031 421.0390930175781 374.472412109375 425.1363525390625 382.2068176269531 421.6993713378906 C 389.4206237792969 416.6708984375 389.822265625 407.0489196777344 385.24090576171875 399.2834167480469" stroke-width="0.0" fill="rgb(232, 159, 69)" opacity="0.9764804" stroke="rgb(0, 0, 0)" stroke-opacity="1.0" stroke-linecap="round" stroke-linejoin="round" />
    <path d="M 357.26641845703125 273.7487487792969 C 350.7072448730469 268.59613037109375 343.3069763183594 270.1321105957031 336.5799255371094 269.8542175292969 C 332.0234069824219 271.45611572265625 325.4335632324219 276.1325988769531 324.16180419921875 280.7245788574219 C 322.7810363769531 294.5037536621094 322.981689453125 296.5539245605469 332.85662841796875 303.80242919921875 C 342.6408386230469 305.47882080078125 353.88421630859375 305.8932800292969 358.2740478515625 296.4773864746094 C 361.6929626464844 288.4673156738281 360.0062255859375 281.5880432128906 357.26641845703125 273.7487487792969" stroke-width="0.0" fill="rgb(252, 97, 42)" opacity="1.0001652" stroke="rgb(0, 0, 0)" stroke-opacity="1.0" stroke-linecap="round" stroke-linejoin="round" />
    <path d="M 333.368408203125 323.9565734863281 C 329.8370361328125 326.53515625 325.19683837890625 328.9584045410156 324.7120666503906 331.37786865234375 C 321.389404296875 338.95233154296875 322.23583984375 347.7585754394531 327.411865234375 352.6170349121094 C 331.3536071777344 355.4173889160156 341.87109375 357.5106506347656 347.9848327636719 355.0810852050781 C 356.4552001953125 351.65618896484375 357.5450439453125 348.1655578613281 359.0787658691406 340.7632141113281 C 359.58294677734375 336.17230224609375 356.5833435058594 331.26495361328125 354.0799255371094 327.317626953125 C 350.5865478515625 324.2368469238281 343.1841735839844 322.0123291015625 333.368408203125 323.9565734863281" stroke-width="0.0" fill="rgb(252, 98, 43)" opacity="0.9998916" stroke="rgb(0, 0, 0)" stroke-opacity="1.0" stroke-linecap="round" stroke-linejoin="round" />
    <path d="M 115.6235580444336 401.6573181152344 C 115.12025451660156 404.4801940917969 112.08241271972656 411.69891357421875 112.91659545898438 418.4792175292969 C 112.98147583007812 421.29864501953125 117.15424346923828 427.62371826171875 122.32012939453125 429.8200378417969 C 135.75106811523438 431.36053466796875 135.59886169433594 428.9757080078125 142.5110321044922 423.2690124511719 C 146.09063720703125 414.5238037109375 151.23178100585938 411.3417053222656 145.01318359375 408.68304443359375 C 136.47674560546875 403.5440368652344 127.31233978271484 399.6690368652344 115.6235580444336 401.6573181152344" stroke-width="0.0" fill="rgb(111, 120, 135)" opacity="1.0266851" stroke="rgb(0, 0, 0)" stroke-opacity="1.0" stroke-linecap="round" stroke-linejoin="round" />
    <path d="M 177.7234649658203 410.3480224609375 C 175.30654907226562 413.0190124511719 179.4829864501953 423.3507080078125 185.4777069091797 425.6961975097656 C 191.46878051757812 425.95233154296875 198.4218292236328 427.3544921875 201.78271484375 423.4798583984375 C 205.38482666015625 421.5018310546875 207.55477905273438 417.4572448730469 208.36781311035156 409.3742370605469 C 207.818115234375 406.72491455078125 205.34255981445312 406.0745849609375 200.46990966796875 403.6722717285156 C 190.84519958496094 402.5696716308594 183.3600616455078 402.15863037109375 177.7234649658203 410.3480224609375" stroke-width="0.0" fill="rgb(104, 113, 128)" opacity="1.0218061" stroke="rgb(0, 0, 0)" stroke-opacity="1.0" stroke-linecap="round" stroke-linejoin="round" />
    <path d="M 336.36346435546875 409.8265075683594 C 331.4502258300781 410.8310852050781 313.1109924316406 412.1663818359375 307.14825439453125 412.0228271484375 C 307.0916442871094 421.6934814453125 312.8354797363281 426.1630859375 321.833984375 426.69830322265625 C 331.03521728515625 425.0860900878906 335.2135314941406 420.2210388183594 336.36346435546875 409.8265075683594" stroke-width="0.0" fill="rgb(154, 123, 82)" opacity="0.85829324" stroke="rgb(0, 0, 0)" stroke-opacity="1.0" stroke-linecap="round" stroke-linejoin="round" />
    <path d="M 300.0859375 233.69554138183594 C 297.99822998046875 251.6913604736328 301.2052001953125 248.15103149414062 303.66131591796875 259.7737731933594 C 310.0497131347656 260.6991882324219 318.2480773925781 258.2046203613281 325.841064453125 257.3707580566406 C 322.6719970703125 250.4069061279297 325.75274658203125 241.90122985839844 324.8094482421875 229.8274383544922 C 328.18695068359375 222.00503540039062 338.31060791015625 218.9786376953125 341.0563049316406 214.304931640625 C 347.63995361328125 215.80184936523438 355.9100646972656 220.26809692382812 361.59375 227.69325256347656 C 358.3977966308594 237.27365112304688 353.6132507324219 247.84564208984375 345.4894104003906 256.6511535644531 C 361.38134765625 254.0299530029297 364.5208435058594 256.145751953125 375.9192199707031 256.278564453125 C 378.7062072753906 246.59336853027344 381.6316833496094 234.5423126220703 382.44842529296875 226.76686096191406 C 380.1893310546875 212.58631896972656 373.7781982421875 209.28314208984375 366.2828369140625 204.12478637695312 C 357.9804382324219 199.39712524414062 351.3019714355469 197.2921142578125 337.6835021972656 197.8231658935547 C 329.1994323730469 199.4130859375 325.1795654296875 203.2447052001953 319.2747802734375 206.1710968017578 C 311.2000427246094 213.40255737304688 304.02764892578125 221.96238708496094 300.0859375 233.69554138183594" stroke-width="0.0" fill="rgb(251, 194, 67)" opacity="0.93678075" stroke="rgb(0, 0, 0)" stroke-opacity="1.0" stroke-linecap="round" stroke-linejoin="round" />
    <path d="M 375.7582702636719 258.28997802734375 C 383.2447204589844 274.37115478515625 376.67071533203125 295.4102478027344 383.4642639160156 306.0850830078125 C 391.1085205078125 311.3171081542969 396.3280029296875 319.0620422363281 406.0064697265625 326.3526306152344 C 413.8994140625 329.7052917480469 418.6385192871094 331.0661926269531 425.3692932128906 328.0686950683594 C 433.7112121582031 322.75543212890625 428.2586975097656 315.0024108886719 423.9078674316406 306.8986511230469 C 408.5482177734375 290.6924743652344 398.5066223144531 267.4374084472656 375.7582702636719 258.28997802734375" stroke-width="0.0" fill="rgb(250, 181, 55)" opacity="0.7985607" stroke="rgb(0, 0, 0)" stroke-opacity="1.0" stroke-linecap="round" stroke-linejoin="round" />
    <path d="M 295.5521240234375 266.4730529785156 C 280.8925476074219 271.0234375 262.826904296875 270.4541931152344 248.08335876464844 276.29522705078125 C 244.63775634765625 278.1969909667969 241.23219299316406 281.5346374511719 239.99624633789062 287.2369079589844 C 238.6811065673828 290.8688049316406 241.82528686523438 294.93316650390625 243.1793975830078 298.9933776855469 C 246.49371337890625 301.35858154296875 247.2219696044922 306.156982421875 258.8615417480469 306.52801513671875 C 267.02960205078125 303.56298828125 279.03277587890625 307.2296447753906 290.8098449707031 302.4185485839844 C 292.90496826171875 290.02484130859375 290.55523681640625 277.19647216796875 295.5521240234375 266.4730529785156" stroke-width="0.0" fill="rgb(249, 181, 60)" opacity="0.88815707" stroke="rgb(0, 0, 0)" stroke-opacity="1.0" stroke-linecap="round" stroke-linejoin="round" />
    <path d="M 122.50401306152344 375.8929138183594 C 118.40292358398438 382.6440124511719 115.15019226074219 394.241943359375 113.39684295654297 406.2552795410156 C 118.47969055175781 397.7041015625 127.76105499267578 402.7637939453125 129.18800354003906 401.3888244628906 C 136.31884765625 405.0065002441406 147.44952392578125 407.3497009277344 147.7665252685547 414.3494567871094 C 152.5671844482422 410.7694091796875 156.74172973632812 401.62591552734375 161.07020568847656 392.69989013671875 C 147.1414794921875 389.32745361328125 136.03854370117188 380.40325927734375 122.50401306152344 375.8929138183594" stroke-width="0.0" fill="rgb(202, 205, 206)" opacity="0.913373" stroke="rgb(0, 0, 0)" stroke-opacity="1.0" stroke-linecap="round" stroke-linejoin="round" />
    <path d="M 205.1375274658203 377.2158508300781 C 192.31617736816406 382.1026306152344 177.1119842529297 385.49530029296875 170.2241973876953 394.1640319824219 C 171.58761596679688 398.8643798828125 172.82530212402344 408.4324645996094 177.3552703857422 411.9779968261719 C 179.94033813476562 406.7014465332031 182.55873107910156 404.67864990234375 186.7036895751953 403.7094421386719 C 190.4042510986328 402.8741149902344 201.7081756591797 402.5850830078125 208.38470458984375 408.07110595703125 C 207.22413635253906 395.41387939453125 209.40150451660156 381.28857421875 205.1375274658203 377.2158508300781" stroke-width="0.0" fill="rgb(201, 203, 204)" opacity="0.94178414" stroke="rgb(0, 0, 0)" stroke-opacity="1.0" stroke-linecap="round" stroke-linejoin="round" />
    <path d="M 330.40679931640625 222.84658813476562 C 336.89605712890625 217.9196014404297 341.7588806152344 222.78147888183594 343.69854736328125 231.6809844970703 C 345.5596923828125 224.50660705566406 351.8640441894531 221.79397583007812 357.2131652832031 222.6983184814453 C 351.6144104003906 217.73245239257812 348.6241455078125 215.11293029785156 344.80413818359375 214.40440368652344 C 339.9429016113281 212.2038116455078 337.560791015625 216.1485137939453 330.40679931640625 222.84658813476562" stroke-width="0.0" fill="rgb(243, 241, 237)" opacity="1.007727" stroke="rgb(0, 0, 0)" stroke-opacity="1.0" stroke-linecap="round" stroke-linejoin="round" />
    <path d="M 305.0950622558594 327.7201232910156 C 303.6824035644531 331.9296569824219 308.8391418457031 332.4759216308594 304.42193603515625 332.4737548828125 C 309.1502380371094 331.0674133300781 312.5126037597656 333.3692626953125 312.114013671875 329.6027526855469 C 309.23858642578125 326.58453369140625 309.3228454589844 326.1986083984375 305.0950622558594 327.7201232910156" stroke-width="0.0" fill="rgb(249, 185, 63)" opacity="0.9998066" stroke="rgb(0, 0, 0)" stroke-opacity="1.0" stroke-linecap="round" stroke-linejoin="round" />
    </g>
</svg>