<?xml version='1.0' encoding='utf-8'?>
<svg xmlns="http://www.w3.org/2000/svg" version="1.1" width="512" height="512">
  <defs />
  <g>
    <path d="M 222.9254913330078 47.5559196472168 C 213.23880004882812 50.58224868774414 204.1034393310547 63.41399383544922 198.93988037109375 76.7319107055664 C 190.58236694335938 90.99173736572266 193.7638397216797 115.8023681640625 197.21507263183594 139.50059509277344 C 184.55992126464844 153.06626892089844 167.8325958251953 164.0555419921875 158.23739624023438 181.663818359375 C 150.7986602783203 194.273681640625 147.41641235351562 207.99899291992188 148.8983154296875 225.78866577148438 C 155.99900817871094 248.137939453125 168.94583129882812 258.07452392578125 182.73287963867188 268.650634765625 C 187.2845458984375 287.29638671875 180.4936981201172 302.962158203125 186.9977264404297 333.87713623046875 C 189.8025360107422 348.35821533203125 199.81878662109375 354.3480529785156 199.48715209960938 374.9031982421875 C 203.34420776367188 392.33282470703125 201.70819091796875 414.0820617675781 202.0606231689453 423.4819641113281 C 199.6885528564453 436.9305114746094 187.74317932128906 439.10235595703125 189.73892211914062 450.3424072265625 C 190.28602600097656 455.6553039550781 200.07296752929688 457.7111511230469 206.18128967285156 457.0468444824219 C 217.93150329589844 454.4181823730469 225.2967071533203 449.1947937011719 229.63522338867188 438.51470947265625 C 236.0808868408203 424.4714050292969 233.34829711914062 394.0579528808594 239.7621307373047 366.24005126953125 C 239.6956024169922 361.84796142578125 246.1717529296875 359.9179992675781 251.09994506835938 360.2733154296875 C 258.9582824707031 363.6480712890625 257.4111022949219 363.259765625 259.84844970703125 372.26361083984375 C 261.30975341796875 386.5588073730469 261.622802734375 406.4662780761719 259.966552734375 421.339111328125 C 259.07830810546875 436.2170104980469 247.21487426757812 440.0251159667969 244.83419799804688 447.3674011230469 C 243.54129028320312 458.384033203125 251.52772521972656 457.6769104003906 261.3694763183594 458.8846740722656 C 277.17791748046875 456.57965087890625 287.5018310546875 454.16748046875 292.5690002441406 433.0246276855469 C 298.555908203125 395.63775634765625 297.3665466308594 355.20794677734375 314.50140380859375 299.1188049316406 C 314.8617248535156 297.8477783203125 330.7294616699219 296.9115295410156 337.88848876953125 283.0486145019531 C 340.71136474609375 275.99951171875 342.520751953125 264.9672546386719 340.308349609375 255.05369567871094 C 337.913818359375 226.53753662109375 332.65771484375 200.44448852539062 322.1235656738281 181.23779296875 C 316.08966064453125 169.68978881835938 308.2920227050781 160.37074279785156 299.1812744140625 152.72567749023438 C 290.461181640625 145.26409912109375 277.9158935546875 141.16934204101562 268.0747985839844 131.63702392578125 C 270.3704528808594 114.8103256225586 267.973388671875 88.46025848388672 263.0460510253906 76.94182586669922 C 258.18499755859375 65.86140441894531 252.9910430908203 56.74711990356445 245.71905517578125 50.4163818359375 C 238.7717742919922 46.36310958862305 234.5128631591797 43.73921585083008 222.9254913330078 47.5559196472168" stroke-width="0.0" fill="rgb(202, 155, 115)" opacity="0.9065334" stroke="rgb(0, 0, 0)" stroke-opacity="1.0" stroke-linecap="round" stroke-linejoin="round" />
    <path d="M 196.8385009765625 183.36019897460938 C 188.26593017578125 189.36614990234375 187.69850158691406 196.87460327148438 184.77481079101562 205.86387634277344 C 184.73101806640625 218.96177673339844 185.93101501464844 233.62973022460938 188.37298583984375 241.77293395996094 C 189.61331176757812 251.92791748046875 186.42901611328125 260.9624938964844 182.6044921875 269.71148681640625 C 185.77828979492188 275.37457275390625 182.001220703125 300.2293395996094 185.2297821044922 323.49896240234375 C 186.3223114013672 349.11688232421875 202.2458038330078 346.71405029296875 201.60911560058594 397.02789306640625 C 199.6240234375 393.02386474609375 213.71292114257812 392.42376708984375 232.27108764648438 393.0619812011719 C 241.8819580078125 387.1450500488281 234.35528564453125 365.4665222167969 242.57591247558594 360.6344299316406 C 247.1337127685547 357.2752685546875 253.10980224609375 359.2673034667969 257.89727783203125 363.7666015625 C 261.3200988769531 368.200439453125 258.6857604980469 379.64990234375 262.9733581542969 381.623779296875 C 275.0884094238281 379.6670837402344 289.7048034667969 383.30035400390625 298.6002502441406 378.8197021484375 C 298.7091979980469 349.9948425292969 311.0002746582031 338.70196533203125 312.0169982910156 293.69293212890625 C 303.1059265136719 279.68402099609375 304.9482727050781 258.0693054199219 296.1158752441406 241.9001007080078 C 299.0067443847656 237.64491271972656 291.893310546875 233.035888671875 290.355712890625 233.77662658691406 C 288.09954833984375 250.02159118652344 289.9580993652344 264.02752685546875 282.4107360839844 268.1775207519531 C 275.1156311035156 275.0656433105469 266.9167175292969 275.2972106933594 261.2989807128906 269.936279296875 C 253.7439727783203 267.07513427734375 249.85084533691406 257.7924499511719 248.00584411621094 250.0059356689453 C 243.64752197265625 228.86697387695312 238.73831176757812 206.1778106689453 231.67526245117188 187.35861206054688 C 222.68765258789062 182.84918212890625 210.71249389648438 182.2863311767578 196.8385009765625 183.36019897460938" stroke-width="0.0" fill="rgb(215, 160, 124)" opacity="0.90618056" stroke="rgb(0, 0, 0)" stroke-opacity="1.0" stroke-linecap="round" stroke-linejoin="round" />
    <path d="M 164.17654418945312 171.11474609375 C 158.6895294189453 179.01866149902344 153.00160217285156 188.0331268310547 149.97320556640625 199.2134552001953 C 148.64796447753906 207.33999633789062 146.52362060546875 216.73287963867188 149.32115173339844 228.80364990234375 C 152.53981018066406 240.0830841064453 164.1119384765625 256.44677734375 175.94815063476562 263.43231201171875 C 177.5750732421875 264.08270263671875 178.96588134765625 267.5331726074219 184.3663330078125 265.94580078125 C 187.3824005126953 261.33734130859375 187.5045623779297 256.2126159667969 189.42739868164062 248.84580993652344 C 186.39500427246094 232.83575439453125 181.77459716796875 209.4675750732422 188.12135314941406 195.7461700439453 C 191.30557250976562 189.61256408691406 192.87118530273438 186.66275024414062 195.3328399658203 184.62677001953125 C 212.09324645996094 181.54710388183594 216.2918701171875 183.88418579101562 209.70449829101562 183.99807739257812 C 226.49319458007812 183.00787353515625 232.7467041015625 187.96299743652344 234.36553955078125 198.81918334960938 C 240.66751098632812 218.890625 243.9541473388672 243.00064086914062 250.98236083984375 262.6585388183594 C 254.8804168701172 266.52301025390625 259.12213134765625 271.33392333984375 262.5779113769531 273.0334777832031 C 271.41845703125 276.4295959472656 278.1754150390625 271.4588623046875 284.5271911621094 269.3904113769531 C 286.282958984375 265.55767822265625 288.26104736328125 257.9914245605469 287.9564208984375 248.9867401123047 C 287.41192626953125 219.89254760742188 278.0975646972656 199.95257568359375 277.16168212890625 180.60401916503906 C 288.5357360839844 180.4524688720703 289.7236022949219 189.99310302734375 295.9325866699219 202.69003295898438 C 299.3862609863281 230.40904235839844 301.6379089355469 260.203369140625 309.37786865234375 287.97943115234375 C 313.3847961425781 287.6748962402344 308.9822082519531 292.5186462402344 317.5962219238281 295.7286682128906 C 325.00341796875 294.67156982421875 331.5018310546875 291.64178466796875 334.79681396484375 286.4404296875 C 337.95263671875 278.65887451171875 340.08294677734375 271.21575927734375 339.8843994140625 256.44268798828125 C 338.42364501953125 238.93359375 335.6955261230469 220.27972412109375 331.4010925292969 205.82012939453125 C 328.2771911621094 194.00540161132812 323.7464294433594 184.09683227539062 318.5779724121094 174.91220092773438 C 310.98284912109375 164.4308624267578 304.0326232910156 156.2696990966797 293.124755859375 148.93150329589844 C 284.2771301269531 143.4716033935547 275.26214599609375 136.5366973876953 265.8821105957031 133.2110595703125 C 242.70083618164062 134.94842529296875 223.8935089111328 138.4861602783203 199.3281707763672 139.5284423828125 C 186.13047790527344 149.96876525878906 173.61685180664062 159.99588012695312 164.17654418945312 171.11474609375" stroke-width="0.0" fill="rgb(176, 144, 124)" opacity="0.84278274" stroke="rgb(0, 0, 0)" stroke-opacity="1.0" stroke-linecap="round" stroke-linejoin="round" />
    <path d="M 242.15272521972656 47.5566520690918 C 230.9339599609375 44.20730209350586 224.47569274902344 46.58047866821289 218.00238037109375 49.80553436279297 C 208.54006958007812 56.20805740356445 202.15235900878906 67.10773468017578 195.77316284179688 83.2639389038086 C 192.7987518310547 98.82795715332031 192.83615112304688 123.83289337158203 197.4961700439453 137.7730255126953 C 225.5415496826172 138.02792358398438 247.34320068359375 134.04501342773438 268.6549072265625 131.43853759765625 C 269.89007568359375 109.09815979003906 268.5058288574219 89.56129455566406 262.79327392578125 76.82952880859375 C 257.4061279296875 64.030029296875 251.3704833984375 52.38874053955078 242.15272521972656 47.5566520690918" stroke-width="0.0" fill="rgb(230, 157, 136)" opacity="0.88112324" stroke="rgb(0, 0, 0)" stroke-opacity="1.0" stroke-linecap="round" stroke-linejoin="round" />
    <path d="M 298.49310302734375 381.5308532714844 C 286.2245178222656 379.3171691894531 270.32733154296875 381.1309814453125 262.7206115722656 381.8696594238281 C 258.593505859375 387.7323913574219 263.0988464355469 408.1026611328125 258.98779296875 425.5684509277344 C 258.0420227050781 435.8443298339844 248.53448486328125 438.6114807128906 244.38031005859375 446.75823974609375 C 243.46270751953125 448.6374206542969 244.2252197265625 456.4630126953125 245.9606475830078 455.5751953125 C 250.5126190185547 458.49041748046875 256.29510498046875 459.54791259765625 264.86981201171875 458.941162109375 C 276.1197509765625 456.54205322265625 283.4196472167969 454.28155517578125 289.2095642089844 444.1507263183594 C 293.6533508300781 431.7454528808594 296.87994384765625 405.6195373535156 298.49310302734375 381.5308532714844" stroke-width="0.0" fill="rgb(81, 52, 50)" opacity="0.9571087" stroke="rgb(0, 0, 0)" stroke-opacity="1.0" stroke-linecap="round" stroke-linejoin="round" />
    <path d="M 235.695068359375 392.4278259277344 C 220.57762145996094 392.79345703125 207.07447814941406 392.29815673828125 201.95777893066406 395.1585388183594 C 204.10218811035156 430.0565490722656 201.72425842285156 427.4136962890625 190.5027313232422 442.8778076171875 C 185.36537170410156 457.6992492675781 200.05795288085938 459.36614990234375 213.43809509277344 455.5906982421875 C 220.639892578125 451.4676513671875 225.9088897705078 447.4923095703125 229.62229919433594 439.58941650390625 C 234.28707885742188 430.90911865234375 234.6519012451172 408.33721923828125 235.695068359375 392.4278259277344" stroke-width="0.0" fill="rgb(80, 52, 48)" opacity="0.91303444" stroke="rgb(0, 0, 0)" stroke-opacity="1.0" stroke-linecap="round" stroke-linejoin="round" />
    <path d="M 282.91009521484375 202.40658569335938 C 286.9653015136719 197.26629638671875 285.35064697265625 204.3214111328125 287.06365966796875 202.94139099121094 C 289.5552978515625 211.8430938720703 288.67486572265625 227.02061462402344 288.5638427734375 237.89804077148438 C 282.08526611328125 228.96559143066406 285.4378967285156 211.42617797851562 282.91009521484375 202.40658569335938" stroke-width="0.0" fill="rgb(193, 151, 122)" opacity="0.997214" stroke="rgb(0, 0, 0)" stroke-opacity="1.0" stroke-linecap="round" stroke-linejoin="round" />
    <path d="M 280.72222900390625 142.3751678466797 C 281.8939208984375 141.21778869628906 274.27978515625 138.12295532226562 267.1770324707031 133.1870574951172 C 241.0116729736328 136.615966796875 217.66757202148438 139.021484375 199.45921325683594 139.37046813964844 C 179.4651641845703 156.1656494140625 163.8892364501953 168.3690643310547 155.33612060546875 189.13430786132812 C 152.05804443359375 198.40301513671875 149.7258758544922 214.31204223632812 151.16506958007812 228.0004425048828 C 152.03355407714844 236.72816467285156 156.59825134277344 240.9391326904297 160.4097900390625 247.24771118164062 C 168.0025177001953 253.8890838623047 178.1995391845703 267.0223083496094 184.92918395996094 261.5326232910156 C 193.60653686523438 237.87652587890625 184.40798950195312 224.64866638183594 181.840087890625 220.50039672851562 C 181.0266876220703 204.17698669433594 186.28305053710938 196.59890747070312 188.48204040527344 188.90863037109375 C 193.67562866210938 183.12081909179688 204.3965606689453 181.48858642578125 216.46583557128906 183.40225219726562 C 225.69131469726562 185.3817901611328 231.7263641357422 185.415283203125 236.5254364013672 200.4081268310547 C 244.65260314941406 219.4608917236328 242.7135772705078 241.94671630859375 252.6180419921875 263.1498107910156 C 255.6817626953125 265.2601318359375 260.17620849609375 272.7065734863281 264.1610412597656 272.1446228027344 C 270.9446105957031 274.9991455078125 278.618408203125 270.77325439453125 282.3199768066406 267.2133483886719 C 287.32916259765625 263.9518127441406 286.8122863769531 259.0425720214844 287.4765625 247.31256103515625 C 282.39984130859375 221.3232879638672 274.6744689941406 196.72219848632812 274.8204345703125 176.5933074951172 C 282.8177185058594 166.08021545410156 281.414306640625 154.25180053710938 280.72222900390625 142.3751678466797" stroke-width="0.0" fill="rgb(150, 142, 148)" opacity="0.9018528" stroke="rgb(0, 0, 0)" stroke-opacity="1.0" stroke-linecap="round" stroke-linejoin="round" />
    <path d="M 193.8192138671875 95.667236328125 C 193.01605224609375 108.56919860839844 194.84437561035156 128.30613708496094 199.15899658203125 137.35646057128906 C 227.5369110107422 138.5154571533203 243.41722106933594 133.43325805664062 266.07879638671875 132.37667846679688 C 272.12274169921875 121.1431884765625 266.6585693359375 102.77742767333984 267.5859069824219 97.39196014404297 C 244.6151580810547 92.75453186035156 220.2891082763672 92.31953430175781 193.8192138671875 95.667236328125" stroke-width="0.0" fill="rgb(234, 147, 120)" opacity="0.9874035" stroke="rgb(0, 0, 0)" stroke-opacity="1.0" stroke-linecap="round" stroke-linejoin="round" />
    <path d="M 194.6531219482422 87.74637603759766 C 195.01300048828125 95.65066528320312 194.30740356445312 100.75273132324219 195.3147430419922 95.27567291259766 C 222.51776123046875 93.58013153076172 249.5548858642578 92.18584442138672 267.4253845214844 98.10477447509766 C 266.81231689453125 84.46122741699219 262.08868408203125 74.81021881103516 258.6740417480469 66.87247467041016 C 252.55775451660156 57.548728942871094 249.35765075683594 49.53020095825195 238.1891326904297 45.9124755859375 C 225.58554077148438 45.04662322998047 222.33120727539062 46.395137786865234 214.14593505859375 52.073734283447266 C 206.6428985595703 60.419071197509766 198.96754455566406 72.37752532958984 194.6531219482422 87.74637603759766" stroke-width="0.0" fill="rgb(250, 87, 59)" opacity="0.9699604" stroke="rgb(0, 0, 0)" stroke-opacity="1.0" stroke-linecap="round" stroke-linejoin="round" />
    <path d="M 199.308837890625 357.4506530761719 C 199.53599548339844 369.5673828125 200.27633666992188 383.3683166503906 203.18104553222656 390.4584655761719 C 210.31015014648438 389.44818115234375 224.21995544433594 389.1696472167969 234.3668212890625 391.07135009765625 C 238.78143310546875 387.7088317871094 235.95567321777344 369.48443603515625 238.3583221435547 365.0669860839844 C 234.18075561523438 354.6788330078125 215.03482055664062 356.4698181152344 199.308837890625 357.4506530761719" stroke-width="0.0" fill="rgb(248, 182, 61)" opacity="0.94347626" stroke="rgb(0, 0, 0)" stroke-opacity="1.0" stroke-linecap="round" stroke-linejoin="round" />
    <path d="M 260.4012451171875 360.10693359375 C 257.4981689453125 363.93218994140625 261.4815368652344 374.6661376953125 260.9115905761719 381.1112976074219 C 273.7375183105469 382.4488220214844 286.6246643066406 379.1784362792969 297.10992431640625 380.23870849609375 C 299.7954406738281 373.4329528808594 299.0970458984375 363.36260986328125 300.52362060546875 356.2328796386719 C 283.667724609375 355.5340270996094 263.6233215332031 355.3151550292969 260.4012451171875 360.10693359375" stroke-width="0.0" fill="rgb(235, 167, 70)" opacity="0.95836884" stroke="rgb(0, 0, 0)" stroke-opacity="1.0" stroke-linecap="round" stroke-linejoin="round" />
    <path d="M 270.62493896484375 137.5247344970703 C 277.515625 140.12466430664062 282.1168212890625 144.89248657226562 280.9055480957031 145.16412353515625 C 281.1540832519531 157.93431091308594 280.9499206542969 169.55667114257812 276.9981689453125 171.7407684326172 C 287.3815612792969 177.69078063964844 290.5968017578125 188.2872314453125 294.0038146972656 202.11227416992188 C 300.1253662109375 230.945068359375 302.57672119140625 262.3425598144531 308.21295166015625 290.8259582519531 C 312.8780517578125 298.91424560546875 312.5985107421875 297.4464416503906 324.9049377441406 297.119384765625 C 336.3838195800781 293.0530700683594 340.4444885253906 287.1227722167969 342.53277587890625 267.6682434082031 C 340.67333984375 243.3849639892578 335.7521057128906 212.4486083984375 328.2754821777344 191.59327697753906 C 320.9912109375 174.02090454101562 312.3163757324219 163.29989624023438 300.4319763183594 152.8960723876953 C 291.5253601074219 147.04881286621094 282.6138000488281 141.4143829345703 270.62493896484375 137.5247344970703" stroke-width="0.0" fill="rgb(175, 156, 164)" opacity="0.87361866" stroke="rgb(0, 0, 0)" stroke-opacity="1.0" stroke-linecap="round" stroke-linejoin="round" />
    <path d="M 246.3944091796875 256.8197937011719 C 239.04959106445312 275.9268798828125 238.60296630859375 311.7814025878906 237.6307373046875 343.8286437988281 C 240.3400115966797 349.52020263671875 238.53909301757812 359.5803527832031 243.3276824951172 360.5091247558594 C 250.93614196777344 358.27001953125 251.7067413330078 362.88568115234375 260.5067138671875 361.9669494628906 C 259.9432067871094 340.3754577636719 257.21710205078125 313.6849365234375 258.4716796875 274.9031982421875 C 252.04795837402344 268.2007751464844 251.93182373046875 257.4314880371094 246.3944091796875 256.8197937011719" stroke-width="0.0" fill="rgb(175, 132, 117)" opacity="0.9956932" stroke="rgb(0, 0, 0)" stroke-opacity="1.0" stroke-linecap="round" stroke-linejoin="round" />
    <path d="M 240.6340789794922 448.3027038574219 C 241.75064086914062 456.2935485839844 244.14564514160156 456.7200622558594 249.41290283203125 459.243896484375 C 258.3585205078125 458.5574645996094 258.2927551269531 462.4216613769531 269.368896484375 458.44146728515625 C 277.6124572753906 455.8757019042969 282.8724365234375 454.3490295410156 287.941162109375 447.4154052734375 C 289.3935546875 442.4970703125 291.2954406738281 445.1649475097656 290.91949462890625 434.58599853515625 C 285.3569030761719 436.88568115234375 269.9457702636719 436.31243896484375 260.2722473144531 434.62213134765625 C 249.65635681152344 437.8987731933594 243.17820739746094 442.0694580078125 240.6340789794922 448.3027038574219" stroke-width="0.0" fill="rgb(81, 55, 60)" opacity="0.88392" stroke="rgb(0, 0, 0)" stroke-opacity="1.0" stroke-linecap="round" stroke-linejoin="round" />
    <path d="M 232.19667053222656 435.3807067871094 C 221.2813720703125 433.6665344238281 211.86962890625 433.646240234375 203.64816284179688 430.066650390625 C 197.91346740722656 432.41998291015625 193.92018127441406 437.47320556640625 190.33895874023438 440.9486389160156 C 188.39944458007812 445.8232116699219 188.23387145996094 451.8505859375 191.88336181640625 456.0932922363281 C 196.41798400878906 459.5126037597656 200.5039825439453 460.8829040527344 213.02078247070312 455.82916259765625 C 217.9475860595703 451.5484313964844 227.05557250976562 444.34991455078125 232.19667053222656 435.3807067871094" stroke-width="0.0" fill="rgb(81, 56, 61)" opacity="0.87177026" stroke="rgb(0, 0, 0)" stroke-opacity="1.0" stroke-linecap="round" stroke-linejoin="round" />
    <path d="M 282.31134033203125 274.3148193359375 C 280.8946533203125 277.51312255859375 274.03857421875 279.4080505371094 274.2455749511719 282.45635986328125 C 273.36065673828125 304.0897216796875 272.55963134765625 322.347900390625 272.93133544921875 347.15472412109375 C 272.89892578125 348.1748046875 289.3276062011719 352.9230041503906 294.49853515625 347.99560546875 C 293.3274841308594 325.59503173828125 289.121826171875 306.6678466796875 289.51165771484375 283.587158203125 C 287.78582763671875 277.6156005859375 283.1600036621094 276.9605407714844 282.31134033203125 274.3148193359375" stroke-width="0.0" fill="rgb(176, 132, 115)" opacity="0.9976662" stroke="rgb(0, 0, 0)" stroke-opacity="1.0" stroke-linecap="round" stroke-linejoin="round" />
    <path d="M 258.8691101074219 277.80999755859375 C 257.7342834472656 306.1619567871094 259.7848205566406 330.841064453125 261.711669921875 356.8799133300781 C 267.9405212402344 358.0390625 264.7038879394531 347.71551513671875 272.14794921875 347.3658447265625 C 271.76922607421875 326.76861572265625 272.5249328613281 307.6139221191406 273.5740051269531 290.3946228027344 C 272.26495361328125 279.052001953125 274.2159423828125 280.7075500488281 274.9425048828125 280.5726013183594 C 257.666748046875 286.74298095703125 265.07818603515625 278.1326599121094 258.8691101074219 277.80999755859375" stroke-width="0.0" fill="rgb(231, 167, 123)" opacity="0.95157105" stroke="rgb(0, 0, 0)" stroke-opacity="1.0" stroke-linecap="round" stroke-linejoin="round" />
    </g>
</svg>