<?xml version='1.0' encoding='utf-8'?>
<svg xmlns="http://www.w3.org/2000/svg" version="1.1" width="512" height="512">
  <defs />
  <g>
    <path d="M 214.14358520507812 155.9001922607422 C 203.7254180908203 155.15447998046875 187.72752380371094 155.68284606933594 182.18421936035156 155.88475036621094 C 169.73681640625 160.5576171875 159.4051513671875 165.16856384277344 147.6452178955078 168.1641082763672 C 137.08944702148438 184.33399963378906 126.26184844970703 202.5347900390625 120.65312957763672 220.3117218017578 C 119.43714904785156 223.88687133789062 119.08818817138672 235.35328674316406 121.06865692138672 236.7333526611328 C 130.30303955078125 251.7179718017578 146.72813415527344 249.7559814453125 149.7022705078125 253.63421630859375 C 158.00302124023438 258.2467041015625 154.85122680664062 278.5102844238281 159.895263671875 285.99163818359375 C 153.7367706298828 321.9242248535156 143.5592803955078 354.2190856933594 135.8341827392578 389.2552795410156 C 134.08853149414062 413.07586669921875 146.62074279785156 416.1526794433594 162.01104736328125 419.1461486816406 C 148.83448791503906 417.9262390136719 148.27398681640625 415.4688720703125 148.6333770751953 418.2774963378906 C 162.70436096191406 415.88525390625 169.0834197998047 417.7613830566406 179.54244995117188 423.92816162109375 C 178.43739318847656 427.16180419921875 174.36257934570312 431.6314392089844 171.1652069091797 434.06329345703125 C 175.88844299316406 431.02606201171875 181.063232421875 426.2452697753906 180.2561492919922 416.7454833984375 C 187.8126220703125 420.6443176269531 198.58114624023438 413.8966369628906 217.42276000976562 416.716552734375 C 228.69522094726562 412.6612548828125 236.4312744140625 407.8937072753906 242.31304931640625 400.9049072265625 C 244.8023681640625 344.2980041503906 246.7637481689453 283.7073974609375 248.87452697753906 235.2381134033203 C 243.09202575683594 209.83941650390625 241.3369140625 195.63330078125 236.51580810546875 183.9342041015625 C 230.67454528808594 171.52183532714844 222.89614868164062 164.03497314453125 214.14358520507812 155.9001922607422" stroke-width="0.0" fill="rgb(204, 154, 130)" opacity="1.0493256" stroke="rgb(0, 0, 0)" stroke-opacity="1.0" stroke-linecap="round" stroke-linejoin="round" />
    <path d="M 220.09217834472656 144.5328826904297 C 218.15017700195312 149.11277770996094 216.40826416015625 152.5249481201172 218.8072509765625 157.06362915039062 C 229.49708557128906 167.6066436767578 238.04385375976562 177.80882263183594 244.49057006835938 203.46849060058594 C 245.66598510742188 220.97494506835938 243.4652862548828 239.77703857421875 254.6190948486328 264.1892395019531 C 281.4844665527344 261.4898681640625 316.20928955078125 262.3713073730469 336.3384094238281 260.5523376464844 C 346.9944763183594 249.69007873535156 337.0838928222656 228.79498291015625 342.83953857421875 211.8594512939453 C 352.83856201171875 223.23687744140625 361.16082763671875 242.76141357421875 373.706298828125 257.6396484375 C 386.3477478027344 255.9115447998047 395.2928161621094 252.34243774414062 401.5520935058594 244.13961791992188 C 388.1628723144531 214.08924865722656 373.9090881347656 184.93487548828125 358.4914245605469 158.12454223632812 C 349.91009521484375 144.33226013183594 340.5183410644531 133.698974609375 321.2900695800781 126.37619018554688 C 313.4087219238281 119.62601470947266 285.655029296875 129.9047088623047 261.727294921875 121.34374237060547 C 239.4094696044922 124.19813537597656 227.01593017578125 133.5548095703125 220.09217834472656 144.5328826904297" stroke-width="0.0" fill="rgb(57, 72, 90)" opacity="0.9992266" stroke="rgb(0, 0, 0)" stroke-opacity="1.0" stroke-linecap="round" stroke-linejoin="round" />
    <path d="M 340.57513427734375 259.5247497558594 C 304.353271484375 263.80572509765625 266.5462951660156 264.6021728515625 250.68173217773438 259.9111633300781 C 247.30169677734375 303.0060729980469 245.5098419189453 354.74627685546875 244.50289916992188 399.7749938964844 C 250.24810791015625 412.71563720703125 248.31597900390625 426.7759704589844 257.79119873046875 431.7555236816406 C 268.0982666015625 434.7856140136719 278.7617492675781 433.71722412109375 285.8854064941406 427.9140319824219 C 291.5565490722656 418.4478454589844 292.9212341308594 411.6878662109375 299.9239501953125 406.3587341308594 C 309.5819396972656 386.6042785644531 304.18951416015625 358.6261901855469 312.5779113769531 353.69146728515625 C 328.24285888671875 373.69891357421875 339.94439697265625 402.1003112792969 361.2015380859375 425.9798583984375 C 368.8088684082031 428.3939208984375 367.7366943359375 430.7234802246094 378.2105712890625 427.3686828613281 C 382.51531982421875 424.80169677734375 386.81475830078125 423.14959716796875 389.5501708984375 415.3042907714844 C 391.50592041015625 410.4869384765625 391.6634216308594 400.9071960449219 387.2855224609375 385.9941101074219 C 376.5693664550781 365.77032470703125 363.23779296875 343.25213623046875 353.0043029785156 314.48565673828125 C 346.16461181640625 298.3455505371094 342.1947021484375 277.6078796386719 340.57513427734375 259.5247497558594" stroke-width="0.0" fill="rgb(193, 120, 56)" opacity="0.9609029" stroke="rgb(0, 0, 0)" stroke-opacity="1.0" stroke-linecap="round" stroke-linejoin="round" />
    <path d="M 260.21832275390625 62.00096130371094 C 255.07809448242188 69.90647888183594 254.2770538330078 70.95794677734375 255.03451538085938 84.54374694824219 C 257.5760498046875 95.65608978271484 258.9938659667969 108.84403228759766 262.2900390625 120.79647064208984 C 274.7539978027344 124.63553619384766 289.3416748046875 125.0923080444336 312.5783386230469 122.73741912841797 C 316.1607666015625 109.69402313232422 320.47314453125 94.59239959716797 325.537353515625 82.2309799194336 C 327.4390869140625 64.8556900024414 325.463623046875 66.51863098144531 320.343505859375 58.71783447265625 C 311.1393127441406 51.385894775390625 303.8060302734375 49.09504318237305 288.4251708984375 49.99089431762695 C 274.5157165527344 50.74820327758789 267.0721740722656 56.76115036010742 260.21832275390625 62.00096130371094" stroke-width="0.0" fill="rgb(177, 131, 128)" opacity="0.93901694" stroke="rgb(0, 0, 0)" stroke-opacity="1.0" stroke-linecap="round" stroke-linejoin="round" />
    <path d="M 211.13397216796875 102.0790023803711 C 205.812255859375 97.10633850097656 199.97377014160156 94.97750091552734 189.63412475585938 96.18026733398438 C 176.7695770263672 97.89908599853516 167.6732177734375 104.95972442626953 162.0418701171875 113.11653137207031 C 151.8076934814453 126.01680755615234 146.18101501464844 146.2785186767578 145.3871307373047 170.37088012695312 C 158.49050903320312 165.5504608154297 170.20994567871094 162.65892028808594 178.19439697265625 157.08352661132812 C 190.16709899902344 155.9315643310547 202.15757751464844 157.00086975097656 213.6329803466797 154.7599334716797 C 216.410888671875 145.4932403564453 221.8304443359375 141.00164794921875 219.89805603027344 132.9235382080078 C 218.08326721191406 116.94090270996094 218.69796752929688 108.35834503173828 211.13397216796875 102.0790023803711" stroke-width="0.0" fill="rgb(166, 104, 86)" opacity="0.9719335" stroke="rgb(0, 0, 0)" stroke-opacity="1.0" stroke-linecap="round" stroke-linejoin="round" />
    <path d="M 192.74375915527344 416.2135009765625 C 188.99610900878906 421.1992492675781 190.956787109375 432.8074645996094 194.8232421875 435.2874450683594 C 196.7786407470703 439.1811828613281 207.9296875 441.1664733886719 213.61582946777344 440.01922607421875 C 220.77117919921875 438.66192626953125 221.14752197265625 436.7726135253906 224.8157501220703 432.4811096191406 C 229.3454132080078 424.4311218261719 226.85806274414062 413.0302734375 223.08023071289062 413.8968200683594 C 218.19178771972656 418.37115478515625 203.72340393066406 413.9482421875 192.74375915527344 416.2135009765625" stroke-width="0.0" fill="rgb(152, 100, 85)" opacity="0.9974702" stroke="rgb(0, 0, 0)" stroke-opacity="1.0" stroke-linecap="round" stroke-linejoin="round" />
    <path d="M 147.04714965820312 413.9501037597656 C 143.2120819091797 420.5615234375 143.24649047851562 430.3009948730469 149.92050170898438 435.2212829589844 C 153.07164001464844 439.8684387207031 162.14462280273438 439.0081787109375 170.57789611816406 439.0241394042969 C 174.06842041015625 437.2697448730469 177.09603881835938 434.5425720214844 179.48448181152344 430.2263488769531 C 181.58822631835938 418.0952453613281 180.91598510742188 422.7582092285156 174.04725646972656 421.2391052246094 C 165.0568084716797 411.843994140625 151.2261199951172 419.5903625488281 147.04714965820312 413.9501037597656" stroke-width="0.0" fill="rgb(162, 114, 101)" opacity="1.0479443" stroke="rgb(0, 0, 0)" stroke-opacity="1.0" stroke-linecap="round" stroke-linejoin="round" />
    <path d="M 401.53411865234375 246.25027465820312 C 397.0111083984375 252.28294372558594 384.5849609375 255.43214416503906 375.2312927246094 259.0433044433594 C 377.2125549316406 266.49163818359375 382.0954284667969 273.85595703125 388.429443359375 276.3663024902344 C 398.2611083984375 281.55413818359375 403.263916015625 274.8218078613281 406.7838439941406 270.7973327636719 C 408.308837890625 260.4418029785156 405.8291320800781 253.6556396484375 401.53411865234375 246.25027465820312" stroke-width="0.0" fill="rgb(211, 148, 67)" opacity="0.9808514" stroke="rgb(0, 0, 0)" stroke-opacity="1.0" stroke-linecap="round" stroke-linejoin="round" />
    <path d="M 212.94229125976562 156.24180603027344 C 200.9639434814453 157.4299774169922 188.99884033203125 157.5479278564453 178.87998962402344 157.85203552246094 C 168.95223999023438 162.49032592773438 158.10501098632812 165.9293975830078 147.12838745117188 170.4411163330078 C 137.79466247558594 183.59869384765625 128.5106201171875 199.30787658691406 122.28655242919922 216.54278564453125 C 120.08641052246094 222.29820251464844 120.3836898803711 235.8406982421875 122.47018432617188 238.24420166015625 C 129.09881591796875 248.47406005859375 141.66973876953125 248.43568420410156 151.40101623535156 252.5435791015625 C 157.89686584472656 261.90966796875 155.36119079589844 281.3634338378906 161.51390075683594 286.1307067871094 C 191.98204040527344 285.7794189453125 223.34307861328125 283.042724609375 247.11874389648438 278.3262634277344 C 250.01104736328125 253.39968872070312 245.04380798339844 221.62750244140625 242.0658416748047 200.40673828125 C 238.52137756347656 191.83859252929688 237.2061004638672 184.21884155273438 231.80413818359375 179.11862182617188 C 226.07208251953125 169.41891479492188 221.5306396484375 160.8260498046875 212.94229125976562 156.24180603027344" stroke-width="0.0" fill="rgb(252, 160, 40)" opacity="0.95882034" stroke="rgb(0, 0, 0)" stroke-opacity="1.0" stroke-linecap="round" stroke-linejoin="round" />
    <path d="M 245.6072540283203 278.76263427734375 C 217.44671630859375 286.0159606933594 187.2519073486328 285.575439453125 159.43182373046875 288.8338317871094 C 154.4729461669922 324.6172180175781 142.76199340820312 353.8113098144531 136.86569213867188 390.3744812011719 C 136.68833923339844 400.9059753417969 137.03274536132812 408.7558898925781 146.58216857910156 412.5184631347656 C 165.07106018066406 406.9685363769531 173.44088745117188 411.2751159667969 188.41517639160156 418.22991943359375 C 198.63140869140625 409.19439697265625 206.58351135253906 409.5820007324219 227.5420379638672 413.31182861328125 C 230.23330688476562 409.5683288574219 239.74684143066406 406.7820129394531 242.63351440429688 400.866943359375 C 242.6990966796875 361.8688659667969 247.68202209472656 322.5519104003906 245.6072540283203 278.76263427734375" stroke-width="0.0" fill="rgb(249, 201, 232)" opacity="1.0318545" stroke="rgb(0, 0, 0)" stroke-opacity="1.0" stroke-linecap="round" stroke-linejoin="round" />
    <path d="M 256.6179504394531 68.63803100585938 C 252.9580078125 72.99630737304688 253.81033325195312 86.95948791503906 260.1710205078125 90.00984191894531 C 261.28924560546875 89.85211181640625 268.6863098144531 92.34719848632812 277.4573669433594 92.97074127197266 C 290.2299499511719 96.40510559082031 299.2245178222656 96.58049011230469 316.48199462890625 90.73171997070312 C 319.66552734375 95.82135009765625 322.959228515625 87.74639129638672 326.1937561035156 79.29015350341797 C 325.6698913574219 72.9487075805664 326.93426513671875 66.85388946533203 323.4106750488281 63.009971618652344 C 318.0352478027344 55.90516662597656 311.83807373046875 52.22918701171875 303.1514892578125 50.27727127075195 C 288.45684814453125 48.66102981567383 281.9097595214844 49.79987335205078 272.3293151855469 54.38511276245117 C 265.61798095703125 57.247257232666016 256.9351806640625 63.86546325683594 256.6179504394531 68.63803100585938" stroke-width="0.0" fill="rgb(138, 88, 74)" opacity="0.9812688" stroke="rgb(0, 0, 0)" stroke-opacity="1.0" stroke-linecap="round" stroke-linejoin="round" />
    <path d="M 257.5079345703125 87.62670135498047 C 255.6778564453125 98.97673797607422 260.89300537109375 110.22440338134766 262.72882080078125 122.20736694335938 C 278.4436950683594 124.97833251953125 300.96221923828125 124.49456787109375 313.53717041015625 123.17308807373047 C 314.93695068359375 110.08951568603516 319.9792175292969 100.80342864990234 322.0967102050781 91.92203521728516 C 313.3305358886719 89.3882827758789 302.391357421875 96.02655792236328 292.5867004394531 95.03565216064453 C 281.213134765625 94.14685821533203 266.5475158691406 91.80608367919922 257.5079345703125 87.62670135498047" stroke-width="0.0" fill="rgb(242, 159, 167)" opacity="0.9180251" stroke="rgb(0, 0, 0)" stroke-opacity="1.0" stroke-linecap="round" stroke-linejoin="round" />
    <path d="M 387.61065673828125 396.8465576171875 C 375.06488037109375 393.99932861328125 368.6450500488281 397.2437438964844 360.50445556640625 400.8955078125 C 357.2767028808594 403.6914978027344 349.7105407714844 407.9765319824219 351.1129455566406 413.0115051269531 C 354.4723205566406 420.44805908203125 359.4100646972656 426.5628356933594 364.2638244628906 428.4554443359375 C 372.6969909667969 431.8990783691406 374.6106262207031 429.0646667480469 380.57958984375 427.1904296875 C 384.8789367675781 421.4344482421875 389.8123779296875 421.411865234375 391.1195068359375 410.7304992675781 C 391.7202453613281 406.5999755859375 389.2429504394531 399.9122314453125 387.61065673828125 396.8465576171875" stroke-width="0.0" fill="rgb(85, 54, 53)" opacity="0.9757589" stroke="rgb(0, 0, 0)" stroke-opacity="1.0" stroke-linecap="round" stroke-linejoin="round" />
    <path d="M 253.32447814941406 409.7428894042969 C 248.7981414794922 410.37127685546875 248.83670043945312 422.66009521484375 253.01242065429688 427.9886169433594 C 251.9131317138672 428.67022705078125 256.85089111328125 431.6823425292969 261.3059387207031 433.735107421875 C 272.9276428222656 434.61102294921875 277.7812194824219 433.928955078125 282.860107421875 430.5228271484375 C 286.0032043457031 427.8928527832031 290.6913757324219 424.4719543457031 291.440185546875 413.8556823730469 C 290.0620422363281 409.5353698730469 285.68438720703125 407.1791076660156 277.7525939941406 405.23809814453125 C 269.7082824707031 403.3689880371094 256.1849365234375 406.6800537109375 253.32447814941406 409.7428894042969" stroke-width="0.0" fill="rgb(88, 58, 57)" opacity="0.9854601" stroke="rgb(0, 0, 0)" stroke-opacity="1.0" stroke-linecap="round" stroke-linejoin="round" />
    <path d="M 376.72564697265625 265.880126953125 C 390.6240539550781 268.843505859375 382.310546875 274.1586608886719 390.58465576171875 273.9214782714844 C 409.34552001953125 275.1109619140625 397.90478515625 272.3126525878906 402.666748046875 265.9044494628906 C 399.4471130371094 265.1976318359375 386.404296875 264.0967712402344 376.72564697265625 265.880126953125" stroke-width="0.0" fill="rgb(251, 169, 61)" opacity="1.0017455" stroke="rgb(0, 0, 0)" stroke-opacity="1.0" stroke-linecap="round" stroke-linejoin="round" />
    <path d="M 213.25157165527344 125.6344223022461 C 218.8109588623047 116.70082092285156 216.8800811767578 124.04869842529297 219.20816040039062 124.04113006591797 C 219.6630859375 137.8443145751953 220.44252014160156 140.5635986328125 214.16714477539062 145.15809631347656 C 212.60504150390625 134.3392791748047 216.30810546875 128.37803649902344 213.25157165527344 125.6344223022461" stroke-width="0.0" fill="rgb(252, 191, 203)" opacity="1.0205597" stroke="rgb(0, 0, 0)" stroke-opacity="1.0" stroke-linecap="round" stroke-linejoin="round" />
    <path d="M 342.27044677734375 229.30569458007812 C 327.82080078125 231.32861328125 316.9504699707031 241.26663208007812 314.42236328125 245.17234802246094 C 293.6328125 248.86871337890625 270.9456481933594 253.7709197998047 253.4159393310547 257.5313720703125 C 253.65414428710938 268.73797607421875 262.6960754394531 269.43841552734375 277.9928894042969 271.34454345703125 C 300.84124755859375 267.5741882324219 297.63848876953125 263.6739196777344 333.2875671386719 263.71221923828125 C 345.4131774902344 262.3365783691406 341.2286071777344 247.74606323242188 342.27044677734375 229.30569458007812" stroke-width="0.0" fill="rgb(90, 85, 72)" opacity="0.88088673" stroke="rgb(0, 0, 0)" stroke-opacity="1.0" stroke-linecap="round" stroke-linejoin="round" />
    <path d="M 200.17413330078125 95.90830993652344 C 186.57125854492188 92.31006622314453 190.2919921875 97.78932189941406 183.74119567871094 96.65515899658203 C 175.3108367919922 102.04354858398438 166.6131591796875 108.45050048828125 164.50506591796875 116.60488891601562 C 169.91671752929688 115.80142211914062 172.7889404296875 110.59286499023438 176.89395141601562 108.85511016845703 C 172.24745178222656 106.76608276367188 171.4365997314453 111.45295715332031 176.93832397460938 112.64376831054688 C 182.35626220703125 112.48381042480469 193.35862731933594 113.107421875 202.6182861328125 112.50249481201172 C 204.57789611816406 112.85157775878906 203.64060974121094 115.61604309082031 204.21470642089844 116.61676788330078 C 197.79917907714844 118.2859115600586 190.7473907470703 115.99065399169922 189.64683532714844 120.3835220336914 C 196.92140197753906 120.30924224853516 195.77610778808594 118.58872985839844 196.1791229248047 125.71621704101562 C 188.5381622314453 126.96797943115234 183.4200439453125 125.25687408447266 184.02572631835938 127.7489242553711 C 189.96697998046875 130.13954162597656 193.853271484375 123.34425354003906 191.02386474609375 134.5731658935547 C 196.3863983154297 124.17581176757812 207.41307067871094 120.28096771240234 215.3138427734375 114.1410903930664 C 214.8089599609375 111.17179107666016 215.41615295410156 107.581298828125 214.88003540039062 105.0828628540039 C 210.29623413085938 101.05896759033203 204.77464294433594 94.62864685058594 200.17413330078125 95.90830993652344" stroke-width="0.0" fill="rgb(142, 90, 76)" opacity="1.0316174" stroke="rgb(0, 0, 0)" stroke-opacity="1.0" stroke-linecap="round" stroke-linejoin="round" />
    <path d="M 215.3766326904297 156.51986694335938 C 229.67832946777344 172.66250610351562 238.0473175048828 188.150146484375 247.374267578125 210.73512268066406 C 246.9792022705078 192.17857360839844 246.5240020751953 175.8496551513672 243.28448486328125 173.32669067382812 C 236.3716278076172 163.6298370361328 231.113525390625 156.2779541015625 215.3766326904297 156.51986694335938" stroke-width="0.0" fill="rgb(78, 76, 53)" opacity="0.90954214" stroke="rgb(0, 0, 0)" stroke-opacity="1.0" stroke-linecap="round" stroke-linejoin="round" />
    <path d="M 382.9351501464844 263.49462890625 C 387.8623046875 256.1302795410156 402.8984375 260.0752258300781 406.9977722167969 253.78817749023438 C 403.2761535644531 247.45523071289062 394.96649169921875 250.19412231445312 387.122802734375 250.0972900390625 C 380.5059509277344 256.6833190917969 387.0823059082031 256.2420959472656 382.9351501464844 263.49462890625" stroke-width="0.0" fill="rgb(103, 97, 69)" opacity="0.9820416" stroke="rgb(0, 0, 0)" stroke-opacity="1.0" stroke-linecap="round" stroke-linejoin="round" />
    <path d="M 192.36837768554688 215.2589111328125 C 186.23175048828125 218.84239196777344 180.6533203125 227.21490478515625 182.81826782226562 235.7447052001953 C 183.59091186523438 246.62612915039062 188.58319091796875 250.0228729248047 196.8066864013672 249.3887176513672 C 205.63299560546875 246.88592529296875 210.71658325195312 240.5933380126953 209.12608337402344 230.1196746826172 C 207.22560119628906 219.08010864257812 202.8350372314453 212.99671936035156 192.36837768554688 215.2589111328125" stroke-width="0.0" fill="rgb(161, 91, 45)" opacity="0.9974746" stroke="rgb(0, 0, 0)" stroke-opacity="1.0" stroke-linecap="round" stroke-linejoin="round" />
    <path d="M 308.2945861816406 248.4214324951172 C 301.68060302734375 248.99220275878906 302.6646423339844 240.70362854003906 293.34857177734375 247.4842529296875 C 276.57476806640625 256.7718811035156 281.6189270019531 241.50721740722656 252.81219482421875 259.84478759765625 C 256.630615234375 261.5705261230469 256.9539794921875 266.9095458984375 266.1777648925781 271.3564758300781 C 270.66680908203125 270.3376159667969 273.6340026855469 273.4337158203125 282.5160217285156 271.7786560058594 C 291.2419128417969 269.14544677734375 299.4297180175781 267.27203369140625 307.8656005859375 261.7821044921875 C 308.1156005859375 266.4154052734375 307.9434509277344 256.1191101074219 308.2945861816406 248.4214324951172" stroke-width="0.0" fill="rgb(77, 77, 56)" opacity="0.9487554" stroke="rgb(0, 0, 0)" stroke-opacity="1.0" stroke-linecap="round" stroke-linejoin="round" />
    <path d="M 341.4361572265625 228.88092041015625 C 330.6163024902344 226.50167846679688 320.1506652832031 236.70069885253906 314.4327087402344 243.0835723876953 C 311.1767578125 248.5234375 306.3703308105469 256.6296081542969 310.9704284667969 262.6475830078125 C 321.49371337890625 269.2974548339844 328.53948974609375 265.1208801269531 338.2138671875 263.7152099609375 C 343.13507080078125 255.50762939453125 340.2891540527344 245.12705993652344 341.4361572265625 228.88092041015625" stroke-width="0.0" fill="rgb(72, 76, 61)" opacity="0.9451689" stroke="rgb(0, 0, 0)" stroke-opacity="1.0" stroke-linecap="round" stroke-linejoin="round" />
  </g>
</svg>