<?xml version='1.0' encoding='utf-8'?>
<svg xmlns="http://www.w3.org/2000/svg" version="1.1" width="512" height="512">
  <defs />
  <g>
    <path d="M 240.01756286621094 68.75048065185547 C 231.2176055908203 73.08972930908203 224.63079833984375 76.3344955444336 221.40980529785156 95.53743743896484 C 221.9905548095703 117.44375610351562 209.02052307128906 117.53177642822266 217.43907165527344 147.42584228515625 C 206.5135498046875 156.117431640625 190.19712829589844 157.90635681152344 176.0951385498047 171.7755126953125 C 168.37266540527344 178.9795379638672 159.81240844726562 190.77626037597656 157.41555786132812 203.6606903076172 C 153.89791870117188 232.78244018554688 162.5652313232422 233.2713623046875 160.87904357910156 252.0696258544922 C 154.4363555908203 264.242431640625 150.4211883544922 284.5749206542969 148.5697021484375 293.3262023925781 C 149.45932006835938 309.5555114746094 152.9883575439453 315.4639892578125 156.88478088378906 320.8533020019531 C 163.6042022705078 330.7249755859375 173.65870666503906 334.12530517578125 180.32020568847656 343.55242919921875 C 172.51065063476562 364.7899475097656 165.9298553466797 388.7743835449219 158.09957885742188 402.5403137207031 C 155.38197326660156 415.95147705078125 167.20729064941406 419.0823669433594 172.28038024902344 422.6625061035156 C 180.1610107421875 423.73126220703125 191.1366729736328 427.3250427246094 193.90032958984375 413.9956359863281 C 191.50816345214844 396.235107421875 211.1088104248047 378.7597961425781 220.75665283203125 347.91326904296875 C 230.9711151123047 346.3353271484375 257.80267333984375 343.3868103027344 270.5327453613281 346.3137512207031 C 277.8546447753906 367.385986328125 291.4120788574219 390.5063171386719 297.8147277832031 415.1792907714844 C 302.56829833984375 423.0340576171875 306.9881286621094 424.4043273925781 318.9427795410156 424.3658447265625 C 326.7912292480469 421.61956787109375 341.30419921875 416.70343017578125 334.1979675292969 401.9677429199219 C 320.7014465332031 389.7464599609375 320.09136962890625 369.32513427734375 310.939697265625 341.393798828125 C 314.6888122558594 333.3344421386719 324.9900817871094 326.4989318847656 326.5254821777344 315.4521179199219 C 328.9791564941406 284.2851257324219 318.39678955078125 274.291748046875 315.5292663574219 258.5713195800781 C 313.5562744140625 237.96444702148438 328.791259765625 236.58111572265625 333.7300720214844 217.4091796875 C 333.9993896484375 213.51889038085938 336.128662109375 196.2425079345703 333.8594055175781 189.40359497070312 C 327.4398498535156 177.65933227539062 320.47607421875 166.20069885253906 313.2346496582031 158.12583923339844 C 305.6578063964844 151.3671112060547 282.66314697265625 151.95535278320312 276.0634765625 144.6364288330078 C 284.5723876953125 112.12251281738281 271.916259765625 114.71037292480469 276.02264404296875 94.07746124267578 C 273.63055419921875 72.96414184570312 266.46453857421875 74.23027038574219 258.6584777832031 68.44021606445312 C 257.44293212890625 67.47669219970703 240.9640350341797 67.82913970947266 240.01756286621094 68.75048065185547" stroke-width="0.0" fill="rgb(213, 193, 193)" opacity="0.8506168" stroke="rgb(0, 0, 0)" stroke-opacity="1.0" stroke-linecap="round" stroke-linejoin="round" />
    <path d="M 247.55953979492188 66.81095886230469 C 236.21543884277344 69.3638687133789 226.22911071777344 74.03137969970703 222.48919677734375 88.24139404296875 C 221.9506072998047 109.97990417480469 216.2198028564453 115.41577911376953 214.88504028320312 126.48561096191406 C 215.42752075195312 142.73146057128906 217.5982666015625 144.04248046875 223.21450805664062 149.200439453125 C 230.5840301513672 153.7589569091797 237.93763732910156 155.1717529296875 247.60638427734375 156.1346435546875 C 261.53173828125 154.2001190185547 266.3370056152344 151.31260681152344 273.8196105957031 146.01077270507812 C 276.9420471191406 140.87890625 279.664794921875 129.92506408691406 278.895263671875 119.21620178222656 C 270.7647705078125 98.6032943725586 281.5600891113281 96.2542953491211 272.26458740234375 79.46015167236328 C 265.96807861328125 70.24036407470703 258.22027587890625 67.79339599609375 247.55953979492188 66.81095886230469" stroke-width="0.0" fill="rgb(221, 138, 111)" opacity="0.8038229" stroke="rgb(0, 0, 0)" stroke-opacity="1.0" stroke-linecap="round" stroke-linejoin="round" />
    <path d="M 271.6832275390625 347.0237121582031 C 279.3031921386719 372.85198974609375 293.6100158691406 392.32080078125 297.7025451660156 415.1416931152344 C 307.2008972167969 426.97802734375 314.6144714355469 426.0452575683594 328.39385986328125 420.4560852050781 C 331.653564453125 414.83447265625 340.7315673828125 414.76708984375 333.41656494140625 400.7218017578125 C 319.64453125 389.06390380859375 319.4692687988281 366.55084228515625 310.47930908203125 342.0467224121094 C 305.0125732421875 339.1934814453125 280.69134521484375 342.3959045410156 271.6832275390625 347.0237121582031" stroke-width="0.0" fill="rgb(191, 164, 120)" opacity="0.9113709" stroke="rgb(0, 0, 0)" stroke-opacity="1.0" stroke-linecap="round" stroke-linejoin="round" />
    <path d="M 213.77044677734375 347.7350769042969 C 204.56475830078125 345.30487060546875 186.0570526123047 339.58709716796875 179.8545379638672 346.2991027832031 C 172.71018981933594 364.3924560546875 166.93572998046875 385.415771484375 158.1083526611328 402.8581237792969 C 156.5277862548828 414.7033386230469 161.91775512695312 413.95855712890625 165.0455322265625 419.2208557128906 C 172.64276123046875 421.9395751953125 189.8893585205078 429.30841064453125 193.83914184570312 415.09625244140625 C 192.00564575195312 396.55511474609375 206.43223571777344 382.7156982421875 217.55520629882812 356.48785400390625 C 219.33352661132812 349.4481506347656 217.1250762939453 349.86163330078125 213.77044677734375 347.7350769042969" stroke-width="0.0" fill="rgb(202, 168, 118)" opacity="0.9068636" stroke="rgb(0, 0, 0)" stroke-opacity="1.0" stroke-linecap="round" stroke-linejoin="round" />
    <path d="M 158.90187072753906 299.1797180175781 C 157.0065460205078 300.5421142578125 154.73370361328125 306.7751159667969 156.2615203857422 309.17523193359375 C 159.06741333007812 315.1093444824219 163.46641540527344 315.4127502441406 168.31939697265625 315.2828063964844 C 175.28170776367188 310.90350341796875 176.28427124023438 307.6299743652344 172.8704071044922 300.9518127441406 C 169.19480895996094 297.97637939453125 166.57518005371094 294.9499206542969 158.90187072753906 299.1797180175781" stroke-width="0.0" fill="rgb(107, 116, 129)" opacity="1.0044987" stroke="rgb(0, 0, 0)" stroke-opacity="1.0" stroke-linecap="round" stroke-linejoin="round" />
    <path d="M 173.6728973388672 203.48179626464844 C 164.85409545898438 204.07481384277344 161.32342529296875 208.55889892578125 162.80039978027344 214.15377807617188 C 163.151611328125 218.8871307373047 164.75657653808594 222.12701416015625 173.67018127441406 222.03192138671875 C 177.5125732421875 219.9470672607422 180.61801147460938 216.670166015625 181.1512451171875 211.51300048828125 C 179.59957885742188 206.58224487304688 176.06504821777344 203.7469482421875 173.6728973388672 203.48179626464844" stroke-width="0.0" fill="rgb(114, 122, 135)" opacity="1.0040249" stroke="rgb(0, 0, 0)" stroke-opacity="1.0" stroke-linecap="round" stroke-linejoin="round" />
    <path d="M 168.1664581298828 254.06199645996094 C 164.92433166503906 255.43942260742188 161.58981323242188 254.3927001953125 160.90643310546875 256.4116516113281 C 155.1035919189453 262.2494812011719 157.59642028808594 268.74884033203125 165.01284790039062 272.3932189941406 C 167.86228942871094 271.9999084472656 172.84063720703125 269.89556884765625 175.0511016845703 266.2262878417969 C 177.5194854736328 258.1829528808594 175.64202880859375 256.4682922363281 168.1664581298828 254.06199645996094" stroke-width="0.0" fill="rgb(107, 114, 127)" opacity="1.0019817" stroke="rgb(0, 0, 0)" stroke-opacity="1.0" stroke-linecap="round" stroke-linejoin="round" />
    <path d="M 266.91717529296875 208.86767578125 C 263.77569580078125 208.8888397216797 261.1718444824219 214.69354248046875 259.58203125 214.47943115234375 C 260.41680908203125 222.42181396484375 263.8987121582031 225.45249938964844 269.69842529296875 226.320556640625 C 276.81646728515625 222.16921997070312 279.1239013671875 223.2379150390625 277.9894104003906 213.4646453857422 C 274.74755859375 209.50933837890625 273.45611572265625 208.40565490722656 266.91717529296875 208.86767578125" stroke-width="0.0" fill="rgb(113, 120, 132)" opacity="1.0038052" stroke="rgb(0, 0, 0)" stroke-opacity="1.0" stroke-linecap="round" stroke-linejoin="round" />
    <path d="M 281.26385498046875 255.82147216796875 C 279.2828674316406 261.38568115234375 274.3380432128906 260.65606689453125 281.8238220214844 270.8090515136719 C 280.5625915527344 271.1239929199219 293.8074951171875 271.0762939453125 291.4236755371094 270.81683349609375 C 295.09478759765625 264.5892333984375 297.1180725097656 268.42413330078125 295.8049011230469 259.4808044433594 C 293.62982177734375 254.08334350585938 289.2251281738281 254.15557861328125 281.26385498046875 255.82147216796875" stroke-width="0.0" fill="rgb(103, 111, 125)" opacity="1.0044845" stroke="rgb(0, 0, 0)" stroke-opacity="1.0" stroke-linecap="round" stroke-linejoin="round" />
    <path d="M 235.68685913085938 309.9790344238281 C 228.32960510253906 312.7259216308594 227.93606567382812 313.2013244628906 227.63319396972656 321.21380615234375 C 230.67213439941406 323.98687744140625 231.9810791015625 328.02044677734375 238.76132202148438 327.1075134277344 C 244.97605895996094 321.54644775390625 245.7926788330078 324.03411865234375 245.1320343017578 313.3083801269531 C 243.1397247314453 310.2657775878906 239.02296447753906 309.626953125 235.68685913085938 309.9790344238281" stroke-width="0.0" fill="rgb(107, 115, 128)" opacity="1.0034884" stroke="rgb(0, 0, 0)" stroke-opacity="1.0" stroke-linecap="round" stroke-linejoin="round" />
    <path d="M 221.96621704101562 218.9821319580078 C 220.72906494140625 221.5782012939453 217.40121459960938 224.44590759277344 219.86572265625 228.05128479003906 C 222.6658935546875 231.94125366210938 225.28958129882812 235.91555786132812 233.06903076171875 232.83572387695312 C 235.25425720214844 229.8865203857422 240.0629119873047 228.19247436523438 235.82235717773438 220.0191650390625 C 233.3622589111328 216.40472412109375 226.53558349609375 216.2854766845703 221.96621704101562 218.9821319580078" stroke-width="0.0" fill="rgb(87, 97, 111)" opacity="1.0080401" stroke="rgb(0, 0, 0)" stroke-opacity="1.0" stroke-linecap="round" stroke-linejoin="round" />
    <path d="M 321.6551208496094 185.072998046875 C 318.2536315917969 187.01022338867188 316.408447265625 191.17262268066406 319.07879638671875 196.94615173339844 C 322.6304016113281 199.21612548828125 328.1163635253906 202.915283203125 334.8143615722656 198.13748168945312 C 335.4257507324219 193.31874084472656 336.16015625 190.10264587402344 332.1408386230469 185.1494903564453 C 326.5704345703125 182.70538330078125 326.72894287109375 182.6628875732422 321.6551208496094 185.072998046875" stroke-width="0.0" fill="rgb(118, 123, 135)" opacity="1.0098552" stroke="rgb(0, 0, 0)" stroke-opacity="1.0" stroke-linecap="round" stroke-linejoin="round" />
    <path d="M 301.2563171386719 153.83737182617188 C 297.4853210449219 157.85595703125 295.11151123046875 159.80540466308594 300.6539306640625 167.58901977539062 C 301.8918151855469 169.453125 307.4367370605469 170.5617218017578 309.6597595214844 170.09564208984375 C 314.6148986816406 167.08445739746094 318.4682922363281 163.3934783935547 314.5847473144531 158.07730102539062 C 308.6252746582031 154.74041748046875 312.47314453125 153.14964294433594 301.2563171386719 153.83737182617188" stroke-width="0.0" fill="rgb(113, 120, 133)" opacity="1.0163757" stroke="rgb(0, 0, 0)" stroke-opacity="1.0" stroke-linecap="round" stroke-linejoin="round" />
    <path d="M 235.1165313720703 183.69375610351562 C 232.88235473632812 188.5859832763672 234.5607147216797 195.39923095703125 242.5854949951172 195.1119384765625 C 247.43064880371094 195.7888946533203 251.2948760986328 192.90618896484375 253.25657653808594 187.58856201171875 C 252.74122619628906 183.4302215576172 250.150634765625 181.52561950683594 248.76904296875 179.89865112304688 C 240.54466247558594 179.1571502685547 239.16629028320312 180.176025390625 235.1165313720703 183.69375610351562" stroke-width="0.0" fill="rgb(95, 103, 117)" opacity="1.0056442" stroke="rgb(0, 0, 0)" stroke-opacity="1.0" stroke-linecap="round" stroke-linejoin="round" />
    <path d="M 267.2089538574219 324.00482177734375 C 260.7846374511719 328.0433044433594 260.6941223144531 328.6749572753906 263.13226318359375 337.21380615234375 C 269.1562194824219 340.03912353515625 267.79705810546875 341.6607971191406 275.6136779785156 338.746337890625 C 279.1085510253906 336.7441711425781 280.4658203125 334.39862060546875 278.4026184082031 328.01171875 C 275.5741271972656 323.60015869140625 273.4852600097656 323.7506103515625 267.2089538574219 324.00482177734375" stroke-width="0.0" fill="rgb(119, 123, 134)" opacity="1.0027977" stroke="rgb(0, 0, 0)" stroke-opacity="1.0" stroke-linecap="round" stroke-linejoin="round" />
    <path d="M 187.18511962890625 169.399658203125 C 183.0748291015625 167.69679260253906 178.68679809570312 171.03855895996094 176.28500366210938 171.63331604003906 C 174.80772399902344 176.5532684326172 170.40603637695312 178.64828491210938 178.19322204589844 183.82737731933594 C 182.35794067382812 186.5026092529297 185.45504760742188 185.15548706054688 190.78602600097656 181.15725708007812 C 194.0441436767578 174.6042938232422 191.4918212890625 171.53656005859375 187.18511962890625 169.399658203125" stroke-width="0.0" fill="rgb(112, 118, 131)" opacity="1.0040889" stroke="rgb(0, 0, 0)" stroke-opacity="1.0" stroke-linecap="round" stroke-linejoin="round" />
    <path d="M 291.976318359375 292.9162292480469 C 286.92083740234375 288.64990234375 280.5486145019531 292.8012390136719 279.60211181640625 294.2821350097656 C 275.21063232421875 295.9607238769531 276.543701171875 305.5390930175781 282.48065185546875 307.00390625 C 289.6960754394531 308.1368103027344 291.5456237792969 305.0787658691406 293.6080322265625 303.0840759277344 C 296.8048095703125 298.1541748046875 294.19134521484375 295.9571838378906 291.976318359375 292.9162292480469" stroke-width="0.0" fill="rgb(115, 121, 134)" opacity="1.0021014" stroke="rgb(0, 0, 0)" stroke-opacity="1.0" stroke-linecap="round" stroke-linejoin="round" />
    <path d="M 230.566650390625 256.8028869628906 C 223.27728271484375 256.4555358886719 219.1343231201172 262.2582702636719 219.9243927001953 265.8576354980469 C 221.09144592285156 269.6267395019531 226.25991821289062 274.02899169921875 230.06983947753906 273.2633972167969 C 234.40420532226562 270.4536437988281 237.46893310546875 270.3651428222656 238.26016235351562 264.7379150390625 C 237.43658447265625 256.34814453125 232.88482666015625 258.60308837890625 230.566650390625 256.8028869628906" stroke-width="0.0" fill="rgb(102, 110, 123)" opacity="1.0036114" stroke="rgb(0, 0, 0)" stroke-opacity="1.0" stroke-linecap="round" stroke-linejoin="round" />
    <path d="M 292.92047119140625 189.84095764160156 C 286.91326904296875 189.369384765625 283.9331970214844 196.57325744628906 284.75408935546875 200.9818115234375 C 288.303466796875 203.01077270507812 289.2588806152344 207.21926879882812 296.0318908691406 205.829345703125 C 299.9126281738281 205.29405212402344 302.40643310546875 200.19393920898438 302.2132873535156 196.48934936523438 C 300.58416748046875 190.8439483642578 296.4820251464844 189.35301208496094 292.92047119140625 189.84095764160156" stroke-width="0.0" fill="rgb(105, 112, 125)" opacity="1.0054286" stroke="rgb(0, 0, 0)" stroke-opacity="1.0" stroke-linecap="round" stroke-linejoin="round" />
    <path d="M 218.4950714111328 288.5481872558594 C 213.7024383544922 285.1847839355469 206.8695526123047 288.49517822265625 205.8720703125 290.7331237792969 C 201.8431396484375 295.4728698730469 204.5445556640625 300.3651123046875 207.90708923339844 302.3784484863281 C 214.79249572753906 304.2164001464844 217.76751708984375 302.7711486816406 220.07435607910156 299.4497375488281 C 222.72894287109375 295.9035339355469 220.6829376220703 290.7029113769531 218.4950714111328 288.5481872558594" stroke-width="0.0" fill="rgb(103, 111, 123)" opacity="1.0053867" stroke="rgb(0, 0, 0)" stroke-opacity="1.0" stroke-linecap="round" stroke-linejoin="round" />
    <path d="M 311.77020263671875 275.912353515625 C 309.08746337890625 277.3722229003906 303.6178283691406 284.18280029296875 306.4666442871094 284.9911193847656 C 306.92584228515625 290.0167236328125 312.5079345703125 292.2296447753906 316.8373107910156 292.487060546875 C 321.1908874511719 289.8006896972656 324.07305908203125 288.89959716796875 323.0068359375 283.2649230957031 C 322.0785217285156 276.0409851074219 317.0521545410156 275.6299743652344 311.77020263671875 275.912353515625" stroke-width="0.0" fill="rgb(119, 125, 138)" opacity="1.0032532" stroke="rgb(0, 0, 0)" stroke-opacity="1.0" stroke-linecap="round" stroke-linejoin="round" />
    <path d="M 254.68771362304688 240.9658203125 C 250.25743103027344 243.4511260986328 247.6484832763672 243.63729858398438 247.85211181640625 249.66464233398438 C 248.49485778808594 253.9732666015625 250.728759765625 254.77481079101562 256.9017333984375 256.9563293457031 C 261.4641418457031 255.846435546875 265.7827453613281 255.26675415039062 265.0584411621094 247.53257751464844 C 263.065185546875 241.09632873535156 260.11126708984375 240.2757110595703 254.68771362304688 240.9658203125" stroke-width="0.0" fill="rgb(105, 112, 126)" opacity="1.0054593" stroke="rgb(0, 0, 0)" stroke-opacity="1.0" stroke-linecap="round" stroke-linejoin="round" />
    <path d="M 186.83314514160156 326.66107177734375 C 185.95970153808594 336.5877685546875 189.4069366455078 331.877197265625 188.9796905517578 335.91558837890625 C 195.93638610839844 339.1639709472656 202.80926513671875 336.736572265625 203.2405548095703 331.60675048828125 C 205.92396545410156 328.5060119628906 202.0438995361328 323.12713623046875 198.32830810546875 322.06298828125 C 191.20399475097656 321.4443054199219 190.12652587890625 322.9425048828125 186.83314514160156 326.66107177734375" stroke-width="0.0" fill="rgb(116, 120, 131)" opacity="1.004625" stroke="rgb(0, 0, 0)" stroke-opacity="1.0" stroke-linecap="round" stroke-linejoin="round" />
    <path d="M 244.99241638183594 288.1349182128906 C 244.18824768066406 291.23187255859375 245.5591278076172 294.0583190917969 250.99227905273438 297.2538146972656 C 258.21875 297.0373840332031 260.2872314453125 295.2369689941406 262.93408203125 290.4540710449219 C 264.0954284667969 286.7217102050781 259.5962829589844 280.9413757324219 254.20420837402344 281.7890625 C 253.23464965820312 282.3021240234375 246.18826293945312 282.4005126953125 244.99241638183594 288.1349182128906" stroke-width="0.0" fill="rgb(108, 115, 128)" opacity="1.0050384" stroke="rgb(0, 0, 0)" stroke-opacity="1.0" stroke-linecap="round" stroke-linejoin="round" />
    <path d="M 189.80787658691406 269.2254333496094 C 187.2420196533203 271.0609130859375 181.58160400390625 272.3351135253906 180.63348388671875 274.98101806640625 C 180.849609375 284.3085632324219 180.12451171875 279.8257141113281 185.10708618164062 286.2479553222656 C 192.366943359375 286.2315979003906 195.59854125976562 284.9114074707031 197.0928497314453 279.84149169921875 C 197.82534790039062 273.482177734375 195.05873107910156 271.6366271972656 189.80787658691406 269.2254333496094" stroke-width="0.0" fill="rgb(101, 108, 120)" opacity="1.0057503" stroke="rgb(0, 0, 0)" stroke-opacity="1.0" stroke-linecap="round" stroke-linejoin="round" />
    <path d="M 279.7709045410156 165.11886596679688 C 275.84796142578125 163.87271118164062 269.38861083984375 166.50584411621094 267.9812927246094 169.4982452392578 C 266.51397705078125 176.86280822753906 269.41082763671875 177.6859130859375 275.1499328613281 181.3856964111328 C 280.5469970703125 179.3949432373047 283.68408203125 177.89210510253906 285.25091552734375 172.0970001220703 C 283.7375793457031 167.6029052734375 282.0178527832031 166.18838500976562 279.7709045410156 165.11886596679688" stroke-width="0.0" fill="rgb(128, 132, 143)" opacity="1.002439" stroke="rgb(0, 0, 0)" stroke-opacity="1.0" stroke-linecap="round" stroke-linejoin="round" />
    <path d="M 305.9284973144531 312.7510986328125 C 301.3447570800781 315.3739013671875 301.9996337890625 319.9203796386719 301.7336120605469 324.7268981933594 C 304.3681945800781 328.0022277832031 308.7362976074219 328.9715576171875 312.880126953125 328.00091552734375 C 316.7191162109375 325.58349609375 318.6678771972656 323.6864318847656 317.79180908203125 317.1199035644531 C 311.8219909667969 311.0126037597656 315.22174072265625 313.393310546875 305.9284973144531 312.7510986328125" stroke-width="0.0" fill="rgb(126, 129, 140)" opacity="1.0013916" stroke="rgb(0, 0, 0)" stroke-opacity="1.0" stroke-linecap="round" stroke-linejoin="round" />
    <path d="M 320.6312255859375 212.7086639404297 C 318.58331298828125 213.82032775878906 316.50408935546875 220.31320190429688 319.4758605957031 224.09274291992188 C 320.5359191894531 226.22142028808594 323.9617919921875 229.6603240966797 329.53375244140625 226.71885681152344 C 332.5679931640625 224.90750122070312 334.8329772949219 221.61643981933594 334.2784423828125 215.31875610351562 C 331.04095458984375 212.89044189453125 326.41680908203125 210.2234344482422 320.6312255859375 212.7086639404297" stroke-width="0.0" fill="rgb(111, 118, 131)" opacity="1.011964" stroke="rgb(0, 0, 0)" stroke-opacity="1.0" stroke-linecap="round" stroke-linejoin="round" />
    <path d="M 202.99630737304688 236.32716369628906 C 204.0791473388672 233.0076904296875 194.7184600830078 233.74183654785156 192.42654418945312 233.94720458984375 C 189.2179412841797 237.3013458251953 186.1311492919922 239.06129455566406 188.50668334960938 243.4916534423828 C 190.94332885742188 248.17604064941406 194.92857360839844 250.65199279785156 201.16094970703125 247.4163360595703 C 204.14593505859375 245.4953155517578 207.2420196533203 240.010498046875 202.99630737304688 236.32716369628906" stroke-width="0.0" fill="rgb(110, 115, 127)" opacity="1.0028248" stroke="rgb(0, 0, 0)" stroke-opacity="1.0" stroke-linecap="round" stroke-linejoin="round" />
    <path d="M 213.39501953125 164.03707885742188 C 211.95835876464844 164.5955047607422 205.72940063476562 171.98855590820312 211.27919006347656 176.1297149658203 C 212.80166625976562 179.00120544433594 217.9514617919922 178.5273895263672 221.4609375 177.4434356689453 C 225.63462829589844 176.6344757080078 227.51559448242188 170.2660675048828 224.91627502441406 166.83912658691406 C 222.72097778320312 162.35108947753906 219.52333068847656 164.69300842285156 213.39501953125 164.03707885742188" stroke-width="0.0" fill="rgb(116, 123, 136)" opacity="1.0036936" stroke="rgb(0, 0, 0)" stroke-opacity="1.0" stroke-linecap="round" stroke-linejoin="round" />
    <path d="M 196.8496856689453 193.47760009765625 C 193.83180236816406 197.5673828125 192.86399841308594 198.84642028808594 195.4003448486328 202.7563018798828 C 197.56053161621094 208.0710906982422 200.84422302246094 207.3741912841797 205.94403076171875 206.7767791748047 C 208.71926879882812 203.1396942138672 212.67286682128906 199.53451538085938 209.7714385986328 196.31475830078125 C 207.77084350585938 189.80038452148438 202.54164123535156 191.85971069335938 196.8496856689453 193.47760009765625" stroke-width="0.0" fill="rgb(109, 116, 130)" opacity="1.0040286" stroke="rgb(0, 0, 0)" stroke-opacity="1.0" stroke-linecap="round" stroke-linejoin="round" />
    <path d="M 294.12042236328125 227.0367431640625 C 293.7879333496094 229.69979858398438 290.8907775878906 231.95323181152344 291.97918701171875 235.5833282470703 C 293.78466796875 238.28736877441406 298.5004577636719 242.52474975585938 302.17120361328125 240.42813110351562 C 307.88623046875 239.2374725341797 308.1787414550781 233.73995971679688 306.0242919921875 227.24899291992188 C 303.6124572753906 226.15597534179688 299.1647644042969 225.18434143066406 294.12042236328125 227.0367431640625" stroke-width="0.0" fill="rgb(119, 124, 135)" opacity="1.0027368" stroke="rgb(0, 0, 0)" stroke-opacity="1.0" stroke-linecap="round" stroke-linejoin="round" />
    <path d="M 220.98353576660156 107.19608306884766 C 217.3088836669922 114.93421936035156 214.763427734375 123.11283111572266 214.79136657714844 132.95059204101562 C 216.66384887695312 142.9864959716797 218.24864196777344 145.8448486328125 224.68064880371094 151.09210205078125 C 230.98599243164062 153.11375427246094 239.90040588378906 157.1953582763672 248.67959594726562 156.423095703125 C 259.9070129394531 154.91452026367188 270.9162902832031 151.32493591308594 275.1911926269531 143.19943237304688 C 280.7665710449219 126.00415802001953 280.2498779296875 117.7314224243164 273.7922058105469 106.7826156616211 C 256.6116943359375 111.3104019165039 241.37872314453125 107.02920532226562 220.98353576660156 107.19608306884766" stroke-width="0.0" fill="rgb(165, 98, 52)" opacity="0.9522858" stroke="rgb(0, 0, 0)" stroke-opacity="1.0" stroke-linecap="round" stroke-linejoin="round" />
    <path d="M 309.1173095703125 340.7051086425781 C 295.8697814941406 340.7537536621094 275.0924377441406 341.5965270996094 272.0600280761719 348.7052307128906 C 277.96575927734375 365.3850402832031 286.84014892578125 383.3913269042969 294.6531982421875 401.5473327636719 C 303.865478515625 395.1103210449219 312.3748779296875 390.7904357910156 325.24542236328125 391.203125 C 317.82122802734375 373.0894470214844 315.95111083984375 353.5318603515625 309.1173095703125 340.7051086425781" stroke-width="0.0" fill="rgb(240, 169, 75)" opacity="0.96122205" stroke="rgb(0, 0, 0)" stroke-opacity="1.0" stroke-linecap="round" stroke-linejoin="round" />
    <path d="M 181.29769897460938 344.4049987792969 C 175.6953887939453 354.9305725097656 170.15390014648438 373.7964172363281 163.20779418945312 394.1285400390625 C 172.2653350830078 390.4759521484375 182.29934692382812 395.7373352050781 195.14866638183594 400.6142578125 C 201.5491485595703 383.6651306152344 213.4189453125 369.7862243652344 219.49302673339844 350.55987548828125 C 213.21762084960938 346.173828125 188.7509765625 340.0225830078125 181.29769897460938 344.4049987792969" stroke-width="0.0" fill="rgb(237, 163, 68)" opacity="0.9434802" stroke="rgb(0, 0, 0)" stroke-opacity="1.0" stroke-linecap="round" stroke-linejoin="round" />
    <path d="M 226.17874145507812 78.72447967529297 C 222.6438751220703 85.79437255859375 220.21755981445312 99.29573822021484 222.8204803466797 106.03886413574219 C 237.61776733398438 108.77796936035156 259.6009521484375 110.51318359375 272.5355224609375 106.83946228027344 C 275.8350830078125 105.09257507324219 277.8467712402344 92.1202163696289 274.1378173828125 83.69579315185547 C 273.6998291015625 78.24110412597656 267.0269775390625 73.40139770507812 263.1813049316406 70.22333526611328 C 256.0428161621094 68.09664916992188 252.04971313476562 65.3413314819336 242.8733367919922 67.95756530761719 C 234.20431518554688 69.99478912353516 230.63104248046875 75.0553207397461 226.17874145507812 78.72447967529297" stroke-width="0.0" fill="rgb(246, 77, 54)" opacity="0.94144905" stroke="rgb(0, 0, 0)" stroke-opacity="1.0" stroke-linecap="round" stroke-linejoin="round" />
    <path d="M 325.1438293457031 391.97406005859375 C 312.5052490234375 391.1986999511719 304.18096923828125 396.00970458984375 296.07794189453125 400.61932373046875 C 295.0655212402344 410.2270812988281 297.84991455078125 416.15887451171875 302.98382568359375 420.4783935546875 C 306.59368896484375 424.5158386230469 315.05322265625 425.8784484863281 323.726806640625 422.20562744140625 C 327.4445495605469 421.9349060058594 332.1506042480469 417.7482604980469 336.0513610839844 411.5128479003906 C 337.0035095214844 402.53302001953125 329.36407470703125 397.143798828125 325.1438293457031 391.97406005859375" stroke-width="0.0" fill="rgb(78, 88, 96)" opacity="0.9912922" stroke="rgb(0, 0, 0)" stroke-opacity="1.0" stroke-linecap="round" stroke-linejoin="round" />
    <path d="M 165.57359313964844 392.0559387207031 C 160.36865234375 395.832763671875 154.63821411132812 406.4944763183594 160.5298309326172 413.48406982421875 C 164.21563720703125 420.2241516113281 175.9514617919922 424.88507080078125 187.18667602539062 423.419921875 C 194.170654296875 420.1544189453125 195.6782989501953 409.87457275390625 192.9170379638672 401.3203125 C 185.69683837890625 395.4699401855469 176.78475952148438 392.9717102050781 165.57359313964844 392.0559387207031" stroke-width="0.0" fill="rgb(90, 98, 103)" opacity="0.9556422" stroke="rgb(0, 0, 0)" stroke-opacity="1.0" stroke-linecap="round" stroke-linejoin="round" />
    </g>
</svg>