<?xml version='1.0' encoding='utf-8'?>
<svg xmlns="http://www.w3.org/2000/svg" version="1.1" width="512" height="512">
  <defs />
  <g>
    <path d="M 350.1573181152344 83.97632598876953 C 336.9156188964844 86.43535614013672 326.46624755859375 95.39388275146484 321.953369140625 107.17105102539062 C 316.8307800292969 121.32601928710938 323.611572265625 137.6085662841797 322.8483581542969 154.41526794433594 C 286.6968078613281 168.9309539794922 248.11376953125 178.7677459716797 214.6761474609375 190.53549194335938 C 219.08335876464844 203.06900024414062 226.53111267089844 216.25730895996094 233.45033264160156 222.38348388671875 C 247.16354370117188 218.93673706054688 259.8784484863281 221.01327514648438 261.146728515625 219.09014892578125 C 281.6946105957031 220.23179626464844 286.8306579589844 218.21461486816406 285.91998291015625 236.5218963623047 C 285.833984375 248.43716430664062 277.6338806152344 259.9186096191406 282.1361389160156 305.6317138671875 C 280.93487548828125 316.0667419433594 287.67364501953125 320.2906799316406 289.592529296875 349.49066162109375 C 294.51611328125 373.1262512207031 306.566650390625 370.3525695800781 316.3698425292969 378.64105224609375 C 322.0085144042969 415.6888427734375 311.51898193359375 408.98016357421875 307.6605224609375 424.8669738769531 C 308.2130432128906 437.1205749511719 323.7850646972656 441.1048583984375 338.3031005859375 432.46099853515625 C 342.6706237792969 424.22125244140625 346.9201965332031 401.0083923339844 350.9917297363281 380.677734375 C 354.06158447265625 377.3992919921875 359.278564453125 376.0493469238281 366.69598388671875 377.32012939453125 C 379.5705871582031 376.0008544921875 380.4686584472656 380.20343017578125 380.57379150390625 380.50537109375 C 384.6883850097656 404.79510498046875 387.2497863769531 405.77166748046875 384.4422912597656 426.0211486816406 C 385.7889709472656 439.2613220214844 392.4226989746094 439.5838623046875 404.12872314453125 441.1797790527344 C 415.50042724609375 439.2205505371094 417.24383544921875 438.39935302734375 419.6239929199219 426.1896057128906 C 413.7713928222656 416.6282958984375 414.51812744140625 401.5481262207031 415.9814758300781 379.8796691894531 C 425.46221923828125 349.23724365234375 438.00665283203125 328.26263427734375 445.3564453125 305.4892578125 C 447.27056884765625 311.5539855957031 443.8326721191406 334.34173583984375 444.0210266113281 345.2897644042969 C 443.09075927734375 362.9400329589844 448.0657043457031 369.1636657714844 455.9798889160156 373.0948791503906 C 467.40521240234375 377.7396240234375 476.4023742675781 374.2298278808594 483.14178466796875 370.0731201171875 C 490.84136962890625 362.65069580078125 495.6204833984375 360.1692810058594 490.036865234375 333.1615295410156 C 468.074462890625 284.2301330566406 461.787841796875 232.4664306640625 441.8171081542969 195.65634155273438 C 434.863037109375 182.13650512695312 427.3641662597656 173.6685791015625 417.39105224609375 165.6715545654297 C 409.69903564453125 158.16978454589844 398.9627380371094 154.4080810546875 391.1311340332031 148.54579162597656 C 390.26971435546875 132.040771484375 393.1528625488281 120.1526107788086 392.0730895996094 112.78321075439453 C 389.66278076171875 103.02348327636719 386.5043029785156 98.6836166381836 381.6689147949219 93.21106719970703 C 372.9530944824219 85.66049194335938 366.1041259765625 82.9284896850586 350.1573181152344 83.97632598876953" stroke-width="0.0" fill="rgb(218, 196, 180)" opacity="0.92113584" stroke="rgb(0, 0, 0)" stroke-opacity="1.0" stroke-linecap="round" stroke-linejoin="round" />
    <path d="M 125.48990631103516 79.10929870605469 C 111.4430923461914 80.77779388427734 103.43852996826172 88.0866928100586 97.8382339477539 98.04369354248047 C 92.6870346069336 111.7627182006836 97.77949523925781 121.23731231689453 98.41101837158203 132.43946838378906 C 84.18429565429688 167.05335998535156 59.15410232543945 180.47193908691406 52.454444885253906 205.54544067382812 C 44.43172073364258 228.72308349609375 42.768611907958984 260.35296630859375 46.77772903442383 290.8144226074219 C 51.13404846191406 301.2088623046875 52.62602233886719 314.1300354003906 60.15910720825195 324.0060119628906 C 63.71446990966797 326.2930603027344 73.44668579101562 331.5059814453125 75.49024963378906 328.2547607421875 C 62.850830078125 358.6409912109375 46.21550369262695 373.4482116699219 31.359357833862305 397.36834716796875 C 26.611568450927734 414.80706787109375 20.236385345458984 412.2599792480469 22.090042114257812 427.6796875 C 23.378215789794922 436.12835693359375 28.335302352905273 442.4551696777344 33.79671096801758 445.2540588378906 C 38.32257080078125 448.6487121582031 47.70630645751953 450.9982604980469 54.65907287597656 447.1653137207031 C 57.197689056396484 444.65032958984375 60.098167419433594 439.9453430175781 59.073184967041016 427.2928466796875 C 73.64984130859375 413.6363830566406 92.04756164550781 402.1491394042969 105.73953247070312 386.45623779296875 C 119.31055450439453 372.7159118652344 121.44188690185547 355.5516357421875 131.5692138671875 354.3812255859375 C 143.0747833251953 379.9535827636719 135.84963989257812 414.1932067871094 155.12025451660156 447.42498779296875 C 151.12625122070312 455.2526550292969 169.0874481201172 461.22802734375 176.6267547607422 460.1828308105469 C 185.1137237548828 458.9412536621094 191.61434936523438 456.177978515625 192.67007446289062 450.2029113769531 C 185.52642822265625 414.9105529785156 190.24432373046875 352.38555908203125 181.5142364501953 296.0846252441406 C 184.49710083007812 291.94146728515625 185.36111450195312 283.07861328125 186.7476348876953 268.85028076171875 C 200.52117919921875 269.33807373046875 207.3758544921875 280.2295227050781 231.7590789794922 280.9857482910156 C 243.8475341796875 278.27691650390625 256.9031982421875 277.36041259765625 266.4093017578125 273.58502197265625 C 268.54144287109375 271.02618408203125 274.28948974609375 267.0516357421875 270.3235778808594 258.0072937011719 C 259.67608642578125 251.36883544921875 245.080322265625 242.6200408935547 233.36016845703125 228.88421630859375 C 223.36428833007812 218.34341430664062 218.49485778808594 200.81629943847656 207.9610137939453 187.05047607421875 C 194.24644470214844 167.56414794921875 177.50550842285156 165.2901153564453 161.81857299804688 133.07330322265625 C 157.57269287109375 112.19501495361328 163.71495056152344 102.50559997558594 155.05667114257812 90.69186401367188 C 149.76312255859375 82.87419891357422 137.92799377441406 76.9788589477539 125.48990631103516 79.10929870605469" stroke-width="0.0" fill="rgb(206, 186, 185)" opacity="0.78596944" stroke="rgb(0, 0, 0)" stroke-opacity="1.0" stroke-linecap="round" stroke-linejoin="round" />
    <path d="M 140.40037536621094 80.46318054199219 C 137.00650024414062 78.52635192871094 122.92709350585938 77.50279235839844 118.48627471923828 80.68871307373047 C 111.4413070678711 82.89189147949219 105.6085205078125 86.31645202636719 101.21684265136719 92.3594741821289 C 98.1319808959961 98.4077377319336 96.1953125 97.0365219116211 95.38587951660156 110.78496551513672 C 96.47856903076172 122.91378021240234 99.08665466308594 125.99893951416016 99.50738525390625 148.4460906982422 C 85.44690704345703 149.33934020996094 86.31777954101562 166.5445098876953 70.06078338623047 175.680908203125 C 56.44788360595703 191.7875213623047 54.653682708740234 200.18511962890625 49.487876892089844 215.18942260742188 C 45.315650939941406 232.98855590820312 43.40937805175781 260.5908508300781 46.27226638793945 285.3626708984375 C 48.71465301513672 300.1902160644531 57.410369873046875 313.7855529785156 63.90464401245117 325.0743408203125 C 70.92707061767578 328.2138366699219 84.1606216430664 326.4543762207031 82.0821304321289 324.3127136230469 C 90.31139373779297 318.5879821777344 90.35061645507812 305.44158935546875 93.12702178955078 300.4888000488281 C 128.66868591308594 299.0771179199219 154.09251403808594 298.3665466308594 175.9370574951172 296.5628967285156 C 187.40065002441406 294.66534423828125 183.2244873046875 280.60052490234375 186.90423583984375 269.2117919921875 C 196.89852905273438 267.2894287109375 207.65916442871094 278.094482421875 225.42733764648438 280.46490478515625 C 239.828125 280.21087646484375 257.52667236328125 276.0989685058594 266.16314697265625 273.4391174316406 C 270.6748962402344 270.62310791015625 273.73638916015625 261.4783630371094 267.7995910644531 255.88917541503906 C 255.0100860595703 250.09620666503906 242.556640625 239.72625732421875 228.2165069580078 223.66387939453125 C 218.83596801757812 207.38348388671875 212.94151306152344 188.46681213378906 191.63677978515625 169.31202697753906 C 181.55323791503906 163.8391876220703 172.5460205078125 154.2804412841797 162.2864227294922 152.9820098876953 C 163.67649841308594 157.7144775390625 150.17141723632812 160.86729431152344 156.15284729003906 152.1979522705078 C 165.8616485595703 137.9642333984375 159.05404663085938 140.9139862060547 160.3321990966797 103.1819839477539 C 157.24440002441406 89.41470336914062 150.30567932128906 84.6230239868164 140.40037536621094 80.46318054199219" stroke-width="0.0" fill="rgb(169, 139, 135)" opacity="0.86990416" stroke="rgb(0, 0, 0)" stroke-opacity="1.0" stroke-linecap="round" stroke-linejoin="round" />
    <path d="M 181.8592071533203 296.7665100097656 C 153.23516845703125 298.29541015625 121.42508697509766 297.90289306640625 98.8948745727539 301.4023742675781 C 77.87548828125 339.05615234375 46.758975982666016 368.687744140625 27.301401138305664 405.5699768066406 C 33.55858612060547 412.00299072265625 48.89468765258789 415.9704895019531 57.77859115600586 427.1510009765625 C 88.43611907958984 405.0033264160156 112.5600357055664 385.75018310546875 128.69566345214844 350.5713195800781 C 143.22195434570312 369.9244689941406 135.27272033691406 410.1224670410156 151.91477966308594 440.6012268066406 C 155.69522094726562 435.01397705078125 169.9717254638672 433.7035827636719 189.44021606445312 433.6036071777344 C 187.69805908203125 384.7414245605469 187.59713745117188 336.6799621582031 181.8592071533203 296.7665100097656" stroke-width="0.0" fill="rgb(185, 181, 187)" opacity="0.7329908" stroke="rgb(0, 0, 0)" stroke-opacity="1.0" stroke-linecap="round" stroke-linejoin="round" />
    <path d="M 290.4024353027344 327.00244140625 C 288.9004821777344 345.9224548339844 290.368896484375 352.3941650390625 296.09783935546875 364.9712219238281 C 300.0205078125 369.81793212890625 310.0334167480469 374.1746826171875 317.2608642578125 376.801513671875 C 351.752685546875 375.7471923828125 385.06903076171875 378.10498046875 413.5248107910156 374.53509521484375 C 422.3230895996094 367.5106506347656 424.5097351074219 355.9270935058594 427.1257019042969 339.671142578125 C 420.7434997558594 322.9178771972656 415.42828369140625 302.4785461425781 405.6772155761719 288.2345275878906 C 397.41998291015625 279.0416259765625 385.5380554199219 270.1546325683594 373.703369140625 268.2579650878906 C 356.197509765625 265.4837341308594 333.5763854980469 267.85797119140625 327.56781005859375 274.9526672363281 C 310.21954345703125 286.98382568359375 300.97235107421875 305.0664978027344 290.4024353027344 327.00244140625" stroke-width="0.0" fill="rgb(212, 168, 97)" opacity="0.99992085" stroke="rgb(0, 0, 0)" stroke-opacity="1.0" stroke-linecap="round" stroke-linejoin="round" />
    <path d="M 354.75030517578125 84.01394653320312 C 340.7793273925781 84.60359191894531 333.6054992675781 90.33558654785156 327.19219970703125 96.93859100341797 C 322.4399108886719 104.48805236816406 318.9939270019531 113.73719787597656 319.8329772949219 125.94434356689453 C 322.63677978515625 141.54063415527344 321.39642333984375 153.40589904785156 326.2831115722656 156.7547607421875 C 329.4114074707031 164.56234741210938 337.9225158691406 169.5452117919922 343.6488342285156 173.31857299804688 C 351.2901306152344 172.45082092285156 353.540771484375 175.3806610107422 363.09088134765625 172.8191375732422 C 374.3736877441406 171.7669219970703 381.874755859375 162.0143585205078 389.2207946777344 153.39552307128906 C 391.7308044433594 148.92501831054688 392.9244689941406 126.2503433227539 391.7648620605469 112.03128051757812 C 389.7983093261719 103.54816436767578 385.2123107910156 95.62313842773438 379.4360046386719 91.08805847167969 C 372.6295471191406 86.12355041503906 363.5755310058594 83.28749084472656 354.75030517578125 84.01394653320312" stroke-width="0.0" fill="rgb(167, 128, 138)" opacity="0.8307978" stroke="rgb(0, 0, 0)" stroke-opacity="1.0" stroke-linecap="round" stroke-linejoin="round" />
    <path d="M 466.83660888671875 282.4344482421875 C 454.4450378417969 285.3293762207031 448.0916748046875 287.785888671875 445.7768249511719 299.3609924316406 C 447.2062072753906 322.3857116699219 441.7411193847656 335.9477233886719 442.7356872558594 349.55718994140625 C 442.8553161621094 363.1481628417969 447.40374755859375 367.66888427734375 451.87060546875 371.43817138671875 C 457.06524658203125 375.0979919433594 463.9361267089844 375.43560791015625 472.83465576171875 375.0886535644531 C 481.762451171875 372.5882263183594 486.3799743652344 367.9627380371094 490.8653259277344 361.35504150390625 C 493.2554931640625 356.7691345214844 493.82470703125 353.4992980957031 492.404541015625 339.2984924316406 C 485.9862060546875 324.92742919921875 482.4949645996094 310.8133239746094 478.07696533203125 294.7457275390625 C 472.98431396484375 287.1153259277344 467.0726318359375 282.2577209472656 466.83660888671875 282.4344482421875" stroke-width="0.0" fill="rgb(249, 196, 107)" opacity="0.97896135" stroke="rgb(0, 0, 0)" stroke-opacity="1.0" stroke-linecap="round" stroke-linejoin="round" />
    <path d="M 414.66064453125 374.36090087890625 C 401.27117919921875 373.3193054199219 390.1744689941406 376.19635009765625 380.6846923828125 377.9939270019531 C 382.343994140625 390.651611328125 385.9283752441406 402.6549072265625 385.8199462890625 415.0118408203125 C 396.551513671875 415.6374206542969 406.388916015625 412.85650634765625 414.44879150390625 415.3646545410156 C 412.4952087402344 397.59698486328125 416.63897705078125 383.33233642578125 414.66064453125 374.36090087890625" stroke-width="0.0" fill="rgb(243, 106, 73)" opacity="0.9947932" stroke="rgb(0, 0, 0)" stroke-opacity="1.0" stroke-linecap="round" stroke-linejoin="round" />
    <path d="M 29.263456344604492 409.521484375 C 23.997854232788086 411.22772216796875 20.55951690673828 416.3088073730469 21.022830963134766 425.3744812011719 C 22.64675521850586 426.7598571777344 20.988178253173828 430.4407043457031 24.437376022338867 436.1386413574219 C 27.911436080932617 441.9617004394531 33.22429656982422 446.069580078125 38.26377868652344 448.2177429199219 C 46.79164123535156 452.1447448730469 51.698158264160156 449.87847900390625 56.3248291015625 446.6834411621094 C 59.199729919433594 442.1208190917969 61.33018493652344 433.7256164550781 56.529823303222656 426.0320739746094 C 45.35799789428711 418.1605529785156 37.2785758972168 411.7779541015625 29.263456344604492 409.521484375" stroke-width="0.0" fill="rgb(157, 106, 91)" opacity="0.9641989" stroke="rgb(0, 0, 0)" stroke-opacity="1.0" stroke-linecap="round" stroke-linejoin="round" />
    <path d="M 318.26531982421875 376.1802978515625 C 318.16180419921875 384.7949523925781 317.6524658203125 399.56671142578125 318.0013427734375 411.05596923828125 C 324.7163391113281 412.3987121582031 333.32293701171875 412.4279479980469 342.4246520996094 415.7920837402344 C 345.625244140625 405.08514404296875 348.48541259765625 393.0018615722656 350.67462158203125 380.2489929199219 C 344.6315002441406 375.5295104980469 329.7682800292969 378.07257080078125 318.26531982421875 376.1802978515625" stroke-width="0.0" fill="rgb(241, 104, 72)" opacity="0.988767" stroke="rgb(0, 0, 0)" stroke-opacity="1.0" stroke-linecap="round" stroke-linejoin="round" />
    <path d="M 194.35165405273438 447.981201171875 C 191.69737243652344 436.9324645996094 189.21810913085938 433.798583984375 183.67904663085938 435.0474548339844 C 167.94639587402344 434.17962646484375 160.7958221435547 435.9532470703125 154.44058227539062 439.71435546875 C 153.17910766601562 440.66754150390625 153.59742736816406 449.5039978027344 156.09857177734375 452.7989807128906 C 160.28070068359375 456.7109375 160.04959106445312 457.9147033691406 168.2664031982422 459.79437255859375 C 178.04501342773438 460.75604248046875 184.44256591796875 459.7231140136719 189.53982543945312 456.4288024902344 C 191.54910278320312 455.0501403808594 193.44229125976562 449.6026611328125 194.35165405273438 447.981201171875" stroke-width="0.0" fill="rgb(151, 101, 87)" opacity="1.0219612" stroke="rgb(0, 0, 0)" stroke-opacity="1.0" stroke-linecap="round" stroke-linejoin="round" />
    <path d="M 387.0221862792969 415.0976867675781 C 383.3841857910156 425.2855529785156 384.5600891113281 433.2926025390625 389.6769714355469 437.2113952636719 C 398.41357421875 441.7366638183594 410.92047119140625 441.103271484375 416.2994689941406 436.7992858886719 C 420.49920654296875 427.6719970703125 417.4947509765625 419.6383056640625 413.84796142578125 414.7373962402344 C 405.2219543457031 413.557861328125 396.0116271972656 415.35919189453125 387.0221862792969 415.0976867675781" stroke-width="0.0" fill="rgb(68, 75, 92)" opacity="0.99502856" stroke="rgb(0, 0, 0)" stroke-opacity="1.0" stroke-linecap="round" stroke-linejoin="round" />
    <path d="M 310.7590026855469 417.4822692871094 C 308.50958251953125 419.93511962890625 307.27227783203125 427.4676208496094 309.4030456542969 431.2271728515625 C 310.6683044433594 433.4262390136719 314.1340637207031 435.773681640625 320.6611328125 437.0732116699219 C 326.7236328125 437.7896728515625 332.697509765625 436.45184326171875 336.86602783203125 432.9167785644531 C 341.2261962890625 429.51495361328125 342.5127868652344 423.9356689453125 341.94970703125 417.3682556152344 C 339.308837890625 412.87542724609375 331.2447509765625 413.6689453125 317.3754577636719 410.82177734375 C 317.4242858886719 410.22503662109375 312.6618347167969 413.3318176269531 310.7590026855469 417.4822692871094" stroke-width="0.0" fill="rgb(70, 77, 93)" opacity="0.98234904" stroke="rgb(0, 0, 0)" stroke-opacity="1.0" stroke-linecap="round" stroke-linejoin="round" />
    <path d="M 367.52569580078125 175.802001953125 C 360.4781188964844 174.13804626464844 348.1340026855469 176.28196716308594 348.92633056640625 177.18344116210938 C 358.6622314453125 212.77609252929688 340.93182373046875 234.17376708984375 341.7759704589844 265.50347900390625 C 357.8833923339844 266.5084533691406 370.7351379394531 267.63385009765625 372.6005859375 261.80255126953125 C 369.30926513671875 231.8705291748047 366.80657958984375 206.53538513183594 367.52569580078125 175.802001953125" stroke-width="0.0" fill="rgb(243, 240, 244)" opacity="1.0064361" stroke="rgb(0, 0, 0)" stroke-opacity="1.0" stroke-linecap="round" stroke-linejoin="round" />
    <path d="M 321.6712341308594 157.52513122558594 C 278.7496337890625 164.8359375 250.48580932617188 178.08168029785156 215.64877319335938 188.88221740722656 C 216.27468872070312 202.0942840576172 226.0218048095703 206.8051300048828 226.31124877929688 223.4477996826172 C 243.0141143798828 225.96749877929688 278.3890380859375 219.1247100830078 284.8512268066406 224.17552185058594 C 285.1510925292969 243.03866577148438 278.78814697265625 255.33377075195312 278.0977478027344 292.91143798828125 C 278.3645935058594 302.9591369628906 277.83782958984375 330.2840270996094 285.4882507324219 329.8974914550781 C 291.4257507324219 315.4695739746094 300.4385070800781 302.7727966308594 306.94610595703125 288.2705383300781 C 314.7080993652344 277.5885925292969 325.8111267089844 273.068603515625 336.3641357421875 267.515869140625 C 340.2709045410156 252.44699096679688 339.5000915527344 246.6002960205078 345.8865966796875 242.52610778808594 C 349.4511413574219 215.8980712890625 356.1794128417969 204.57815551757812 349.7638854980469 177.06561279296875 C 338.6813659667969 172.26022338867188 329.30078125 168.2430419921875 321.6712341308594 157.52513122558594" stroke-width="0.0" fill="rgb(197, 198, 220)" opacity="0.8777483" stroke="rgb(0, 0, 0)" stroke-opacity="1.0" stroke-linecap="round" stroke-linejoin="round" />
    <path d="M 387.55462646484375 153.48805236816406 C 385.7365417480469 164.35911560058594 374.0347900390625 168.4539031982422 367.33697509765625 178.7755889892578 C 366.02093505859375 181.77627563476562 367.220458984375 180.14373779296875 366.70587158203125 195.77932739257812 C 372.0675354003906 212.93910217285156 367.7865905761719 234.56719970703125 377.58697509765625 266.30963134765625 C 388.9268493652344 266.0252990722656 387.9201965332031 277.164794921875 405.11065673828125 275.5644226074219 C 424.21466064453125 291.65252685546875 410.7010803222656 317.28466796875 428.52252197265625 341.1521911621094 C 434.1091613769531 338.5035705566406 437.2001037597656 332.02117919921875 438.8041687011719 326.5660705566406 C 439.6591796875 310.2208251953125 436.1573486328125 299.8408203125 434.86639404296875 289.114013671875 C 439.3845520019531 289.7337341308594 440.486328125 293.548095703125 446.9566345214844 292.0130615234375 C 451.0048522949219 283.1732482910156 458.0395812988281 283.2010498046875 466.58343505859375 279.74560546875 C 465.0337219238281 266.3237609863281 465.515380859375 255.29791259765625 463.9898986816406 248.64596557617188 C 454.6906433105469 224.25852966308594 448.4869384765625 199.66522216796875 433.4060974121094 178.195068359375 C 422.7247009277344 175.5775146484375 427.3863220214844 165.93894958496094 416.1867370605469 162.33921813964844 C 405.6127014160156 154.2493438720703 399.09051513671875 153.8412628173828 387.55462646484375 153.48805236816406" stroke-width="0.0" fill="rgb(201, 201, 224)" opacity="0.90673083" stroke="rgb(0, 0, 0)" stroke-opacity="1.0" stroke-linecap="round" stroke-linejoin="round" />
    <path d="M 266.8879089355469 256.375732421875 C 257.9867248535156 252.21572875976562 246.44911193847656 243.28707885742188 235.62612915039062 231.83837890625 C 223.16049194335938 220.42019653320312 219.07933044433594 200.3888397216797 206.81675720214844 186.3899383544922 C 199.46319580078125 177.75254821777344 192.20726013183594 166.4989013671875 176.69813537597656 161.5749053955078 C 164.6515350341797 177.91888427734375 155.08900451660156 200.3099365234375 136.59889221191406 207.43008422851562 C 126.26299285888672 208.22012329101562 122.71296691894531 205.8403778076172 116.84275817871094 203.67733764648438 C 103.9734878540039 193.6743621826172 92.94047546386719 179.99713134765625 81.60944366455078 167.54966735839844 C 70.27283477783203 172.5150146484375 67.19258117675781 180.4568328857422 61.141544342041016 187.07115173339844 C 54.52615737915039 198.8140869140625 49.76029968261719 212.9397430419922 47.15804672241211 229.34005737304688 C 45.74252700805664 242.6028594970703 44.152828216552734 259.27471923828125 45.12697219848633 273.7478332519531 C 46.21576690673828 286.1895751953125 48.16762924194336 297.04791259765625 52.04724884033203 300.9222106933594 C 97.31962585449219 297.0006408691406 144.37916564941406 302.05615234375 179.6324462890625 294.33795166015625 C 187.04141235351562 289.3356628417969 183.53367614746094 269.8017578125 187.31895446777344 268.0254821777344 C 203.05044555664062 271.1602783203125 215.0662384033203 281.102783203125 229.0753173828125 280.221923828125 C 246.1683807373047 279.4537048339844 255.6477508544922 275.3329772949219 265.15875244140625 272.99493408203125 C 267.6221923828125 269.61712646484375 273.14410400390625 267.5621032714844 266.8879089355469 256.375732421875" stroke-width="0.0" fill="rgb(126, 77, 62)" opacity="0.9252175" stroke="rgb(0, 0, 0)" stroke-opacity="1.0" stroke-linecap="round" stroke-linejoin="round" />
    <path d="M 131.06973266601562 78.31529235839844 C 118.96232604980469 77.97987365722656 109.83401489257812 83.4293212890625 103.98825073242188 88.9007339477539 C 98.21197509765625 95.09452056884766 94.27664184570312 99.30419921875 94.85872650146484 115.42798614501953 C 98.17329406738281 126.43408203125 99.30126953125 139.7233428955078 102.86164093017578 148.49490356445312 C 107.7442398071289 154.84080505371094 111.1365966796875 159.3450927734375 118.79236602783203 163.82894897460938 C 124.91743469238281 164.26307678222656 129.1348419189453 169.83584594726562 136.5252227783203 165.5386199951172 C 143.453125 162.98690795898438 152.3946533203125 157.67364501953125 157.28955078125 147.14779663085938 C 163.0291748046875 139.80052185058594 159.3747100830078 125.26143646240234 160.78440856933594 105.75817108154297 C 159.61846923828125 95.51860046386719 154.23513793945312 89.05329132080078 147.94619750976562 83.17494201660156 C 140.51239013671875 79.2244644165039 138.2167510986328 78.89604949951172 131.06973266601562 78.31529235839844" stroke-width="0.0" fill="rgb(201, 159, 134)" opacity="0.9643595" stroke="rgb(0, 0, 0)" stroke-opacity="1.0" stroke-linecap="round" stroke-linejoin="round" />
    <path d="M 178.10853576660156 160.82550048828125 C 172.62338256835938 149.97483825683594 168.11819458007812 143.0369415283203 161.6578826904297 138.7428741455078 C 160.49612426757812 151.9733428955078 150.03004455566406 157.72195434570312 144.1576385498047 163.26980590820312 C 142.10159301757812 164.43324279785156 134.86056518554688 167.7615966796875 130.67617797851562 167.99598693847656 C 111.40594482421875 165.84176635742188 104.15989685058594 152.0353546142578 97.68003845214844 141.13645935058594 C 88.70567321777344 145.86122131347656 82.58291625976562 157.50750732421875 79.4587173461914 167.17889404296875 C 92.67974853515625 178.06788635253906 101.35582733154297 192.35211181640625 115.65153503417969 202.72299194335938 C 120.02006530761719 206.0382843017578 125.2803955078125 207.55921936035156 131.16465759277344 208.43678283691406 C 143.7618408203125 206.2222442626953 145.56570434570312 200.67063903808594 151.09036254882812 197.13290405273438 C 161.89576721191406 185.7838592529297 168.3508758544922 171.2826690673828 178.10853576660156 160.82550048828125" stroke-width="0.0" fill="rgb(196, 194, 209)" opacity="0.90774286" stroke="rgb(0, 0, 0)" stroke-opacity="1.0" stroke-linecap="round" stroke-linejoin="round" />
    <path d="M 321.5423278808594 106.43123626708984 C 317.74212646484375 122.2591323852539 320.5679626464844 134.1057891845703 323.720947265625 134.21267700195312 C 337.6994323730469 137.1029510498047 352.4987487792969 138.5762939453125 370.6418151855469 136.81448364257812 C 380.7145080566406 135.60159301757812 387.36767578125 132.61331176757812 390.6009521484375 130.95941162109375 C 394.5228271484375 115.53453063964844 390.9641418457031 106.4856185913086 386.6568603515625 99.11257934570312 C 382.6863098144531 92.37166595458984 376.40216064453125 87.86978149414062 369.9925842285156 85.95751190185547 C 363.33734130859375 82.20783996582031 345.83367919921875 83.84790802001953 341.0511779785156 86.85423278808594 C 332.7624206542969 90.12336730957031 326.2565002441406 96.37298583984375 321.5423278808594 106.43123626708984" stroke-width="0.0" fill="rgb(50, 31, 35)" opacity="0.907095" stroke="rgb(0, 0, 0)" stroke-opacity="1.0" stroke-linecap="round" stroke-linejoin="round" />
    <path d="M 392.8145751953125 129.94021606445312 C 383.25421142578125 133.95045471191406 375.7145690917969 136.13267517089844 365.4829406738281 136.8031768798828 C 350.7056579589844 138.57411193847656 333.7051086425781 136.4174041748047 321.0309753417969 133.20668029785156 C 321.63690185546875 138.81268310546875 322.6806335449219 146.49472045898438 322.891357421875 151.7928466796875 C 327.84735107421875 160.23521423339844 333.4441833496094 168.39842224121094 342.4088134765625 172.1327667236328 C 350.9633483886719 174.9949951171875 360.9466247558594 174.15792846679688 369.29241943359375 171.00648498535156 C 377.74774169921875 168.4847869873047 383.6854553222656 159.8634033203125 390.0816955566406 151.17828369140625 C 391.8372802734375 147.75794982910156 390.523681640625 139.7916717529297 392.8145751953125 129.94021606445312" stroke-width="0.0" fill="rgb(246, 165, 179)" opacity="0.8541187" stroke="rgb(0, 0, 0)" stroke-opacity="1.0" stroke-linecap="round" stroke-linejoin="round" />
    <path d="M 91.91271209716797 300.9947509765625 C 83.39667510986328 296.1598205566406 70.4592514038086 300.3450927734375 54.79408264160156 300.6451110839844 C 55.479713439941406 300.834716796875 52.25760269165039 300.3715515136719 51.6491813659668 302.5569763183594 C 52.412681579589844 313.19390869140625 55.59646987915039 318.2313537597656 59.012550354003906 323.8544921875 C 64.67002868652344 327.10504150390625 68.51763153076172 329.5697021484375 77.34390258789062 328.9696960449219 C 82.73912811279297 326.6601257324219 87.8995590209961 323.0140380859375 89.78424835205078 318.5774230957031 C 92.49226379394531 314.09423828125 94.49398040771484 307.0455017089844 91.91271209716797 300.9947509765625" stroke-width="0.0" fill="rgb(213, 87, 59)" opacity="0.9851652" stroke="rgb(0, 0, 0)" stroke-opacity="1.0" stroke-linecap="round" stroke-linejoin="round" />
    <path d="M 444.7305603027344 327.1982727050781 C 443.389892578125 334.2643737792969 438.7997741699219 343.97357177734375 441.618896484375 351.0137634277344 C 443.15423583984375 360.63336181640625 446.538818359375 370.6523132324219 452.8826599121094 375.9012756347656 C 457.1912841796875 379.357666015625 462.337890625 379.69989013671875 467.40338134765625 379.2492980957031 C 477.225830078125 375.9327087402344 484.5280456542969 372.7635803222656 490.2248840332031 366.31689453125 C 493.6484069824219 360.97540283203125 497.412109375 357.52239990234375 497.2007141113281 349.29864501953125 C 495.98016357421875 335.5931396484375 488.1619567871094 333.0692138671875 485.86920166015625 326.12701416015625 C 468.4505615234375 325.60540771484375 464.44488525390625 322.50628662109375 444.7305603027344 327.1982727050781" stroke-width="0.0" fill="rgb(249, 183, 76)" opacity="0.90190077" stroke="rgb(0, 0, 0)" stroke-opacity="1.0" stroke-linecap="round" stroke-linejoin="round" />
    <path d="M 184.1342010498047 298.75537109375 C 174.7344512939453 304.5459899902344 160.0054473876953 299.9149169921875 148.3342742919922 305.4420471191406 C 149.93324279785156 317.5966796875 140.34339904785156 311.4364929199219 132.40110778808594 322.31292724609375 C 133.78765869140625 330.9665222167969 128.30406188964844 333.87994384765625 127.33025360107422 343.4678955078125 C 145.10472106933594 361.8607482910156 132.28688049316406 415.7350769042969 152.44622802734375 438.7408447265625 C 167.29861450195312 428.8158264160156 166.332763671875 430.9503173828125 187.37777709960938 431.16668701171875 C 188.54627990722656 383.24713134765625 187.94168090820312 333.19329833984375 184.1342010498047 298.75537109375" stroke-width="0.0" fill="rgb(201, 208, 220)" opacity="0.96530426" stroke="rgb(0, 0, 0)" stroke-opacity="1.0" stroke-linecap="round" stroke-linejoin="round" />
    <path d="M 112.21994018554688 305.7308654785156 C 106.4593505859375 305.4706726074219 102.0273208618164 300.527099609375 96.69625854492188 303.1199645996094 C 100.7075424194336 314.7424011230469 98.77233123779297 308.68731689453125 95.27172088623047 319.2124328613281 C 89.38822937011719 325.4441223144531 84.91497039794922 330.8812561035156 73.80995178222656 330.4631042480469 C 63.20527267456055 359.77349853515625 47.608760833740234 373.6795349121094 31.848752975463867 390.5167236328125 C 28.08152961730957 395.12017822265625 30.45547103881836 402.5570983886719 32.73606491088867 408.03533935546875 C 42.316532135009766 409.71905517578125 47.37815475463867 415.06634521484375 55.860382080078125 422.2930908203125 C 68.96627807617188 419.7290954589844 79.7657241821289 411.1934814453125 91.4988021850586 405.9986877441406 C 101.15901947021484 398.5707702636719 108.4970474243164 388.5908203125 116.0035400390625 382.080810546875 C 124.77556610107422 361.19122314453125 130.00384521484375 345.4346008300781 121.15738677978516 316.7034912109375 C 119.86669921875 315.534912109375 114.71137237548828 317.94805908203125 110.39720916748047 310.2869567871094 C 116.46659088134766 309.8326110839844 116.7817153930664 311.23883056640625 112.21994018554688 305.7308654785156" stroke-width="0.0" fill="rgb(209, 216, 229)" opacity="0.9098768" stroke="rgb(0, 0, 0)" stroke-opacity="1.0" stroke-linecap="round" stroke-linejoin="round" />
    <path d="M 273.8500671386719 259.48931884765625 C 268.1697082519531 251.9723663330078 263.9558410644531 252.38211059570312 255.2914581298828 249.5030059814453 C 252.75094604492188 258.8910217285156 248.34156799316406 267.9271240234375 246.95416259765625 278.0553894042969 C 257.2621765136719 277.7904968261719 264.31695556640625 277.3799743652344 270.0379943847656 273.6127014160156 C 273.513427734375 271.1229553222656 277.5391540527344 266.2607727050781 273.8500671386719 259.48931884765625" stroke-width="0.0" fill="rgb(212, 117, 90)" opacity="0.837757" stroke="rgb(0, 0, 0)" stroke-opacity="1.0" stroke-linecap="round" stroke-linejoin="round" />
    <path d="M 95.68556213378906 306.45062255859375 C 82.92559814453125 307.5616760253906 67.25550842285156 312.7712707519531 52.26690673828125 305.7114562988281 C 52.54004669189453 308.93267822265625 48.26850128173828 317.63348388671875 50.23696517944336 316.9651184082031 C 50.624210357666016 322.48828125 58.46982955932617 325.653564453125 64.55584716796875 329.19775390625 C 60.86333084106445 329.670166015625 84.07335662841797 328.5679931640625 81.46209716796875 329.3822021484375 C 89.60877227783203 322.5504455566406 97.81629180908203 321.2922668457031 95.68556213378906 306.45062255859375" stroke-width="0.0" fill="rgb(247, 100, 64)" opacity="0.83252037" stroke="rgb(0, 0, 0)" stroke-opacity="1.0" stroke-linecap="round" stroke-linejoin="round" />
    <path d="M 51.535667419433594 305.69158935546875 C 63.044437408447266 311.1163330078125 78.21150207519531 310.0594787597656 94.7685546875 306.58807373046875 C 91.7769775390625 299.6104736328125 85.07569885253906 295.21441650390625 75.47626495361328 291.8683776855469 C 64.37773895263672 291.7710876464844 57.29983901977539 297.0044250488281 51.535667419433594 305.69158935546875" stroke-width="0.0" fill="rgb(175, 79, 56)" opacity="0.9158897" stroke="rgb(0, 0, 0)" stroke-opacity="1.0" stroke-linecap="round" stroke-linejoin="round" />
    <path d="M 259.3816833496094 253.94342041015625 C 256.7886962890625 263.3343200683594 253.02685546875 260.99456787109375 255.47555541992188 274.584716796875 C 257.08660888671875 272.8378601074219 258.9207458496094 278.5649108886719 271.5169982910156 271.3490905761719 C 255.00485229492188 273.9464111328125 268.58404541015625 269.8976745605469 273.4646301269531 260.2687683105469 C 269.9606628417969 257.9657287597656 265.5696105957031 252.2871551513672 259.3816833496094 253.94342041015625" stroke-width="0.0" fill="rgb(237, 110, 77)" opacity="0.99857795" stroke="rgb(0, 0, 0)" stroke-opacity="1.0" stroke-linecap="round" stroke-linejoin="round" />
    </g>
</svg>