<?xml version='1.0' encoding='utf-8'?>
<svg xmlns="http://www.w3.org/2000/svg" version="1.1" width="512" height="512">
  <defs />
  <g>
    <path d="M 258.03857421875 72.51103210449219 C 254.7864990234375 72.16675567626953 240.37396240234375 72.96051788330078 236.3758544921875 74.39872741699219 C 226.52127075195312 79.4110107421875 215.06591796875 79.88995361328125 211.30178833007812 102.7708511352539 C 218.16188049316406 121.41098022460938 207.32228088378906 142.94129943847656 217.49636840820312 160.18299865722656 C 205.7938995361328 169.38145446777344 190.04331970214844 176.00967407226562 183.23924255371094 187.4429931640625 C 174.13787841796875 198.16574096679688 169.98733520507812 208.69430541992188 165.88714599609375 225.68853759765625 C 165.1473846435547 234.80117797851562 163.5343780517578 261.8685607910156 167.23486328125 269.3725891113281 C 169.39227294921875 280.89910888671875 174.3614959716797 283.1600036621094 181.93865966796875 292.76507568359375 C 174.4336700439453 333.1931457519531 170.48231506347656 384.06304931640625 168.3816375732422 432.7362365722656 C 166.5437774658203 436.58038330078125 159.54493713378906 442.9350891113281 158.76300048828125 450.68560791015625 C 159.0254669189453 457.3846435546875 163.30221557617188 460.4761962890625 171.00823974609375 461.6833801269531 C 186.58648681640625 463.7228088378906 196.55709838867188 460.4886779785156 203.0659942626953 455.86688232421875 C 224.3626708984375 409.7456359863281 220.71664428710938 360.3655090332031 235.63168334960938 335.82958984375 C 247.04112243652344 348.5506896972656 251.51953125 370.7017517089844 268.62921142578125 385.0177917480469 C 282.8849182128906 400.63690185546875 298.16796875 414.61956787109375 316.69415283203125 425.8964538574219 C 319.41015625 434.7528991699219 314.57745361328125 443.8244934082031 324.0577087402344 448.4645690917969 C 327.462158203125 452.6883239746094 336.127685546875 447.92913818359375 343.5688171386719 444.7308349609375 C 349.2063903808594 436.54315185546875 360.36798095703125 431.8653564453125 362.7090148925781 416.0827331542969 C 344.3345947265625 388.8823547363281 318.1203308105469 364.62457275390625 304.8112487792969 340.9998779296875 C 300.07281494140625 325.06005859375 298.36962890625 310.60498046875 297.19085693359375 301.4053039550781 C 307.4774169921875 293.30328369140625 317.6923828125 286.85052490234375 322.7495422363281 273.61944580078125 C 328.4422607421875 257.5577697753906 331.1664123535156 244.91159057617188 329.9764099121094 220.6643829345703 C 326.4488830566406 204.52142333984375 320.9407043457031 191.744384765625 311.689453125 181.6404571533203 C 303.37017822265625 169.86424255371094 287.8183898925781 164.6193389892578 277.10760498046875 155.61277770996094 C 284.2184753417969 125.9421157836914 294.80853271484375 120.31140899658203 297.3958740234375 114.5132827758789 C 302.05206298828125 95.43665313720703 288.7512512207031 88.02474975585938 285.0729064941406 83.068359375 C 276.20184326171875 78.06798553466797 270.9359436035156 74.71347045898438 258.03857421875 72.51103210449219" stroke-width="0.0" fill="rgb(242, 196, 170)" opacity="0.9067517" stroke="rgb(0, 0, 0)" stroke-opacity="1.0" stroke-linecap="round" stroke-linejoin="round" />
    <path d="M 312.7851257324219 182.41903686523438 C 303.2561950683594 170.1990966796875 289.3505554199219 164.96795654296875 276.7734375 155.35888671875 C 268.1187438964844 162.27215576171875 258.3401794433594 167.80520629882812 246.9939422607422 170.5998077392578 C 233.3032989501953 171.88563537597656 226.96139526367188 163.9654998779297 215.9281005859375 161.57540893554688 C 200.5038604736328 171.64109802246094 184.37010192871094 179.7650909423828 176.62916564941406 196.3746795654297 C 171.95669555664062 202.4358367919922 169.26242065429688 213.1138916015625 165.34861755371094 224.47201538085938 C 163.0543212890625 250.51219177246094 164.1072998046875 273.79937744140625 172.80990600585938 283.52960205078125 C 178.19227600097656 294.36083984375 203.5666961669922 292.5380554199219 225.07762145996094 301.8666076660156 C 256.5990905761719 297.34259033203125 286.63568115234375 299.01788330078125 296.5986633300781 300.13690185546875 C 313.1025085449219 291.8421630859375 317.5580749511719 284.2908935546875 321.7828674316406 275.7102966308594 C 325.6449890136719 265.93310546875 328.56689453125 256.6369934082031 329.4027404785156 245.06564331054688 C 331.240966796875 228.57015991210938 329.959716796875 217.7698211669922 326.8028259277344 206.41848754882812 C 322.8409423828125 197.7024383544922 318.90545654296875 188.8370361328125 312.7851257324219 182.41903686523438" stroke-width="0.0" fill="rgb(231, 192, 241)" opacity="0.99208295" stroke="rgb(0, 0, 0)" stroke-opacity="1.0" stroke-linecap="round" stroke-linejoin="round" />
    <path d="M 183.2734832763672 291.79327392578125 C 168.7584686279297 344.2283935546875 176.38597106933594 410.9703063964844 159.87237548828125 456.3302307128906 C 176.0786590576172 466.147705078125 192.4274139404297 460.7102355957031 201.57687377929688 456.1766662597656 C 223.68023681640625 416.9803466796875 219.05970764160156 366.8914794921875 235.61227416992188 333.6089172363281 C 245.5809326171875 347.3004455566406 250.61557006835938 365.2674560546875 263.0768127441406 379.5132141113281 C 279.893798828125 397.2113037109375 296.1894226074219 414.22174072265625 322.32269287109375 427.95343017578125 C 323.6592102050781 422.98760986328125 327.3504638671875 419.3870544433594 337.177978515625 417.7608337402344 C 331.18865966796875 423.89794921875 329.4593811035156 432.403564453125 320.8326416015625 435.2350769042969 C 322.3611755371094 445.4449768066406 318.5692443847656 442.59625244140625 326.0826110839844 447.93072509765625 C 339.4372253417969 449.158203125 343.3970642089844 443.1299743652344 350.29754638671875 436.3521423339844 C 356.29302978515625 431.4996643066406 360.7488098144531 421.4444274902344 361.3611755371094 419.1934509277344 C 344.09307861328125 386.0514831542969 322.5426025390625 369.98223876953125 308.4322509765625 347.2398376464844 C 300.0254211425781 334.9266052246094 299.3109436035156 316.7445068359375 296.4962463378906 300.70751953125 C 246.01016235351562 297.9952392578125 215.31381225585938 304.22943115234375 183.2734832763672 291.79327392578125" stroke-width="0.0" fill="rgb(233, 175, 124)" opacity="0.77598065" stroke="rgb(0, 0, 0)" stroke-opacity="1.0" stroke-linecap="round" stroke-linejoin="round" />
    <path d="M 277.52508544921875 78.2910385131836 C 266.5249938964844 73.15534973144531 256.62139892578125 72.17191314697266 244.2787322998047 73.12103271484375 C 230.5972137451172 75.77061462402344 216.32847595214844 79.20807647705078 212.30335998535156 98.27283477783203 C 214.363525390625 108.56123352050781 213.20228576660156 124.29635620117188 212.51380920410156 146.0963897705078 C 215.90017700195312 154.84361267089844 217.7995147705078 163.34742736816406 223.7521514892578 164.57669067382812 C 234.51181030273438 169.69139099121094 239.99122619628906 173.77349853515625 250.684326171875 168.91514587402344 C 264.11602783203125 167.7495574951172 267.7568054199219 158.90277099609375 274.1589660644531 158.82504272460938 C 285.5398864746094 138.76397705078125 283.7059020996094 125.35580444335938 292.0435485839844 123.31780242919922 C 300.409912109375 104.3469467163086 296.84613037109375 98.87730407714844 293.3287658691406 91.64813232421875 C 289.4198303222656 85.76529693603516 283.27935791015625 81.33576965332031 277.52508544921875 78.2910385131836" stroke-width="0.0" fill="rgb(221, 185, 179)" opacity="0.9085711" stroke="rgb(0, 0, 0)" stroke-opacity="1.0" stroke-linecap="round" stroke-linejoin="round" />
    <path d="M 238.69544982910156 303.5802001953125 C 235.34500122070312 311.56097412109375 238.5536346435547 324.05560302734375 237.90289306640625 335.2630310058594 C 244.7629852294922 347.17730712890625 249.8533477783203 361.5553283691406 258.1322937011719 372.5462951660156 C 275.1487731933594 394.1509704589844 295.3797607421875 412.40771484375 320.12225341796875 426.68115234375 C 318.2768859863281 439.42254638671875 317.6859436035156 440.7993469238281 323.07305908203125 446.88604736328125 C 332.0372009277344 451.5688171386719 328.88427734375 447.654052734375 338.0365905761719 446.803955078125 C 347.4923400878906 441.0196228027344 352.2891845703125 434.26788330078125 357.7515563964844 427.3563232421875 C 359.6142272949219 424.22979736328125 362.5067443847656 420.10601806640625 360.58258056640625 413.5767517089844 C 342.2091064453125 388.5576171875 322.1210021972656 367.380615234375 306.5331726074219 344.5830993652344 C 300.40899658203125 331.54571533203125 298.6324768066406 316.51513671875 297.1491394042969 303.4825439453125 C 283.5375061035156 298.8527526855469 257.93768310546875 302.6542053222656 238.69544982910156 303.5802001953125" stroke-width="0.0" fill="rgb(243, 160, 55)" opacity="0.9572259" stroke="rgb(0, 0, 0)" stroke-opacity="1.0" stroke-linecap="round" stroke-linejoin="round" />
    <path d="M 186.4490966796875 294.65020751953125 C 180.6742706298828 295.3985595703125 182.45498657226562 296.69476318359375 179.74180603027344 305.0826110839844 C 174.04710388183594 343.8221740722656 170.02279663085938 391.09686279296875 168.5349884033203 435.7322082519531 C 179.9087371826172 435.7748718261719 188.32998657226562 431.80035400390625 185.45220947265625 439.2350158691406 C 174.8775177001953 441.70477294921875 170.5708465576172 445.99981689453125 160.7843475341797 443.1999816894531 C 169.3560028076172 455.16455078125 154.7191619873047 451.1728210449219 167.6868438720703 460.2114562988281 C 169.9224395751953 461.5148620605469 166.88914489746094 449.32525634765625 168.1521453857422 446.9382629394531 C 171.85263061523438 448.8701477050781 179.70948791503906 448.283203125 186.42138671875 448.8268737792969 C 181.47030639648438 452.8892517089844 182.3834991455078 456.6732177734375 172.38099670410156 449.4714660644531 C 176.5264892578125 454.53997802734375 170.96246337890625 460.55804443359375 170.0275115966797 459.9850769042969 C 186.83905029296875 464.3029479980469 197.27337646484375 458.93792724609375 203.45358276367188 454.04681396484375 C 222.118896484375 412.1610412597656 220.78172302246094 369.37310791015625 234.1197509765625 334.53387451171875 C 233.46058654785156 317.1877746582031 235.20016479492188 310.3543701171875 229.63140869140625 304.0052185058594 C 216.06219482421875 301.2679138183594 203.24061584472656 296.0928039550781 186.4490966796875 294.65020751953125" stroke-width="0.0" fill="rgb(245, 163, 57)" opacity="0.93790984" stroke="rgb(0, 0, 0)" stroke-opacity="1.0" stroke-linecap="round" stroke-linejoin="round" />
    <path d="M 228.80174255371094 106.86030578613281 C 219.23988342285156 110.23580932617188 214.2818603515625 116.1493148803711 212.92132568359375 130.6270751953125 C 212.1873779296875 144.3224334716797 212.71006774902344 149.49937438964844 218.84494018554688 161.0873565673828 C 221.02850341796875 165.33657836914062 228.65213012695312 168.2841339111328 235.33631896972656 169.80575561523438 C 254.27218627929688 171.5281982421875 257.1638488769531 168.62205505371094 268.379638671875 162.15896606445312 C 277.91668701171875 156.65560913085938 278.7691650390625 148.8800506591797 283.0798034667969 137.9499053955078 C 285.54583740234375 128.69801330566406 283.2287292480469 124.29534912109375 278.4717712402344 117.76927947998047 C 273.4064025878906 110.31914520263672 260.5713195800781 109.06910705566406 251.68939208984375 104.40247344970703 C 241.90853881835938 103.88041687011719 232.989501953125 103.321044921875 228.80174255371094 106.86030578613281" stroke-width="0.0" fill="rgb(151, 102, 58)" opacity="0.9635509" stroke="rgb(0, 0, 0)" stroke-opacity="1.0" stroke-linecap="round" stroke-linejoin="round" />
    <path d="M 213.49417114257812 90.2940673828125 C 209.95614624023438 100.98249053955078 212.90081787109375 112.45178985595703 215.45204162597656 117.5159683227539 C 218.70106506347656 110.57935333251953 226.5545654296875 108.28882598876953 232.75570678710938 104.70736694335938 C 238.0093994140625 105.05269622802734 246.9150848388672 104.7139892578125 250.93162536621094 104.67449951171875 C 257.92950439453125 108.1211166381836 265.8371887207031 109.5454330444336 272.8525085449219 112.84510040283203 C 278.0578308105469 116.7826156616211 282.1759033203125 121.7724380493164 283.83319091796875 129.3423309326172 C 293.5260314941406 126.56718444824219 296.03839111328125 120.48865509033203 299.0125732421875 114.43605041503906 C 299.94586181640625 100.10723114013672 297.966552734375 97.31854248046875 292.7233581542969 90.12680053710938 C 286.02667236328125 82.3514633178711 277.5796203613281 77.43470764160156 266.6534118652344 74.08973693847656 C 256.43896484375 71.6170654296875 252.75901794433594 71.25821685791016 240.0795135498047 73.02637481689453 C 226.33755493164062 77.51968383789062 219.33511352539062 80.8997573852539 213.49417114257812 90.2940673828125" stroke-width="0.0" fill="rgb(249, 194, 242)" opacity="0.84220517" stroke="rgb(0, 0, 0)" stroke-opacity="1.0" stroke-linecap="round" stroke-linejoin="round" />
    <path d="M 228.84329223632812 275.0083923339844 C 220.10914611816406 271.3493347167969 217.8740692138672 278.4305725097656 214.29293823242188 281.10699462890625 C 211.50637817382812 288.6959228515625 215.45860290527344 286.6684265136719 216.9920196533203 291.81329345703125 C 225.62969970703125 295.1106872558594 228.9471435546875 292.23968505859375 231.6408233642578 289.09197998046875 C 234.86705017089844 281.344970703125 230.92288208007812 276.8447265625 228.84329223632812 275.0083923339844" stroke-width="0.0" fill="rgb(84, 95, 116)" opacity="1.0086998" stroke="rgb(0, 0, 0)" stroke-opacity="1.0" stroke-linecap="round" stroke-linejoin="round" />
    <path d="M 232.4512939453125 234.75234985351562 C 227.10597229003906 234.3649444580078 222.57757568359375 236.05715942382812 218.8351593017578 241.49070739746094 C 218.38470458984375 247.18624877929688 218.90451049804688 249.12716674804688 223.18661499023438 252.94322204589844 C 229.27359008789062 253.83001708984375 233.8061981201172 252.41781616210938 235.55393981933594 248.38003540039062 C 238.28990173339844 243.2727508544922 237.2656707763672 238.16810607910156 232.4512939453125 234.75234985351562" stroke-width="0.0" fill="rgb(89, 99, 121)" opacity="1.006468" stroke="rgb(0, 0, 0)" stroke-opacity="1.0" stroke-linecap="round" stroke-linejoin="round" />
    <path d="M 229.65093994140625 197.95420837402344 C 224.97219848632812 201.99940490722656 221.71041870117188 204.85015869140625 224.93374633789062 211.97848510742188 C 226.36497497558594 215.9271697998047 231.6101837158203 215.9507293701172 236.56434631347656 213.76853942871094 C 240.1677703857422 212.1343994140625 242.6064453125 205.2793426513672 240.1755828857422 202.40719604492188 C 240.75967407226562 196.16351318359375 233.61500549316406 198.42555236816406 229.65093994140625 197.95420837402344" stroke-width="0.0" fill="rgb(100, 107, 131)" opacity="1.0015236" stroke="rgb(0, 0, 0)" stroke-opacity="1.0" stroke-linecap="round" stroke-linejoin="round" />
    <path d="M 158.77442932128906 448.9849853515625 C 158.10203552246094 456.5250549316406 161.1210174560547 456.76409912109375 164.28721618652344 459.8282165527344 C 171.7983856201172 463.8328857421875 177.50723266601562 461.45098876953125 186.49652099609375 462.31964111328125 C 195.617919921875 460.0880126953125 201.3999786376953 458.2570495605469 205.07447814941406 453.26409912109375 C 207.63504028320312 450.9972229003906 208.80946350097656 440.2574768066406 208.0103302001953 437.3783264160156 C 204.84371948242188 431.01739501953125 186.99949645996094 433.2093505859375 174.68495178222656 431.7491149902344 C 167.4333953857422 433.3296203613281 161.04945373535156 442.1662902832031 158.77442932128906 448.9849853515625" stroke-width="0.0" fill="rgb(251, 91, 57)" opacity="0.98808" stroke="rgb(0, 0, 0)" stroke-opacity="1.0" stroke-linecap="round" stroke-linejoin="round" />
    </g>
</svg>